<?xml version="1.0" encoding="utf-8"?>
<!-- Generator: Adobe Illustrator 24.3.0, SVG Export Plug-In . SVG Version: 6.00 Build 0)  -->
<svg version="1.1" id="Layer_1" xmlns="http://www.w3.org/2000/svg" xmlns:xlink="http://www.w3.org/1999/xlink" x="0px" y="0px"
	 viewBox="0 0 1920 1080" style="enable-background:new 0 0 1920 1080;" xml:space="preserve">
<style type="text/css">
	.st0{fill:#9D0208;}
	.st1{fill:#FCA311;}
	.st2{fill:#C1292E;}
	.st3{fill:#F1C47B;}
</style>
<g>
	<g>
		<path d="M1919,1v1078H1V1H1919 M1920,0H0v1080h1920V0L1920,0z"/>
	</g>
	<g>
		<path class="st0" d="M0,1080c642-7.7,1284-15.3,1926-23V633c-25.7,139-113.7,253.3-231,295c-23.3,8.3-121.5,43.2-216,7
			c-28.8-11-41.3-22.6-84-37c-60.9-20.6-117.8-25-148-24c-129.1,4.4-134,121.7-287,162c-119.6,31.5-234.5-9.1-257-17
			c-26.1-9.2-24.6-11.4-88-42c-133.3-64.3-207.2-100-303-117c-76.5-13.6-150.3-27.2-209,14c-17.2,12.1-57.2,45.9-85,101
			c-8.9,17.7-14.5,33.4-18,45C0,1040,0,1060,0,1080z"/>
	</g>
	<g>
		<path class="st1" d="M0,1080h1920V656c-57.9,177.5-140.2,247.2-208,277c-158.6,69.7-262.5-68.4-504-30
			c-213.8,34-221.6,156.5-388,153c-206.9-4.4-263.4-195.2-458-202c-86.6-3-209.7,30.1-363,197C-0.7,1060.7-0.3,1070.3,0,1080z"/>
	</g>
	<g>
		<path class="st1" d="M200,259c0.4,85.5,78.2,160,148,156c47.2-2.7,80.7-40.8,95-57c12.9-14.6,49-55.6,44-111
			c-3-33.4-19.6-56.2-31-72c-11-15.2-50.6-69.9-106.5-74C279.3,95.9,199.6,172,200,259z"/>
		<circle class="st2" cx="321.5" cy="257.5" r="149.5"/>
	</g>
	<path class="st1" d="M1587.2,119c0.2,31.3,28.5,58.6,54,57.1c17.2-1,29.4-14.9,34.6-20.9c4.7-5.4,17.9-20.4,16-40.7
		c-1.1-12.2-7.1-20.6-11.3-26.4c-4-5.6-18.5-25.6-38.8-27.1C1616.1,59.2,1587,87.1,1587.2,119z"/>
	<ellipse class="st3" cx="1631.5" cy="118.4" rx="54.5" ry="54.8"/>
	<path class="st1" d="M397,707"/>
</g>
</svg>
