<?xml version="1.0" encoding="utf-8"?>
<!-- Generator: Adobe Illustrator 24.3.0, SVG Export Plug-In . SVG Version: 6.00 Build 0)  -->
<svg version="1.1" id="Layer_1" xmlns="http://www.w3.org/2000/svg" xmlns:xlink="http://www.w3.org/1999/xlink" x="0px" y="0px"
	 viewBox="0 0 320 240" style="enable-background:new 0 0 320 240;" xml:space="preserve">
<style type="text/css">
	.st0{fill:#EF476F;}
	.st1{fill:#FFFFFF;}
	.st2{fill:#48CAE4;}
	.st3{fill:#1D3557;}
	.st4{font-family:'ArialRoundedMTBold';}
	.st5{font-size:57.2411px;}
</style>
<g>
	
		<rect x="40.6" y="12.3" transform="matrix(0.9973 -7.310180e-02 7.310180e-02 0.9973 -8.0882 11.6938)" className="st0" width="230.2" height="208"/>
	<g>
		<g>
			<g>
				<g>
					<path className="st1" d="M276.1,211.8c0.3,0.4,0.9,0.1,0.7-1.1l-1.1-0.8L276.1,211.8z"/>
					<path className="st1" d="M277.4,203.1c-0.6-1.4-1.6-3.1-2.5-2.1c1.1,1.4,0.7,1.8,2,3.3c0.2,1.3-0.2,2.2-0.6,2.1
						c0.3,0.4-0.1,2,0.6,2.6c0.7-1.7,0.5-3.8-0.3-5.9C276.9,202.6,277.1,203.1,277.4,203.1z"/>
					<path className="st1" d="M269.9,79.1l-0.1,0.8C269.8,79.6,269.9,79.4,269.9,79.1z"/>
					<path className="st1" d="M262.2,2.2c0.8-0.1,1.2-0.2,1.4-0.3C262.7,2,262,2.2,262.2,2.2z"/>
					<path className="st1" d="M247.7,2.2c0.3,0,0.5,0,0.8,0C248.2,2.1,247.9,2.1,247.7,2.2z"/>
					<path className="st1" d="M269.9,79.1L270,77C269.7,76.8,269.9,78,269.9,79.1z"/>
					<path className="st1" d="M273.6,186.2c0.1,0.4,0.2,0.8,0.4,1.1c-0.1-0.4-0.1-0.7-0.2-1C273.8,186.3,273.7,186.2,273.6,186.2z"/>
					<path className="st1" d="M273.2,112.8l0,0.6c0.1,0.2,0.3,0.3,0.5,0.5L273.2,112.8z"/>
					<path className="st1" d="M275.2,138.8c0-0.6-0.9-0.7-1.3-0.9c0.4,0.3,0.6,0.7,0.7,1.2C274.8,139.1,275,139,275.2,138.8z"/>
					<path className="st1" d="M276.7,180.1l0.2,0.7C276.8,180.7,276.8,180.4,276.7,180.1z"/>
					<path className="st1" d="M272,94.2c0.1-0.1,0.2-0.2,0.3-0.3C272.2,94,272.1,94.1,272,94.2z"/>
					<path className="st1" d="M247.7,209.8c0,0.1,0,0.1,0,0.1C247.9,209.9,247.9,209.8,247.7,209.8z"/>
					<path className="st1" d="M278.1,211.9l-0.4,0.1c0,0.2-0.1,0.3,0,0.5L278.1,211.9z"/>
					<path className="st1" d="M223.6,2.8c0.1,0,0.1,0,0.1,0C224.4,2.7,224,2.7,223.6,2.8z"/>
					<path className="st1" d="M31.9,51c0.6-2.5,1.3,4,1.9,0.2C33.4,51.5,32.2,47.8,31.9,51z"/>
					<path className="st1" d="M273.7,185.5c0-0.4-0.1-0.7-0.1-1.1C273.6,185,273.6,185.3,273.7,185.5z"/>
					<path className="st1" d="M33.8,51.1L33.8,51.1l0.1-0.4C33.8,50.9,33.8,51,33.8,51.1z"/>
					<path className="st1" d="M168.4,7.4c0.1,0.1,0.4,0.2,0.6,0.3C168.9,7.7,168.8,7.6,168.4,7.4z"/>
					<path className="st1" d="M209.7,5.6l-1,0C209.1,5.6,209.4,5.6,209.7,5.6z"/>
					<path className="st1" d="M147.1,10.2c-0.6,0-0.8-0.1-1.5,0c0.1,0,0.1,0.1,0.2,0.1C146.1,10.2,146.4,10.1,147.1,10.2z"/>
					<path className="st1" d="M124.8,11.8c0.1,0.1,0.3,0.1,0.4,0.1c0.2,0,0.5-0.1,0.7-0.1L124.8,11.8z"/>
					<path className="st1" d="M180.1,215.2c0.5,0.2,0.8,0.4,1.1,0.7C180.8,215.3,184,214.8,180.1,215.2z"/>
					<path className="st1" d="M274.1,186.2c-0.2-0.1-0.4-0.3-0.4-0.6c0,0.2,0.1,0.5,0.1,0.7C273.9,186.3,274.1,186.3,274.1,186.2z"/>
					<path className="st1" d="M146.7,17.1l-3.6,0.1C144.1,17.2,145.4,17.2,146.7,17.1z"/>
					<path className="st1" d="M50,200.4l0.2,0.8C50.1,200.9,50.1,200.6,50,200.4z"/>
					<path className="st1" d="M132.6,18.1c-0.6-0.3-1.3-0.4-2-0.5c-0.1,0.1-0.3,0.1-0.4,0.2L132.6,18.1z"/>
					<path className="st1" d="M181.2,215.9C181.2,215.9,181.2,215.9,181.2,215.9C181.2,215.9,181.2,215.9,181.2,215.9z"/>
					<path className="st1" d="M204.3,212.1c-3.4,0.2-1.5,1.2-2.2,1.9c-4,0.6-1.9-0.7-3.3-1.2c-2.5,0.5-4.3,1.7-6.2,1.8
						c-0.1-0.2-0.5-0.2-0.1-0.5c-2.6,1.1-7.9,0.6-10.9,2c-0.2-0.1-0.4-0.2-0.4-0.2c0.5,0.5,0.7,1.1,0.6,1.5
						c-1.5,0.1-2.8,0.9-3.4,0.2c0.9-0.1,1-0.4,1.4-0.6l-1.6,0.4c-1.5-1,2.1-0.5,2.1-1.3c-3.1,0.6-6.6,1.7-9,1.6
						c-0.6-1,5.5-0.8,2.3-1.5l3.7,0.1c-2.9-1.4,2.2-0.1-0.5-1.6c-4.8,0.1-5.4,0.9-10.2,1c-1,0.7,0.4,0.8-0.6,1.5
						c-6.8,1.5-5.6-2.2-10.5-0.5c-1.2,0.8-1.7,2.1-5.3,1.7l1.1-1.3c-4.7,0.2-2.5,1.9-7.5,1.5c0.8-0.5,3.6-0.7,2.9-0.8
						c-3.2-0.7-2.2,0.8-4.6,1l-0.6-1c-4.9,0.5-10.4,1.7-15.8,2.3c0.3-0.3,1.2-0.7-0.1-1c-6.9,1-14.8,1-21.5,0.8l-2.5,1.1
						c-0.6,0-1.1-0.3-0.5-0.6c-2.6-0.1-0.1,0.6-1.3,1c-1.5,0.2-2-0.4-1.1-0.7c-4.6,1.1-13,2.6-17.9,2l0.9-0.3
						c-3.8-0.1-4.1,2.2-7.7,1.6l0.7-0.2c-4.1,0.1-8.4,0.5-12.5,0.8c-2,0.1-4,0.2-5.9,0.3c-0.9,0-1.8,0-2.7-0.1l-0.3,0
						c-0.1,0-0.1,0-0.2,0c-0.1,0-0.2-0.1-0.2-0.1c-0.1-0.1-0.2-0.1-0.3-0.2c-0.3,0.5-0.8,0.6-1.3,0.6c0-0.5,0.1-1.1,0-1.5
						c0-0.2-0.1-0.3-0.3-0.5c-0.2-0.4-0.4-0.6-0.7-0.7c0.6-4.7,1-3.4,1.1-10.1c0-1.8-1.3-2.5-1.7-4.7l0.9-0.1l-1.2-2.9l1-1.7l-0.4-2
						c0,0.8-0.3,1.8-0.6,1.7c-0.7-3.2,0.1-7.8,0.6-7.9l-1.4-7.5c0.4,0.1,0.6,1.4,0.9,2.4c-1.3-3.9,1-0.8-0.2-4.4
						c-0.2,0.5-0.6-0.2-0.8-0.3c0.4-1.9,0.1-6.1-0.3-9.1l0.7,0.6c-0.2-5.6-1.2-11.8-1.6-18.1c-0.1,2.3-1.3,1.8-1.6,0l1-0.8
						c-0.7-1.1-0.2,1.9-1.2-0.4c-0.1-2.4,1-1.7,1.5-0.3l-0.6-2.8c0.3-0.2,0.5,0.5,0.9,0.6c-0.7-1.1,0.7-5-0.6-6.6l0.3-0.2
						c-0.5-6.3-1-9.1-1.4-14.2c-0.9,0-0.8-2.1-1.6-3.5c0-3.8,0.4-8,0-12.5c-0.7-3.2-0.8-0.9-1.4-2.3c0.8-0.3,0.4-4.8,1.1-2.5
						c-0.5-5.4-0.7-6.9-1.8-13.8c-0.3,0.8-0.3,1.6-0.7,1.2c-0.2-1.2,0.1-2.9,0.5-2.7l0.1,0.3c-1.8-7.6,1-18-1.1-24l0.1,0.3l-1.3-6.3
						c-0.1-2.9,0.7,1.7,1-0.5c-1.8-6.8-0.6-10.9-1.9-16.5c2-4.5-1.3-15.5-0.2-21.5L38,29.8c-0.7-1.5,0.2-1.9,0.2-3
						c-0.4,0.2-0.4,1.7-0.7,0.8c-0.1-0.6-0.1-1.1-0.2-1.7c0-0.2,0-0.2,0-0.2l0-0.1l0-0.2c0-0.3-0.1-0.7-0.1-1c0.4,0,0.8,0,1.2,0h0.2
						c0.1,0,0,0,0.2,0l1,0l2.1-0.1c2.8-0.1,5.6-0.2,8.4-0.2c5.6-0.1,11.2-0.1,16.7-0.3c4.9-0.2,2.6-3,8.8-2.2l-1.7,1.1
						c9.7-1.9,20-1.4,29.5-3.2c-0.6,0.3-0.6,0.6-1.5,0.6c2.1,0.6,7.5-0.5,7.5-1.1c1.5,0,0.4,0.5,1.3,0.8c2.1,0.3,5-1.3,6.2-0.7
						c0.2,0.1-0.6,0.3-0.9,0.4c1.3-0.5,6.2-0.4,4.8-1.1c3.6,0.1,6.8-0.9,9.8-0.6c1.8-1.1,6.2,0,6.7-1.4c-0.2,1.4,6.4,0.7,8.6-0.2
						c-0.7,0.5,2,0.3,1.2,0.9c2.6-0.2,4.9-0.6,4.4-1.3c4.9,1.3,9.5-2.1,12.4-0.1c7.7-1.3,14.8-2.3,21.7-3.2
						c-0.1,1.4-7.7,0.7-7.2,2.1c6.5-1.1,10.2-2.5,16.8-2.7c1.7,0.1-0.9,0.7-1.5,0.9c6.5-1.1,12.7-0.8,18.5-2c0,0.1-0.6,0.3-1.2,0.5
						c1.1-0.1,2.7,0,2.5-0.6l-1.1,0.2c-1.9-0.8,4.4-2.2,4.6-2.8c-1.8,1.9,5.8,0,2.9,2.5c0.8-0.2,1.7-0.5,1.5-0.9
						c1.1,0,1.5,0.3,0.4,0.8c4.1-0.6,2.6-1.2,6.3-1.5c0,0.3-0.7,0.5-1.1,0.9c1.9-0.7,3.7-1.5,6.9-1.4c-0.2,0.2,0.2,0.4-0.7,0.5
						c5.4-0.5,9.1-2.3,15.1-2.1c-1.7,1.5,2.1,0.3,2.5,1.4l3.2-0.6l-1.3-0.5c1.4-0.1,2.7-0.4,4-0.7c0.3-0.1,0.6-0.1,0.9-0.2
						c0.3,0,0.5-0.1,0.8-0.1c0.4-0.1,0.8-0.1,1.1,0c-0.5,0.2-0.9,0.4-1.2,0.6l2.8-0.4l0,0.2l0-0.2c-0.4-0.1-0.8-0.2-1.4-0.3
						c1-0.3,1.3-0.7,1.5-0.9c0.2-0.3,0.3-0.4,1.4-0.4c0,0.2,0,0.4,0,0.7c-0.2-0.6,0.2,2.6-0.4,3.8v0c0.5,1.4,1,2.8,0.8,4.9
						c-0.3,0.6-1.3-0.3-1.5,0c1.1,1.3,0.8,6.6,1.9,8.2c-0.3-0.6-0.9-0.5-1-0.4l0.9,1.1c-0.1,1.3-0.3,1.5-0.8,1.3
						c0.1,3.9,1.4-1.4,1.1,3.3c-0.1-0.4-0.2-0.2-0.4-0.9c0,4.7,1.2,9,1.1,13.3c-1.1,1.3-0.6-3.7-1.4-2.2c0.7,6.2,2.3,12.7,2.5,18.7
						l0-1.1c1.7,0.7-0.5,4.5,0.5,7.5c-0.2-0.7-1-0.9-0.8-0.7c0,4.1,1,8.3,2,14.5l-0.5-0.7c-0.2,2.4,0.2,6.4,0.2,9
						c0.5,0.7,0.5,2.2,1.1,1.3c-1.8,8.2,2.4,15.2,0.9,22.5c-0.1-0.8-0.5-2-0.5-1.3l0.8,6c0.7-0.5,0.4-0.8,0.8-2.1
						c0.5,0.7,0.9,2.4,1,3.9c-0.7-2.7-1.1,0.1-1.5,1.3c0.2-0.2,0.5,0.2,0.7,0.1c-1,3.3,1.5,0.4,0.9,4.8l-0.4-0.2
						c0.3,1.6,0.9,3.1,0.9,4.8c-0.8,0.8-0.5-1.7-1.2-1.8c0.2,2.4,1.9,4.7,1.3,7c-0.3-1-0.4-2.5-0.7-3.6c-0.8,2.5-0.5,2.8-0.5,4.6
						l0-0.2l-0.1,4.2l0.2-1.1c2.4,2.9,0.9,6.2,2.6,10.3c-1.6-3.9-0.8-0.6-1.8-0.9c-0.2,1.1-0.4,2.7-0.6,2.3c0.9,1.9-0.4,3.3,1,6
						c-0.3,0.1,0.1,2.1-0.7,1.7c0.4,2.5,0.5-0.6,0.9-0.4c1.3,3.8-0.6,9.3,1.2,14.8c0.9,4.8,2,5.6,2.9,10.1c-0.4,1.6-1.2-1.2-1.2-1.2
						c-0.3,2.5,0,4.3,0.5,6.6c-0.3-0.4-0.5,0.1-0.8,0.8c0.2,1.9,1.2,1.2,0.9,3.6c-0.4-0.4-0.9-0.9-1.3-1.8c0.4,2.2,1.2,4.3,1.6,6.5
						c-0.5,0.6-0.9-1.3-1.3-2.1c0.4,2.5,1,6.6,1.8,7.3l0.2-1.7c0.1,0.9-0.7,0.5-0.9-0.1c-0.8-2.1,0.1-3.2,0.4-3.3l0.3,1.6
						c1.6-1.8-0.8-6.5-0.9-9.7l1.4,1.3l-1.3-3.2c0.3-0.7,1-1.3,1.3,0.3c0.5-2.4-0.6-2,0-4.1c0.1-0.2,0.2-0.1,0.2,0.1l-0.5-2.2
						c0.3,0.4,0.9-0.4,0.8,1c0.4-4.1-1.4-6.5-0.6-8.1l0.1,0.3c-0.9-5.6-1-0.5-2.4-4.6l2.1-3l-1-0.5c0-0.6,0-1.8,0.4-1.6
						c-0.8-2.1-0.4,0.4-1.1-0.8c0.6-2.9-1-7.7,0.5-8.5c-0.8-1-0.4,2.7-1.1-0.2c1.5-1-0.5-3.4,0-6.1c0.9,0.7,0.6,3.2,1.2,0.6
						c-1.5-1.4-0.1-5-0.5-7.2c-1.1,0-0.8-4.7-1.5-8.3c0.4,0.2,0.1-6.9,0.3-10.3l0.2,0.1c-1.2-0.6-1.2-4.1-1.6-6.6
						c0.7,0.1,1,0.5,1.4,1.8l-0.2-2.4c-0.4-0.5-0.6-1.3-0.9-2.8l0.9,0.5c-0.3-3.2-1.5-6.3-1.2-10.5c-0.8-0.2-2,3.4-2.8-0.9
						c0.4-0.2,1.1-0.4,1.4,0.7c-0.1-0.4-0.5-1.3-0.3-2.1l0.8,1.7c0.2-1.9-0.7-0.9-0.7-2.4c0.6,0,0.4-1.1,0.9-1
						c0.1,0.4-0.2,1.3,0.1,1.9c0-1.7,0.2-3.8,0.6-4.4c-0.3,0.2-0.8,0.1-1-1.2c-0.3-3.2,0.6-1.1,0.8-3c-0.5-0.7-0.2-2.8-1.1-2.8
						c-0.1-0.9,0.4-1.1,0.6-1.5c-0.5-1.6-0.7-7.7-1.5-5.8l0,0.4c0-0.1,0-0.2-0.1-0.3c0,0,0,0,0,0v0c-1.3-5.3-0.3-11.2-1.1-16.6
						l0.3,0c-0.6-3.2-0.7-7.1-1.5-9.3c-0.1-1,0.4-2.3,0.8-1.9c-0.4-2.4-0.8-2.7-0.5-6.2c0.7,2.4,0.4-0.9,0.6,2.5
						c0-3.2,0.5-4-0.6-7.3c0.9,1.1,0.8-2.5,0.5-4l-0.4,2.3c-0.2-1.7-0.3-3.2-0.3-4.7l1.1,0.7c0.8-6.6-3-11.6-1.3-16.7
						c-0.8-1.7-0.2,3.6-1.2,2.1c-0.1-3,1.2-6.2,1.1-7.1c0.1-2.1-0.3-3-0.8-3.9c-0.2-0.5-0.5-0.8-0.7-1.9c-0.2-0.9-0.3-2-0.4-3.6
						c-0.1,0.5-0.4,1.1-0.8,1s-0.7-0.6-1-2c-0.1,0-0.2,0-0.3,0c-1.6,0-2.5-0.3-2.8-0.7c-0.3-0.4,0.2-0.8,1.7-1.1
						c1.1-0.1,1.5,0,1.4,0.1c0.5-0.1,1.1-0.2,1.6-0.3c0.2,0.7,0.3,1,0.5-0.5l-0.1,0l-0.8,0.4c-1.9-0.2-8.5,0.3-7-0.4
						c-1.1,0.3-1.4,0.4-1.1,0.5c0.1,0.1,0.4,0.1,0.7,0.1c0.1,0,0.2,0,0.3,0c0.1,0,0.2,0,0.4,0c0.3,0,0.6,0,0.9,0c-0.6,0-1.2,0-1.8,0
						c-0.4,0-0.9,0-1.3,0c-0.8,0-1.6,0.1-2.3,0.1c-1.5,0.1-3,0.3-5,0.2c0.6,0.2,1.2,0.5,0.6,0.6c-5.8,0-2.5,0.9-6.4,1.3
						c-2.3-0.4,0.7-1.4-3.2-0.6c-2.4-0.2-0.6-0.9,0.4-1.3c-3.6,1-6.8,0-8.8,0l1.9-0.4c-1.1,0.3-2.1,0.3-3,0.4l1.1,0.7
						c-1.1-0.1-2.1,0-2.1-0.3c-1.1,0.6,1,1.1-1.3,2c-1.5-0.3-4.5,0.7-5.1-0.2c4.7,0-0.6-0.9,3.4-1.4c-0.8,0.2-1.7,0.2-2.8,0.2
						c-0.2-0.1,0.1-0.2,0.4-0.3c-4.5-0.5-2,1.2-6.6,1.6c0.6-0.6-1.1-1-1.9-0.8c1.9-0.1,1,0.8-0.7,1.4c-3-0.2-3.2,0.6-4.8,0.6
						l1.8,0.1c-0.6,0.6-2.1,0.6-4.1,0.9c-0.2-0.4,1.9-0.4,1.1-0.6c-2.2,1.1-5.3-0.6-8.4,0.3c-1.5-0.3-0.2-1-1.5-1.2
						c-3.5,1-3.9-0.5-7.7,0.4c1.1,0.7,1.3,0.5-1.3,1.4l6.2-1l-3.9,1.4c1.9-0.1,3.9-0.8,5.1-0.7c-1.9,0.7-1.7,0.5-0.7,1.1
						c-2.6-0.9-5,1-8,0.5l0-1.8c-4.5-0.5-7.8,1.5-13.6,1.5l1.9,0.2c-0.7,0.8-3.6,0.4-5.4,0.8c0.1-0.6-1.1-0.8-1.9-1.1
						c0.1,0.4-4.2,0.3-4.7,1.5l-2.6-0.6c-4.7,0-5.2,2.1-9.7,2.2c1.3-0.8-0.8-1,2.2-1.7c-1.5,0.1-2.9,0.1-2.9,0.5
						c-0.9-0.3-4.1,1.1-5.5,0.6c-0.6,0.3-0.8,1-2.5,1c-0.2-0.1,0-0.3,0-0.3c0,0.3-2.6,0.6-1.1,1.2c-4.8-1.6-12.9,1.1-17-0.2
						c-3.2,0.4-7.2,0.9-10.1,1.2c0.2-0.2,0-0.3,0.6-0.3c-4.1-0.3-2.4,1.9-7.1,1.6c-2.4-0.8,2.4-0.7,0.9-1c-0.8-1.9-5.6,0.7-8.8-0.2
						l0.8-0.2c-2.4-0.5-5.8,1.2-9.7,1.3c0,0,0.2-0.2,0-0.3c-2.6,1.2-7.6,1.9-11.4,2.5c1.1-0.9,1.7-0.5,0.9-1.3
						c-1.7,0.2,0.6,1.2-2.8,1.7c-1.1-0.4-3.6-0.5-4-1.4l3.2-0.3c-1.7-1-4.1,0.3-5.8,0.3l0.2-0.5c-4.9,0.5-4.8,1.7-10.1,2l0.6,0.3
						c-2.8,1.4-2.5-0.5-5.2,0.6l-1-1.1c-1.9,0.4-6.5,1.7-9.9,2.1c1.8-1,5.8-1.8,8.2-2.5c-1.9,0.1-6.3,0.6-7.3,1.2
						c0.8-0.2,1.7-0.5,2.4-0.4c-2.2,1.1-5.2,1.8-8.9,2.1c0.2-0.8-0.8-1-2.3-1.1c-0.3,0-1,0-1.6,0c-0.6,0-1.3,0.1-2,0.1
						c-1.4,0.1-2.9,0.1-4.3,0.2c0.1,2.9,0.1,5.6-0.4,7.2l0.2,1.4l0.2,1.2c0.1,0.8,0.2,1.6,0.3,2.5c0.1,1.7,0.2,3.3,0.2,5
						c0.1,3.4,0,7,0.4,10.8c1.6-2.9,0.2,2.2,2.1,1.6c0.2,1.8,0.3,2.5,0.2,2.6L33,56.6c-0.5,1.3-0.5-1.7-1-1.5c0.1,3.9-0.7,1.7-1,4.3
						c0.6-0.6,1.1,1.3,1,3.5l0.6-3.2c1.4,5.4-1.2,4.8,0.2,10.3l-0.7-1.7c0.6,2.8,0.8,10.4,2.5,13.1c-0.2,0.5-0.7,1.2-0.9,0
						c0.3,6.8,2.7,14.9,2.2,20.3l-0.5-0.5c0.2,1.2,1,2.1,0.7,3.8c-0.2-0.1-0.5-0.5-0.5,0.1c0.2,0.7,1,3.3,0.9,5l-0.6-1.4
						c-0.1,6.7,2,10,2.7,15.6c-1.4,0.1-1.4,5.3-1.5,7.9l-0.2-0.1c0.4,7.7,2.1,13,3.1,20.1c-1.2,4.5,0.5,15,0.2,22.2
						c0.2-1.1,1.1,0.1,1.3,1.4c-0.2,1.7,1.3,4.5,0,4.4l0-0.6c-1.1,1.4-0.5,4.8-0.4,7.4l1.7,0.3c-1.8,7.2,2.2,18.3,0.4,22.2
						c0.5,1.7,0.7,3.8,1.2,5.4l-0.9,0c0.1,2.4,0.1,4.1,0.2,6c0,0.5,0.1,0.9,0.1,1.5c0,0.5,0.1,1.1,0.1,1.6c0.2,2,0.4,4.2,0.6,6.8
						c-0.2-0.5-0.5-1.1-0.8-1.8c0.1,1.8,0.4,3.1,0.8,3.9c1.8-0.5,3.4-1.1,4.7-1.7c1.4-0.5,2.6-1,4.1-1.1c0.5,0.4,0.7,0.8,1.1,1.2
						c5.7-0.4,11.5,0.3,17.1-1.3c-0.1,0.2-0.2,0.6-1.1,0.7c2.7-0.2,10.4,0.1,9.3-1.6c0.2,1.2,5.9-0.3,8.9-1.1l-0.4,0.9
						c2.5-1.3,2.6-1.6,6.2-2.2c0.9,0.1,0.8,0.6-0.3,0.5c2.9,0.2,2.2-1,5.7-0.8l-1.2,0.6c2.9-0.1,2.7-0.4,4.3-1.2
						c1.8-0.5,5.6-0.2,6.1,0.6c0.4-0.5,1.9-1.2,3.7-1.2c0.3,0.3-0.4,0.5-0.7,0.6c5,0.2,7.2-1.5,10.7-0.9c0.1,0.3,0.3,0.4,0.6,0.5
						c-3.9,0.3-7.1,0.4-6.8,0.4c0.1,0.8,3.2,0.7,0.8,2c2.5-0.8,6.7-2.4,9.8-2.2c0.2,0.1,0.3,0.1,0.4,0.2l-0.3,0.1
						c0.7,0,1.3-0.1,1.9-0.3c1,0.1,1.6,0.1,2.6,0.1c0.4,0.6,3.6,0.1,5.2,0c-0.2-0.9,1.9-0.9-0.1-1.4c0.2,0-0.3,0.1-1.3,0.2
						c-0.2,0-0.5,0.1-0.7,0.1c0,0,0.1-0.1,0.1-0.1c-1,0.1-2.4,0.2-3.9,0.3c1.2-0.5,2.5-1,4.3-0.6c0.8-0.6,1.6-1.2,2.1-1.6
						c2.2,1.1,6.4,1.4,7.1,2.1c4.8-0.8,11.3-1.1,14.2-3c1.4-0.3,1.6,0.4,2.1,0.6c-0.8,0.2-1.7,0.3-2.1,0.5c2.7-0.6,8.1-0.8,8.7-1.9
						c3.5,0.3-1.9,1.2,2.9,0.6l-0.6,0.4c9.4,1.1,14.9-4,25.4-2.4c-0.7-0.1-1.1-0.1-1.2-0.3c11.9,0.2,24.2-2.7,35.9-2
						c3.3,0.1,3.6-0.7,5.6-1.4l0.8,0.9l3.4-1.3c4.8-1.1,8.6,1.7,14.7-0.3l-0.8-0.6c2.2,0,7-0.9,6.7-0.1c0.2-0.1,0.7-0.7,1.6-0.4
						l0.1,0.5l5.4-1.2c4.3,0-0.5,2,5.7,1.6c2.3-0.4,6.4-1.9,5.5-2.2c-0.9,0-2.4-0.1-2.5-0.6l2.1-0.4c0.3-1.5,1.8-3.1-3.4-3.7
						l-3.5,1.1l-1.2-0.6l3-0.3c-1.8-0.5-2.8,0.1-4,0.6c-0.3-0.4-0.8-0.6-1.6-0.7l-3.4,1.6c-0.5-0.5,1.5-1.2-0.9-1.4
						c-1.6,0.8,1.7,1.1-1,1.8c-1.8-0.5-1.3-1.1-3.3-0.4c-0.3-0.4,0.1-0.6,0.9-0.8c-1.8,0.6-4.7,0.5-5.6,1.4c-1.9-0.7-6,0.6-6-0.7
						c-0.5,0.4-3.1,1.3-4.7,1.5c2.9-1.9-6.2,0.4-5.5-1.4c-2.1,1.6-8,1.2-11.9,2.3c0.2-0.1,0.6-0.4,1-0.4c-2.2,0-2.9-0.4-4.4-0.5
						c-0.2,1.2-3.6,1.8-5.4,2.6c-2.8-1,1.6-1.5,0.6-2.6c0.2,1-4.7,1.3-3.7,2.1c-2.1-0.6-1.8-0.2-3-1.1c-0.2,1.5-1.9,0.4-3.6,1.4
						c-3.1-0.5-0.9-1.4-4.2-0.7C201.4,212.9,204.3,212.1,204.3,212.1z M125.8,220.5C125.8,220.5,125.8,220.5,125.8,220.5
						c0.7-0.1,1.2-0.2,1.6-0.2C127.1,220.4,126.6,220.4,125.8,220.5z M119.2,221c0.8,0,1.8-0.1,2.9-0.2c0.2,0.3,0,0.6-0.6,0.6
						C121.8,221.2,120.2,221.2,119.2,221z M133.6,226c-1,0.2-1.4,0.1-1.6-0.1c0.5-0.1,1.1-0.1,1.8-0.2c0,0,0.1-0.1,0.1-0.1
						C133.9,225.7,133.8,225.9,133.6,226z"/>
					<path className="st1" d="M135.4,224.7c0.1,0,0.2-0.1,0.4-0.1c-0.2-0.1-0.4-0.1-0.6-0.1c-0.1,0.1-0.2,0.2-0.4,0.3
						C135,224.8,135.2,224.7,135.4,224.7z"/>
					<path className="st1" d="M269.8,80l0-0.1c0,0.1,0,0.2-0.1,0.3C269.7,80.1,269.8,80.1,269.8,80z"/>
					<polygon className="st1" points="51,207.7 50.7,207.7 51,208.3 					"/>
					<path className="st1" d="M269.5,116.7c-0.1,0.1-0.1,0.2-0.2,0.5C269.4,117.1,269.4,116.9,269.5,116.7z"/>
					<path className="st1" d="M270.4,132.4l-0.1,2.2C270.4,133.7,270.4,133,270.4,132.4z"/>
					<path className="st1" d="M270.9,144.5c0.2,0.1,0.3,0.2,0.4,0.2v0L270.9,144.5z"/>
					<path className="st1" d="M210.9,11.3c-0.2,0-0.3,0-0.5,0.1C209.4,11.7,210.1,11.5,210.9,11.3z"/>
					<path className="st1" d="M262,9.3c-0.2-0.5-0.4-0.8-0.5-1.2C261.5,8.8,261.5,9.3,262,9.3z"/>
					<path className="st1" d="M147.1,17.1C147.1,17.1,147.1,17.1,147.1,17.1c-0.1,0-0.2,0-0.4,0L147.1,17.1z"/>
					<path className="st1" d="M261.4,6.3c-0.1,0.8,0,1.3,0.1,1.8C261.5,7.6,261.5,6.8,261.4,6.3z"/>
					<path className="st1" d="M274.4,197l0,0.6c0.1,0,0.1,0,0.1,0.1L274.4,197z"/>
					<path className="st1" d="M274.5,197.7l0.1,0.6C274.6,198,274.6,197.8,274.5,197.7z"/>
					<path className="st1" d="M275,199.6l-0.3-1.4C274.7,198.8,274.7,199.4,275,199.6z"/>
					<path className="st1" d="M273.6,181l-0.3-0.2C273.3,180.9,273.4,181,273.6,181z"/>
					<path className="st1" d="M273.1,176.1c0,1.2-0.5,3-0.1,4.6l0.3,0.1C272.7,180.1,273.7,177.2,273.1,176.1z"/>
					<path className="st1" d="M275.5,155.5l0,4.1c0.3-0.7,0.7-1.7,0.9,0.1C277.1,154.5,275.8,160.9,275.5,155.5z"/>
					<path className="st1" d="M275.1,142.8c0.3,2.2,0.5-0.1,0.7,0C275.4,141.5,275.2,141.2,275.1,142.8z"/>
					<path className="st1" d="M268.4,51.4l0.8,0.2C268.9,49.9,268.9,51.6,268.4,51.4z"/>
					<polygon className="st1" points="263,34.2 262.6,35.9 263.4,36.6 					"/>
					<polygon className="st1" points="267.9,23.5 268,24.2 267.5,21.4 					"/>
					<path className="st1" d="M128.7,10.8l0.6,0.9C130.4,11.4,130.6,10.3,128.7,10.8z"/>
					<path className="st1" d="M62.5,16.6c-0.8-0.4-2.6-0.6-3.8,0C60.2,16.5,61.8,16.8,62.5,16.6z"/>
					<polygon className="st1" points="41.9,190.7 41.5,189.4 41.9,191.9 					"/>
				</g>
			</g>
		</g>
	</g>
</g>
<g>
	
		<rect x="56.5" y="16.6" transform="matrix(2.549936e-02 -0.9997 0.9997 2.549936e-02 36.005 278.1192)" className="st2" width="208.3" height="208"/>
	<g>
		<g>
			<g>
				<g>
					<path className="st1" d="M259.5,227.3c0.3,0.4,1,0.2,0.9-1l-1.2-0.9L259.5,227.3z"/>
					<path className="st1" d="M262,219.2c-0.6-1.4-1.6-3.1-2.7-2.2c1.1,1.4,0.6,1.8,2,3.3c0.1,1.2-0.5,2.1-0.9,1.9
						c0.3,0.4-0.3,1.9,0.4,2.5c1-1.6,1.1-3.5,0.4-5.6C261.4,218.7,261.7,219.1,262,219.2z"/>
					<path className="st1" d="M266.9,101.2l-0.2,0.8C266.8,101.8,266.9,101.5,266.9,101.2z"/>
					<path className="st1" d="M269.4,28.1c0,0.6,0.1,0.8,0.2,0.8C269.6,28.4,269.5,28,269.4,28.1z"/>
					<path className="st1" d="M265.3,15.4c0.4,0,0.8,0.1,1.1,0.1C266.1,15.3,265.6,15.3,265.3,15.4z"/>
					<path className="st1" d="M266.9,101.2l0.4-1.9C266.9,99.2,267,100.3,266.9,101.2z"/>
					<path className="st1" d="M259.4,202.9c0,0.4,0.1,0.8,0.3,1.1c0-0.3-0.1-0.7-0.1-1C259.5,202.9,259.5,202.9,259.4,202.9z"/>
					<path className="st1" d="M267.1,133.5l0,0.6c0.1,0.2,0.3,0.4,0.5,0.5L267.1,133.5z"/>
					<path className="st1" d="M266.6,158.2c0.1-0.6-1-0.8-1.4-1c0.4,0.3,0.6,0.8,0.7,1.2C266.1,158.5,266.3,158.4,266.6,158.2z"/>
					<path className="st1" d="M263.8,197.4l0.1,0.7C263.9,197.9,263.8,197.6,263.8,197.4z"/>
					<path className="st1" d="M267.7,115.8c0.2,0,0.3-0.1,0.4-0.2C268,115.6,267.9,115.7,267.7,115.8z"/>
					<path className="st1" d="M233.4,221.7c0,0.1,0,0.1,0,0.2C233.5,221.8,233.6,221.7,233.4,221.7z"/>
					<path className="st1" d="M261.9,227.6l-0.4,0.1c0,0.2-0.1,0.4-0.1,0.6L261.9,227.6z"/>
					<path className="st1" d="M241,13.4c0,0,0.1,0,0.1,0C241.7,13.3,241.4,13.3,241,13.4z"/>
					<path className="st1" d="M54.3,42c1-2.3,1.1,3.9,2.2,0.3C56.1,42.7,55,39,54.3,42z"/>
					<path className="st1" d="M259.6,202.2c0-0.3,0-0.7,0-1C259.5,201.7,259.5,202,259.6,202.2z"/>
					<path className="st1" d="M56.5,42.3L56.5,42.3l0.1-0.4C56.6,42.1,56.6,42.2,56.5,42.3z"/>
					<path className="st1" d="M188.3,12.7c0.1,0.2,0.3,0.3,0.5,0.5C188.8,13,188.7,12.9,188.3,12.7z"/>
					<path className="st1" d="M227.5,15.2l-1-0.2C226.9,15.1,227.2,15.1,227.5,15.2z"/>
					<path className="st1" d="M167.9,13.6c-0.5-0.1-0.7-0.2-1.4-0.1c0.1,0.1,0.1,0.1,0.2,0.1C167,13.5,167.3,13.4,167.9,13.6z"/>
					<path className="st1" d="M146.7,13.1c0.1,0.1,0.3,0.1,0.4,0.2c0.2,0,0.5,0,0.7,0L146.7,13.1z"/>
					<path className="st1" d="M169,220.6c0.5,0.3,0.7,0.6,0.9,1C169.6,220.8,172.7,220.6,169,220.6z"/>
					<path className="st1" d="M260,202.9c-0.3-0.1-0.4-0.3-0.4-0.6c0,0.2,0,0.5,0,0.7C259.8,203,259.9,203,260,202.9z"/>
					<path className="st1" d="M166.9,21.8l-3.4-0.2C164.4,21.7,165.7,21.8,166.9,21.8z"/>
					<path className="st1" d="M59.2,184.9l0.1,0.8C59.4,185.4,59.4,185.1,59.2,184.9z"/>
					<path className="st1" d="M153.5,21.5c-0.6-0.4-1.2-0.6-1.9-0.8c-0.1,0.1-0.3,0.1-0.4,0.3L153.5,21.5z"/>
					<path className="st1" d="M169.9,221.5C169.9,221.5,169.9,221.5,169.9,221.5C169.9,221.5,169.9,221.5,169.9,221.5z"/>
					<path className="st1" d="M192.2,219.6c-3.2-0.1-1.5,1.3-2.2,2.1c-3.8,0.3-1.8-1.1-3-1.8c-2.4,0.3-4.3,1.5-6.1,1.4
						c-0.1-0.2-0.5-0.3-0.1-0.6c-2.6,1-7.5-0.1-10.5,1.2c-0.2-0.1-0.3-0.2-0.4-0.4c0.5,0.7,0.5,1.4,0.4,1.9c-1.4,0-2.7,0.8-3.2-0.1
						c0.9,0.1,1-0.3,1.4-0.6l-1.5,0.4c-1.3-1.3,2.1-0.4,2.1-1.4c-2.9,0.3-6.4,1.3-8.6,0.9c-0.4-1.3,5.3-0.3,2.3-1.5l3.5,0.6
						c-2.6-2.1,2.1,0.2-0.3-2c-4.6-0.5-5.1,0.5-9.7,0c-1.1,0.7,0.3,1-0.7,1.7c-6.5,1.1-5-3.3-9.9-1.7c-1.3,0.8-1.8,2.4-5.2,1.5
						l1.2-1.4c-4.4-0.2-2.6,2-7.2,0.9c0.8-0.5,3.5-0.4,2.8-0.6c-3-1.2-2.1,0.8-4.5,0.7l-0.4-1.3c-4.7,0.1-10,0.9-15.2,0.9
						c0.3-0.4,1.2-0.7,0-1.2c-6.6,0.5-14.1-0.5-20.4-1.4l-2.5,1c-0.6,0-1-0.5-0.4-0.7c-2.5-0.5-0.2,0.7-1.3,1.1
						c-1.4,0-1.8-0.7-0.9-1c-4.4,0.8-12.5,1.7-17.1,0.4l0.9-0.3c-3.6-0.5-4.1,2.1-7.4,1l0.6-0.2c-2.4-0.2-4.8-0.3-7.3-0.3
						c-0.8,0-1.5,0-2.3,0c-0.5,0-1.1,0-1.6-0.1c0.1-0.7,0.2-1.4,0.3-2c0-0.1,0.1-0.3,0.1-0.4l0.1-0.2l0-0.1l0,0l0-0.1
						c0.1-0.6,0.3-1.2,0.5-1.8c-1.5-1.2,0.9-7.7-1.3-8.3c1.2-4.4,1.6-3.1,2.5-9.4c0.1-1.7-1.3-2.5-1.5-4.6l1.1,0l-1.1-2.8l1.4-1.5
						l-0.2-1.9c-0.1,0.8-0.6,1.6-0.9,1.5c-0.4-3.1,1-7.4,1.6-7.4l-0.8-7.2c0.5,0.2,0.6,1.4,0.8,2.3c-1.1-3.9,1.2-0.7,0.2-4.2
						c-0.3,0.5-0.7-0.3-0.9-0.4c0.7-1.7,0.8-5.7,0.6-8.7l0.8,0.6c0.3-5.3-0.1-11.2,0.1-17.2c-0.4,2.1-1.8,1.6-1.9-0.1l1.2-0.7
						c-0.7-1.1-0.5,1.8-1.4-0.5c0.2-2.2,1.4-1.5,1.8-0.2l-0.3-2.7c0.4-0.1,0.5,0.5,1,0.7c-0.7-1.1,1.3-4.6,0.1-6.3l0.4-0.1
						c0.2-6-0.2-8.7-0.1-13.6c-1-0.1-0.8-2-1.6-3.5c0.4-3.6,1.3-7.5,1.4-11.8c-0.4-3-0.9-0.9-1.5-2.3c1-0.2,1-4.5,1.6-2.2
						c0-5.2,0-6.6-0.6-13.2c-0.4,0.7-0.6,1.5-0.9,1.1c-0.1-1.2,0.5-2.7,0.9-2.5l0.1,0.3c-1.2-7.4,3.2-16.9,1.4-22.8l0.1,0.3
						l-0.9-6.1c0.2-2.8,0.7,1.7,1.3-0.4c-1.4-6.6,0.5-10.3-0.4-15.7c2.9-4.1,0.2-14.8,2.1-20.4l-0.7,0.3c-0.3-0.7-0.2-1.2,0-1.6
						c0.1-0.2,0.2-0.4,0.3-0.6c0.1-0.1,0.1-0.2,0.2-0.3c0-0.1,0-0.1,0.1-0.2c0,0,0,0,0,0c-0.1,0-0.2-0.1-0.3,0.1
						c-0.1,0.1-0.2,0.3-0.2,0.4c-0.1,0.3-0.2,0.4-0.4-0.1l0-0.4c0-0.1,0-0.1,0-0.1l0,0l0-0.2c0-0.1,0-0.3-0.1-0.5c0-0.3,0-0.7,0-1
						c0.4,0,0.8,0,1.2,0.1l0.6,0.1l1.9,0.1c2.6,0.2,5.3,0.4,7.9,0.7c5.3,0.5,10.6,1.1,15.8,1.5c4.6,0.3,2.7-3.4,8.5-1.6l-1.7,1.2
						c9.4-1.2,19.1,0.5,28.2-0.5c-0.6,0.3-0.6,0.6-1.5,0.6c1.9,0.9,7.1,0.2,7.2-0.5c1.4,0.1,0.3,0.7,1.2,1.1c1.9,0.6,4.9-1,5.9-0.1
						c0.2,0.1-0.6,0.3-0.9,0.3c1.3-0.4,5.9,0.3,4.7-0.8c3.4,0.6,6.6-0.3,9.3,0.4c1.8-1.1,5.9,0.7,6.5-0.9c-0.3,1.7,6,1.5,8.2,0.8
						c-0.7,0.5,1.9,0.6,1,1.2c2.5,0,4.7-0.2,4.3-1.1c4.5,2.1,9.2-1.4,11.7,1.3c7.4-0.7,14.2-1.1,20.8-1.4c-0.3,1.7-7.3,0-7.1,1.7
						c6.3-0.5,9.9-1.9,16.1-1.3c1.6,0.3-0.9,0.7-1.5,1c6.3-0.5,12.1,0.5,17.7-0.3c0,0.2-0.6,0.3-1.2,0.4c1.1,0,2.6,0.3,2.4-0.5
						l-1.1,0.2c-1.7-1.1,4.4-2.2,4.6-2.8c-1.9,2.1,5.5,0.7,2.5,3.4c0.7-0.1,1.6-0.5,1.5-1c1.1,0.2,1.4,0.5,0.3,1
						c3.9-0.3,2.6-1.2,6.1-1c0,0.4-0.7,0.5-1.1,0.9c1.8-0.7,3.6-1.3,6.6-1c-0.2,0.2,0.2,0.5-0.7,0.5c2.6,0,4.8-0.4,7.1-0.7
						c1.1-0.2,2.3-0.3,3.5-0.3c0.3,0,0.6,0,0.9,0l0.5,0l0.3,0c0.5,0,0.9,0.1,1.3,0.2c-1.7,1.6,0.9,0.5-0.1,1.9l0.6-0.1
						c0.1,0.1,0.2,0.3,0.2,0.5c0.2-0.3,0.5-0.7,0.7-1.1c0,0.7,0.2,1.2,0.4,1.9c0,0.2,0.1,0.4,0.1,0.5l0,0.3l0,0.1l0,0.2
						c0,0.6,0,1.2-0.1,1.7l-0.5-2l0.1,5l0.6-2.8c0.6,2.7,1.8-0.2,1.3,3.3c-0.1-0.7-0.1,2.7-0.9,4v0c0.4,1.3,0.8,2.7,0.4,4.7
						c-0.5,0.5-1.5-0.5-1.8-0.1c1.1,1.3,0.2,6.3,1.4,8c-0.3-0.6-1-0.6-1.2-0.4l0.9,1.1c-0.3,1.2-0.5,1.4-1.1,1.2
						c-0.3,3.7,1.8-1.1,0.9,3.3c-0.1-0.3-0.2-0.2-0.3-0.9c-0.5,4.4,0.4,8.6-0.2,12.7c-1.4,1.2-0.2-3.6-1.5-2.2
						c0.1,5.9,1.4,12.2,0.9,17.9l0.2-1.1c2,0.8-1.1,4.2-0.2,7.1c-0.1-0.7-1.1-0.9-0.9-0.8c-0.4,3.9,0.3,8,0.8,13.9l-0.5-0.7
						c-0.5,2.3-0.4,6-0.7,8.5c0.5,0.8,0.4,2.2,1.1,1.3c-3.1,7.6,1.2,14.6-1.4,21.4c0-0.8-0.4-1.9-0.4-1.3l0.3,5.8
						c0.9-0.4,0.5-0.7,1.2-1.9c0.5,0.7,0.8,2.4,0.8,3.8c-0.5-2.6-1.4,0-1.9,1.1c0.3-0.2,0.5,0.2,0.8,0.1c-1.6,3,1.7,0.6,0.6,4.6
						l-0.4-0.2c0.2,1.6,0.8,3,0.6,4.6c-1,0.7-0.4-1.6-1.2-1.8c0,2.3,1.8,4.7,0.7,6.8c-0.2-1-0.2-2.4-0.5-3.4
						c-1.2,2.3-0.9,2.6-1.2,4.2l0-0.2l-0.6,3.9l0.3-1c2.5,3,0.3,6,1.9,9.9c-1.5-3.9-0.9-0.7-2-1c-0.3,1-0.7,2.5-1,2.1
						c0.9,1.9-0.8,3.1,0.5,5.8c-0.4,0.1-0.1,2-1,1.6c0.2,2.4,0.6-0.6,1.1-0.3c1.1,3.8-1.7,8.7-0.2,14.1c0.6,4.6,1.8,5.5,2.3,9.8
						c-0.6,1.4-1.3-1.2-1.3-1.2c-0.6,2.3-0.5,4.1-0.2,6.3c-0.3-0.4-0.6,0-1,0.7c0,1.8,1.3,1.2,0.7,3.5c-0.4-0.4-1-0.9-1.4-1.8
						c0.3,2.1,0.9,4.2,1.2,6.3c-0.6,0.6-0.9-1.3-1.3-2.1c0.2,2.4,0.4,6.3,1.4,7.1l0.4-1.6c0,0.9-0.9,0.4-1-0.2
						c-0.7-2.1,0.4-3,0.8-3.1l0.2,1.5c2.2-1.5-0.2-6.2,0-9.3l1.5,1.3l-1.2-3.2c0.4-0.7,1.3-1.1,1.5,0.4c0.8-2.2-0.5-2,0.4-3.9
						c0.1-0.2,0.2-0.1,0.3,0.1l-0.4-2.2c0.3,0.4,1.1-0.3,0.8,1c1-3.9-1-6.3,0.2-7.7l0.1,0.3c-0.4-5.4-1.1-0.6-2.4-4.6l2.9-2.6
						l-1.1-0.6c0.1-0.6,0.2-1.6,0.6-1.4c-0.7-2.1-0.5,0.3-1.2-0.9c1.1-2.6-0.3-7.4,1.5-8c-0.8-1-0.7,2.5-1.3-0.3
						c2-0.8-0.2-3.3,0.7-5.7c1,0.8,0.4,3.1,1.4,0.7c-1.7-1.5,0.5-4.8,0.2-6.8c-1.4-0.1-0.5-4.5-0.8-8c0.5,0.2,0.9-6.5,1.5-9.7
						l0.2,0.1c-1.4-0.7-1-4-1.2-6.4c0.8,0.1,1.1,0.6,1.5,1.9l0-2.3c-0.4-0.6-0.6-1.3-0.8-2.7l1,0.6c0-3-1-6.1-0.3-10
						c-0.9-0.2-2.7,3-3.2-1.1c0.5-0.1,1.4-0.3,1.6,0.8c-0.1-0.3-0.4-1.3-0.2-2l0.8,1.7c0.4-1.8-0.7-0.9-0.6-2.4
						c0.7,0.1,0.5-1,1.1-0.8c0.1,0.4-0.3,1.2-0.1,1.8c0.2-1.6,0.7-3.5,1.2-4.1c-0.4,0.1-1,0-1-1.2c0-3,0.9-1,1.3-2.8
						c-0.5-0.8,0.1-2.7-1-2.7c0-0.9,0.5-1,0.9-1.4c-0.4-1.6,0-7.3-1.2-5.6l-0.1,0.4c0-0.1,0-0.2,0-0.3c0,0,0,0,0,0v0
						c-1-5.2,0.9-10.7,0.5-15.8l0.4,0c-0.3-3.1-0.1-6.8-0.8-9c0-0.9,0.7-2.1,1.1-1.7c-0.2-2.3-0.6-2.6,0.1-5.9
						c0.6,2.3,0.6-0.8,0.4,2.4c0.4-3,1-3.7,0.1-6.9c0.9,1.1,1.2-2.2,1-3.7l-0.7,2.1c-0.1-1.6,0-3,0.1-4.5l1.2,0.8
						c1.7-6.1-2.3-11.2,0.4-15.9c-0.8-1.7-0.7,3.3-1.7,1.8c0.2-2.8,2.1-5.8,2.1-6.7c0.8-3.9-1.7-3.7-1.1-7.8c-0.5,0.5-1.6,1-2-2.1
						c0.2-2.8,1.9-3.5,2.2-1.6c0,0.7-0.1,1-0.3,1c0.1,0.9,0.3,2.1,0.8,1l-0.4-0.4c0.5-1.4,0.5-5.3,1.2-4.4c-0.2-1.8-0.3-2.1-0.5-1.7
						c-0.1,0.2-0.2,0.6-0.2,1.1c0,0.2-0.1,0.5-0.1,0.8c0,0.2-0.1,0.4-0.1,0.6c0.1-0.5,0.2-1.6,0.3-2.5c0.1-0.9,0.1-1.8,0.1-2.6
						c0-1.7,0.1-3.2,0.1-5c-1.3,0-2.8-0.1-4.4-0.3c0.8,0.3,1.3,0.8,0.4,0.8c-4-0.4-5-0.2-5.6,0.1c-0.4,0.3-0.6,0.7-2.4,0.7
						c-2.1-0.7,0.8-1.6-3-1.1c-2.3-0.5-0.5-1.2,0.5-1.5c-3.4,0.8-6.4-0.7-8.3-0.9l1.8-0.3c-1.1,0.2-2,0.1-2.9,0.1l1,0.9
						c-1.1-0.2-1.9-0.2-1.9-0.6c-1.1,0.6,0.8,1.5-1.4,2.2c-1.4-0.5-4.3,0.4-4.8-0.8c4.4,0.5-0.5-1.2,3.3-1.3
						c-0.7,0.1-1.6,0.1-2.7-0.1c-0.2-0.1,0.2-0.2,0.4-0.3c-4.2-1.1-2,1.3-6.4,1.1c0.6-0.6-1-1.3-1.7-1.1c1.8,0.1,0.8,1.1-0.8,1.6
						c-2.8-0.6-3.1,0.3-4.6,0.2l1.7,0.3c-0.6,0.6-2,0.5-4,0.7c-0.2-0.5,1.8-0.3,1.1-0.6c-2.2,1.1-4.9-1.3-8-0.6
						c-1.4-0.5-0.1-1.2-1.3-1.6c-3.4,0.8-3.7-1-7.3-0.4c1,0.9,1.2,0.7-1.4,1.5l5.9-0.5l-3.8,1.2c1.8,0.1,3.8-0.5,4.8-0.3
						c-1.8,0.7-1.6,0.5-0.8,1.2c-2.4-1.4-4.9,0.6-7.6-0.3l0.1-2.2c-4.2-1.1-7.6,0.9-13,0.2l1.8,0.4c-0.8,0.9-3.4,0-5.2,0.3
						c0.2-0.7-0.9-1-1.7-1.5c0.1,0.6-4-0.1-4.6,1.3l-2.4-1c-4.4-0.5-5.1,2-9.4,1.6c1.3-0.8-0.6-1.3,2.2-1.8c-1.4,0-2.7-0.2-2.7,0.3
						c-0.8-0.5-4,0.9-5.3,0.2c-0.6,0.3-0.8,1.1-2.4,1c-0.2-0.1,0-0.4,0-0.4c0,0.4-2.5,0.4-1.1,1.3c-4.3-2.4-12.3-0.1-16.1-2.2
						c-3.1,0.2-6.9,0.3-9.7,0.3c0.2-0.2,0-0.4,0.6-0.3c-3.9-0.8-2.4,2-6.9,1.2c-2.2-1.2,2.4-0.6,1-1.1c-0.6-2.4-5.4,0.2-8.3-1.3
						l0.7-0.1c-2.3-0.9-5.6,0.8-9.3,0.5c0,0,0.2-0.2,0-0.4c-2.6,1.2-7.4,1.4-11,1.7c1.1-0.9,1.6-0.5,1-1.4c-1.6,0.1,0.4,1.6-2.8,1.7
						c-1-0.5-3.3-1.1-3.6-2.1l3,0c-1.5-1.4-3.9-0.1-5.5-0.3l0.2-0.6c-4.6,0.1-4.7,1.5-9.7,1.3l0.5,0.4c-2.8,1.4-2.3-0.9-5,0.1
						l-0.8-1.5c-1.8,0.3-6.3,1.3-9.6,1.4c1.8-1,5.6-1.5,8-2.1c-1.8-0.1-6.1-0.1-7,0.6c0.7-0.1,1.6-0.5,2.3-0.2
						c-2.2,1.1-5.1,1.6-8.7,1.5c0.1-0.5-0.1-0.8-0.4-1.1c-0.2-0.1-0.4-0.2-0.7-0.3c-0.3-0.1-0.8-0.2-1.3-0.2
						c-2.1-0.2-4.9-0.3-7.7-0.5c-0.2,2.7-0.5,5.2-1.3,6.5l0.2,3.3c0,0.8,0,1.6,0,2.4c0,1.6-0.2,3.2-0.3,4.8
						c-0.3,3.2-0.7,6.6-0.7,10.3c2.3-2.5,0,2.1,2.3,1.8c0.1,1.7,0,2.4-0.1,2.5l-1.5,5.1c-0.7,1.2-0.5-1.6-1-1.5
						c-0.3,3.7-1,1.5-1.7,4c0.8-0.5,1.1,1.3,0.8,3.5l1.1-3c1.1,5.2-2,4.5-1,9.7l-0.7-1.7c0.3,2.7-0.3,9.9,1.5,12.6
						c-0.3,0.5-0.9,1.1-1-0.1c-0.4,6.4,1.6,14.4,0.3,19.4l-0.5-0.5c0.1,1.2,1,2.1,0.4,3.6c-0.2-0.1-0.5-0.5-0.6,0.1
						c0.2,0.6,0.9,3.2,0.5,4.8L52.7,97c-0.9,6.3,1.3,9.7,1.5,15c-1.6-0.1-2.3,4.9-2.6,7.3l-0.2-0.1c-0.4,7.3,1,12.5,1.5,19.3
						c-1.9,4.2-1.1,14.2-2.3,21c0.3-1,1.3,0.2,1.4,1.4c-0.4,1.6,1,4.4-0.5,4.1l0-0.6c-1.5,1.2-1.2,4.4-1.3,7l2,0.5
						c-3,6.6,0.6,17.5-2,21.1c0.5,1.6,0.4,3.6,0.8,5.2l-1-0.1c-0.4,4.4-0.6,6.7-0.5,12.2l-0.7-1.1c-0.2,3.1,2.9,4,2.9,6.9
						c-0.5,0.3-1.1,0.8-1.6,1.4c-0.1,2.9-0.3,5.9-0.5,9c3,0.2,6.2,0.5,9.5,0.6c1,0,1.2,0,1.7,0c0.5,0,0.9,0,1.4-0.1
						c0.9-0.1,1.8-0.2,2.8-0.4c-0.1,0.2-0.3,0.7-1.1,0.7c2.6,0.1,9.8,1.3,9-0.9c0,1.4,5.6,0.3,8.5-0.3l-0.5,1
						c2.5-1.3,2.6-1.6,6.1-1.9c0.8,0.2,0.7,0.9-0.4,0.6c2.7,0.6,2.2-0.9,5.4-0.3l-1.2,0.6c2.8,0.1,2.6-0.2,4.2-0.9
						c1.8-0.4,5.3,0.4,5.7,1.3c0.4-0.6,1.9-1.3,3.6-1c0.2,0.4-0.4,0.6-0.7,0.7c4.7,0.8,7-1,10.2,0.1c0.1,0.3,0.3,0.5,0.5,0.6
						c-3.7-0.1-6.7-0.2-6.4-0.3c0,0.9,3,1.2,0.6,2.4c2.4-0.7,6.6-2.1,9.5-1.6c0.1,0.1,0.3,0.2,0.4,0.3l-0.3,0.1
						c0.7,0.1,1.3,0,1.9-0.1c0.9,0.2,1.5,0.3,2.4,0.4c0.3,0.8,3.4,0.5,4.9,0.6c-0.1-1.1,1.9-0.8,0-1.7c0.2,0.1-0.3,0.1-1.3,0.1
						c-0.2,0-0.5,0-0.6,0.1c0,0,0.1-0.1,0.1-0.1c-1,0-2.3,0-3.7,0c1.2-0.5,2.4-0.9,4.1-0.3c0.8-0.6,1.6-1.3,2.1-1.6
						c2,1.5,5.9,2.4,6.5,3.3c4.6-0.5,10.8-0.1,13.7-2c1.3-0.2,1.5,0.6,2,0.9c-0.8,0.2-1.6,0.1-2.1,0.4c2.6-0.4,7.7,0,8.4-1.4
						c3.3,0.7-1.9,1.2,2.6,1.1l-0.6,0.4c8.8,2.4,14.5-3.1,24.3-0.1c-0.7-0.2-1-0.3-1.1-0.5c11.2,1.5,23.1-0.6,34.1,1.7
						c3.1,0.5,3.5-0.4,5.4-1l0.6,1.1l3.3-1.2c4.7-0.8,8,3,13.9,1.3l-0.7-0.8c2.1,0.2,6.7-0.3,6.3,0.6c0.2-0.1,0.7-0.8,1.5-0.4
						l0.1,0.6l5.2-0.9c4,0.5-0.7,2.3,5.2,2.6c2.2-0.2,6.3-1.6,5.5-2c-0.9-0.1-2.2-0.4-2.3-1l2-0.2c0.4-1.7,2-3.4-2.9-4.8l-3.4,1
						l-1.1-0.9l2.9,0c-1.6-0.8-2.7-0.2-3.8,0.3c-0.3-0.4-0.7-0.8-1.4-1l-3.4,1.6c-0.4-0.7,1.5-1.3-0.7-1.7c-1.6,0.7,1.5,1.6-1.1,2
						c-1.6-0.8-1.1-1.4-3.1-0.8c-0.3-0.4,0.2-0.7,0.9-0.9c-1.7,0.5-4.5,0.1-5.4,1c-1.7-1-5.8,0.1-5.6-1.5c-0.6,0.4-3,1.2-4.6,1.2
						c2.9-1.9-5.9-0.3-5.1-2.3c-2.2,1.7-7.7,0.6-11.5,1.5c0.2-0.1,0.6-0.4,1-0.3c-2.1-0.2-2.7-0.8-4.1-1.1c-0.3,1.4-3.6,1.7-5.4,2.6
						c-2.6-1.5,1.6-1.7,0.8-3c0.1,1.2-4.5,1.1-3.7,2.1c-2-0.9-1.7-0.5-2.7-1.7c-0.4,1.8-1.9,0.3-3.5,1.3c-2.9-1-0.7-1.7-3.9-1.2
						C189.4,220.2,192.2,219.6,192.2,219.6z M117.2,220.9C117.2,220.9,117.2,220.8,117.2,220.9c0.7,0,1.2,0,1.6,0
						C118.4,220.8,117.9,220.8,117.2,220.9z M110.9,220.7c0.8,0.1,1.7,0.1,2.7,0.1c0.2,0.4,0,0.7-0.7,0.7
						C113.3,221.3,111.8,221,110.9,220.7z M124,228.3c-1,0.1-1.3-0.1-1.5-0.3c0.5,0,1,0,1.8-0.1c0,0,0.1-0.1,0.1-0.1
						C124.3,228,124.2,228.1,124,228.3z"/>
					<path className="st1" d="M125.8,227c0.1,0,0.2-0.1,0.4-0.1c-0.2-0.1-0.4-0.2-0.6-0.2c-0.1,0.1-0.2,0.2-0.4,0.3
						C125.5,227,125.7,227,125.8,227z"/>
					<path className="st1" d="M266.7,102.1l0-0.1c0,0.1-0.1,0.2-0.2,0.3C266.6,102.2,266.7,102.2,266.7,102.1z"/>
					<polygon className="st1" points="59.6,191.9 59.3,191.9 59.5,192.5 					"/>
					<path className="st1" d="M262.2,136.7c-0.1,0.1-0.2,0.2-0.3,0.4C262,137.2,262.1,137,262.2,136.7z"/>
					<path className="st1" d="M261.6,151.7l-0.4,2.1C261.4,152.9,261.5,152.2,261.6,151.7z"/>
					<path className="st1" d="M260.8,163.2c0.2,0.1,0.3,0.2,0.4,0.2l0,0L260.8,163.2z"/>
					<path className="st1" d="M228.1,22.2c-0.1,0-0.3,0-0.4,0C226.6,22.4,227.3,22.3,228.1,22.2z"/>
					<path className="st1" d="M265.3,34.6c-0.2-0.6-0.4-1.2-0.5-1.8C264.7,33.8,264.7,34.5,265.3,34.6z"/>
					<path className="st1" d="M167.2,21.9C167.2,21.9,167.2,21.9,167.2,21.9c-0.1,0-0.2,0-0.4,0L167.2,21.9z"/>
					<path className="st1" d="M264.9,30.3c-0.2,1-0.2,1.8-0.1,2.5C264.9,32,265.1,31.1,264.9,30.3z"/>
					<path className="st1" d="M259.1,213.1l-0.1,0.6c0.1,0,0.1,0,0.2,0.1L259.1,213.1z"/>
					<path className="st1" d="M259.2,213.8l0.1,0.6C259.3,214.1,259.3,213.8,259.2,213.8z"/>
					<path className="st1" d="M259.5,215.7l-0.2-1.3C259.3,214.8,259.2,215.4,259.5,215.7z"/>
					<path className="st1" d="M259.9,197.9l-0.4-0.2C259.6,197.8,259.8,197.9,259.9,197.9z"/>
					<path className="st1" d="M259.9,193.2c-0.1,1.1-0.9,2.8-0.7,4.3l0.3,0.1C259,197,260.6,194.3,259.9,193.2z"/>
					<path className="st1" d="M265.1,174l-0.4,3.9c0.4-0.7,1-1.6,1,0.2C267.1,173.3,264.8,179.1,265.1,174z"/>
					<path className="st1" d="M266,162c0.1,2.1,0.6,0,0.8,0.1C266.5,160.8,266.4,160.4,266,162z"/>
					<path className="st1" d="M268.2,75l0.9,0.2C269.1,73.6,268.8,75.2,268.2,75z"/>
					<polygon className="st1" points="263.7,58.2 263.1,59.8 264,60.5 					"/>
					<polygon className="st1" points="270.8,48.6 270.9,49.3 270.6,46.6 					"/>
					<path className="st1" d="M150.5,12.3l0.5,1.2C152.1,13.3,152.3,12,150.5,12.3z"/>
					<path className="st1" d="M87.4,11.9c-0.7-0.6-2.4-1-3.6-0.5C85.3,11.5,86.7,12,87.4,11.9z"/>
					<polygon className="st1" points="50.6,175 50.3,173.7 50.5,176.1 					"/>
				</g>
			</g>
		</g>
	</g>
</g>
<text transform="matrix(0.9038 0 0 1 127.0449 143.4365)" className="st3 st4 st5">A1</text>
</svg>
