<?xml version="1.0" encoding="utf-8"?>
<!-- Generator: Adobe Illustrator 24.3.0, SVG Export Plug-In . SVG Version: 6.00 Build 0)  -->
<svg version="1.1" id="Layer_1" xmlns="http://www.w3.org/2000/svg" xmlns:xlink="http://www.w3.org/1999/xlink" x="0px" y="0px"
	 viewBox="0 0 320 240" style="enable-background:new 0 0 320 240;" xml:space="preserve">
<style type="text/css">
	.st0{fill:#F72585;}
	.st1{fill:#FFFFFF;}
	.st2{fill:#2A9D8F;}
	.st3{fill:#1D3557;}
	.st4{font-family:'ArialRoundedMTBold';}
	.st5{font-size:57.2411px;}
</style>
<g>
	
		<rect x="49.4" y="3.3" transform="matrix(5.489955e-02 -0.9985 0.9985 5.489955e-02 28.7645 267.3226)" className="st0" width="212.3" height="230.3"/>
	<g>
		<g>
			<g>
				<g>
					<path className="st1" d="M262.6,230.7c0.2,0.5,0.9,0.2,0.8-1l-1-1L262.6,230.7z"/>
					<path className="st1" d="M265,222.1c-0.4-1.5-1.2-3.3-2.2-2.4c0.9,1.6,0.5,1.9,1.6,3.6c0,1.3-0.5,2.2-0.8,2c0.2,0.5-0.3,2,0.3,2.7
						c0.9-1.6,1-3.7,0.5-6C264.6,221.6,264.9,222,265,222.1z"/>
					<path className="st1" d="M273.5,96.9l-0.2,0.8C273.5,97.5,273.5,97.2,273.5,96.9z"/>
					<path className="st1" d="M278.5,17.4c0,0.8,0.1,1.1,0.2,1.1C278.6,17.7,278.6,17.1,278.5,17.4z"/>
					<path className="st1" d="M263.7,14.9c0.3,0,0.5,0.1,0.8,0.1C264.1,14.9,263.9,14.9,263.7,14.9z"/>
					<path className="st1" d="M273.5,96.9l0.4-2.1C273.6,94.7,273.7,95.9,273.5,96.9z"/>
					<path className="st1" d="M263.5,204.7c0,0.4,0.1,0.8,0.2,1.1c0-0.4,0-0.7,0-1.1C263.6,204.8,263.5,204.8,263.5,204.7z"/>
					<path className="st1" d="M272.5,131.2l0,0.6c0.1,0.2,0.2,0.4,0.4,0.6L272.5,131.2z"/>
					<path className="st1" d="M271.2,157.5c0.1-0.6-0.8-0.9-1.2-1.1c0.4,0.4,0.5,0.8,0.5,1.3C270.8,157.7,271,157.6,271.2,157.5z"/>
					<path className="st1" d="M267.4,199l0.1,0.8C267.4,199.6,267.4,199.3,267.4,199z"/>
					<path className="st1" d="M273.7,112.4c0.1,0,0.2-0.1,0.3-0.2C274,112.2,273.8,112.2,273.7,112.4z"/>
					<path className="st1" d="M234.5,225c0,0.1,0,0.1,0,0.2C234.6,225,234.7,225,234.5,225z"/>
					<path className="st1" d="M264.7,231l-0.4,0c0,0.2-0.1,0.3-0.1,0.5L264.7,231z"/>
					<path className="st1" d="M239.5,12.4c0.1,0,0.1,0,0.1,0C240.2,12.4,239.9,12.4,239.5,12.4z"/>
					<path className="st1" d="M41.2,36c0.9-2.5,0.8,4.2,1.9,0.4C42.7,36.7,41.8,32.8,41.2,36z"/>
					<path className="st1" d="M263.6,204.1c0-0.4,0-0.7,0-1.1C263.6,203.5,263.6,203.8,263.6,204.1z"/>
					<path className="st1" d="M43,36.4L43,36.4l0.1-0.4C43.1,36.1,43.1,36.2,43,36.4z"/>
					<path className="st1" d="M183.5,9.9c0.1,0.2,0.3,0.3,0.6,0.4C184.1,10.2,183.9,10.1,183.5,9.9z"/>
					<path className="st1" d="M225.1,13.4l-1-0.2C224.5,13.4,224.8,13.4,225.1,13.4z"/>
					<path className="st1" d="M161.8,10c-0.6-0.1-0.7-0.2-1.5-0.1c0.1,0.1,0.1,0.1,0.2,0.1C160.8,9.8,161.2,9.8,161.8,10z"/>
					<path className="st1" d="M139.3,8.7c0.1,0.1,0.3,0.1,0.4,0.2c0.2,0,0.5,0,0.7,0L139.3,8.7z"/>
					<path className="st1" d="M166.1,221.6c0.5,0.3,0.8,0.6,1,0.9C166.8,221.8,170.1,221.8,166.1,221.6z"/>
					<path className="st1" d="M264,204.7c-0.2-0.1-0.3-0.3-0.3-0.7c0,0.3,0,0.5,0,0.8C263.8,204.9,263.9,204.9,264,204.7z"/>
					<path className="st1" d="M160.5,16.9l-3.6-0.3C158,16.7,159.2,16.8,160.5,16.9z"/>
					<path className="st1" d="M40.1,187.9l0.1,0.8C40.2,188.4,40.2,188.1,40.1,187.9z"/>
					<path className="st1" d="M146.3,16.1c-0.6-0.4-1.3-0.6-2-0.7c-0.1,0.1-0.3,0.1-0.4,0.2L146.3,16.1z"/>
					<path className="st1" d="M167.1,222.5C167.1,222.5,167.1,222.5,167.1,222.5C167.1,222.5,167.1,222.5,167.1,222.5z"/>
					<path className="st1" d="M190.7,221.7c-3.4-0.2-1.7,1.1-2.4,1.7c-4.1,0.1-1.8-1-3.2-1.6c-2.6,0.2-4.6,1.1-6.4,1
						c-0.1-0.2-0.5-0.3-0.1-0.5c-2.7,0.8-8-0.4-11.2,0.6c-0.2-0.1-0.3-0.2-0.4-0.3c0.5,0.6,0.5,1.2,0.4,1.6
						c-1.5-0.1-2.9,0.6-3.4-0.2c0.9,0.1,1-0.2,1.5-0.4l-1.6,0.2c-1.4-1.2,2.2-0.3,2.2-1.1c-3.1,0.2-6.8,0.9-9.2,0.4
						c-0.4-1.1,5.6-0.1,2.5-1.2l3.7,0.6c-2.7-1.8,2.2,0.2-0.3-1.7c-4.9-0.6-5.5,0.2-10.3-0.3c-1.1,0.5,0.3,0.9-0.8,1.4
						c-7,0.7-5.3-3-10.4-1.8c-1.4,0.6-1.9,2-5.5,1.1l1.3-1.1c-4.7-0.4-2.8,1.6-7.7,0.5c0.9-0.4,3.7-0.2,3-0.4
						c-3.1-1.1-2.3,0.6-4.8,0.4l-0.4-1.1c-5-0.1-10.6,0.4-16.2,0.2c0.3-0.3,1.3-0.6,0-1c-7,0.1-15-0.9-21.7-2l-2.6,0.8
						c-0.6,0-1.1-0.5-0.4-0.6c-2.6-0.5-0.2,0.6-1.5,0.9c-1.5,0-1.9-0.6-1-0.9c-4.7,0.5-13.3,1-18.2-0.3l1-0.2
						c-3.8-0.6-4.4,1.6-7.9,0.6l0.7-0.1c-4.1-0.4-8.5-0.6-12.6-0.8c-2.1-0.1-4-0.3-5.9-0.5c-0.2,0-0.5-0.1-0.7-0.1
						c-0.1,0-0.2,0-0.2,0l-0.1,0c-0.2-0.1-0.3-0.1-0.5-0.2c-0.3-0.1-0.5-0.3-0.6-0.5c-0.2,0.2-0.4,0.3-0.6,0.3c-0.3-0.2,0-1.1,0-1.7
						c0-0.1,0-0.6,0-0.9c0-0.4,0-0.7,0-1c-0.1-0.6-0.3-1.1-0.7-1.2c1.2-4.7,1.4-3.3,2.4-9.9c0.2-1.8-1-2.7-1.1-4.9h1l-0.8-3l1.2-1.5
						l-0.1-2.1c-0.1,0.8-0.5,1.7-0.8,1.6c-0.3-3.2,1.1-7.8,1.6-7.9l-0.4-7.7c0.4,0.2,0.4,1.5,0.6,2.5c-0.8-4.1,1.1-0.7,0.4-4.5
						c-0.2,0.5-0.6-0.3-0.8-0.4c0.7-1.8,0.9-6.1,0.8-9.2l0.6,0.6c0.5-5.6,0.3-11.9,0.7-18.3c-0.4,2.3-1.6,1.7-1.6-0.2l1.1-0.7
						c-0.6-1.2-0.5,1.9-1.1-0.6c0.2-2.4,1.2-1.5,1.5-0.1l-0.2-2.9c0.3-0.1,0.4,0.5,0.8,0.7c-0.6-1.2,1.3-4.9,0.3-6.7l0.3-0.1
						c0.4-6.3,0.2-9.2,0.4-14.4c-0.9-0.2-0.6-2.2-1.2-3.7c0.5-3.8,1.4-8,1.6-12.5c-0.3-3.2-0.7-1-1.1-2.4c0.8-0.2,1-4.8,1.4-2.4
						c0.2-5.5,0.2-7,0-14c-0.4,0.7-0.6,1.6-0.8,1.1c-0.1-1.3,0.5-2.8,0.9-2.7l0.1,0.3c-0.8-7.9,3.3-17.9,2-24.2l0.1,0.3L46.8,54
						c0.3-3,0.5,1.8,1.1-0.3c-1-7,0.8-11,0.2-16.7c2.6-4.3,0.7-15.7,2.5-21.6l-0.6,0.3c-0.5-1.6,0.4-1.9,0.6-3
						c-0.4,0.1-0.6,1.6-0.8,0.7c0-0.6,0-1.1,0-1.7l0-0.6c0-0.3,0-0.7,0-1c0.4,0,0.8,0.1,1.2,0.1l0.4,0l1,0.1l2.1,0.2
						c2.8,0.3,5.6,0.6,8.4,0.9c5.6,0.6,11.2,1.3,16.7,1.8c4.9,0.4,2.9-2.7,9.1-1.1L86.9,13c10-0.7,20.2,1.2,30,0.6
						c-0.6,0.2-0.6,0.5-1.6,0.5c2,0.9,7.6,0.4,7.6-0.2c1.5,0.1,0.3,0.6,1.2,0.9c2,0.6,5.2-0.7,6.3,0.1c0.2,0.1-0.6,0.2-1,0.2
						c1.4-0.3,6.2,0.4,5-0.5c3.6,0.6,7,0,9.9,0.7c1.9-0.9,6.2,0.8,6.9-0.5c-0.3,1.4,6.3,1.5,8.6,1c-0.8,0.4,2,0.6,1,1.1
						c2.6,0.1,5.1,0,4.6-0.8c4.7,2,9.8-0.8,12.4,1.5c7.8-0.3,15.1-0.5,22.1-0.4c-0.3,1.4-7.8-0.3-7.5,1.2c6.7-0.2,10.6-1.2,17.2-0.5
						c1.7,0.3-1,0.6-1.6,0.8c6.7-0.2,12.8,0.8,18.8,0.4c0,0.1-0.7,0.2-1.3,0.3c1.2,0,2.7,0.4,2.6-0.3l-1.1,0.1c-1.8-1,4.7-1.7,5-2.2
						c-2.1,1.7,5.8,0.8,2.6,3c0.8-0.1,1.8-0.3,1.6-0.8c1.1,0.2,1.5,0.5,0.3,0.9c4.2-0.1,2.8-0.9,6.5-0.7c0,0.3-0.8,0.4-1.2,0.7
						c1.9-0.5,3.9-1,7.1-0.6c-0.2,0.2,0.2,0.4-0.8,0.4c5.5,0.2,9.5-1.1,15.4-0.2c-1.9,1.3,2,0.6,2.3,1.8l3.3-0.2l-1.3-0.6
						c0.7,0,1.4,0,2.1,0c0.3,0,0.7,0,1-0.1c0.4,0,0.5-0.1,0.7-0.1c0.8-0.1,1.7-0.2,2.3,0c-0.6,0.1-1.1,0.3-1.5,0.4l1.5,0l0,1.3
						c0.2-0.5,0.3-1.1,0.5-1.8l-0.2-0.1c0.2,0,0.3-0.1,0.4-0.1c0.3,0.4,0.6,0.1,0.9,0c0.2-0.1,0.3,0.1,0.1,1.7
						c0-0.3-0.1,0.3-0.2,1.2c0,0.2-0.1,0.4-0.1,0.7c0,0.3-0.1,0.5-0.2,0.8c-0.1,0.5-0.3,1-0.5,1.4v0c0.3,1.4,0.6,2.9,0.2,5
						c-0.4,0.5-1.3-0.5-1.5-0.2c0.9,1.4-0.1,6.7,0.9,8.5c-0.2-0.6-0.8-0.7-1-0.5l0.7,1.2c-0.3,1.3-0.5,1.5-0.9,1.2
						c-0.4,3.9,1.6-1.2,0.7,3.5c0-0.4-0.2-0.2-0.2-1c-0.6,4.7,0,9.1-0.6,13.4c-1.2,1.2-0.1-3.8-1.2-2.4c-0.1,6.2,0.7,13,0.1,19
						l0.2-1.1c1.6,0.9-1.1,4.4-0.5,7.6c-0.1-0.8-0.9-1-0.7-0.8c-0.5,4.1,0,8.5,0.1,14.8l-0.4-0.8c-0.5,2.4-0.6,6.4-0.9,9
						c0.4,0.8,0.2,2.3,0.9,1.4c-2.9,8,0.5,15.6-2,22.7c0-0.9-0.3-2.1-0.3-1.4l0.1,6.2c0.8-0.4,0.5-0.8,1.1-2
						c0.4,0.8,0.6,2.6,0.5,4.1c-0.3-2.8-1.2,0-1.6,1.1c0.2-0.2,0.5,0.2,0.7,0.1c-1.5,3.1,1.4,0.6,0.3,4.9l-0.4-0.2
						c0.1,1.6,0.5,3.2,0.3,4.9c-0.9,0.7-0.3-1.8-1-1.9c-0.1,2.5,1.3,5,0.4,7.2c-0.2-1.1-0.1-2.6-0.3-3.6c-1.1,2.4-0.9,2.7-1.1,4.5
						l0-0.2l-0.7,4.2l0.3-1.1c2,3.2,0,6.3,1.3,10.6c-1.1-4.1-0.8-0.7-1.7-1.1c-0.3,1.1-0.7,2.7-1,2.2c0.7,2-0.8,3.3,0.2,6.1
						c-0.3,0.1-0.1,2.1-0.9,1.6c0.1,2.6,0.6-0.6,0.9-0.3c0.8,4-1.8,9.2-0.7,15c0.3,4.9,1.3,5.9,1.6,10.5c-0.6,1.5-1-1.3-1-1.3
						c-0.6,2.5-0.6,4.3-0.4,6.7c-0.2-0.5-0.5,0-0.9,0.7c0,1.9,1,1.3,0.5,3.8c-0.3-0.4-0.8-1-1.1-1.9c0.2,2.2,0.6,4.4,0.8,6.8
						c-0.6,0.6-0.7-1.4-1-2.2c0.1,2.6,0.1,6.7,0.9,7.5l0.4-1.6c0,0.9-0.8,0.4-0.9-0.3c-0.5-2.2,0.5-3.2,0.8-3.3l0.1,1.6
						c1.9-1.6,0.1-6.6,0.4-9.9l1.2,1.4l-0.9-3.4c0.4-0.7,1.1-1.1,1.2,0.5c0.8-2.3-0.4-2.1,0.5-4.1c0.1-0.2,0.2-0.1,0.2,0.1l-0.3-2.3
						c0.2,0.5,0.9-0.3,0.7,1.1c1-4.1-0.6-6.7,0.5-8.2l0.1,0.4c-0.1-5.8-0.9-0.6-1.8-5l2.5-2.8l-0.9-0.6c0.1-0.6,0.2-1.8,0.6-1.5
						c-0.5-2.2-0.4,0.4-1-1c1-2.8,0-7.9,1.6-8.4c-0.7-1.1-0.7,2.7-1-0.4c1.7-0.8-0.1-3.5,0.8-6.1c0.8,0.8,0.2,3.3,1.1,0.7
						c-1.4-1.6,0.6-5,0.4-7.2c-1.1-0.2-0.2-4.8-0.4-8.5c0.4,0.2,1-6.9,1.6-10.3l0.2,0.1c-1.1-0.7-0.7-4.2-0.8-6.8
						c0.7,0.1,0.9,0.6,1.2,2l0.1-2.4c-0.3-0.6-0.5-1.4-0.5-2.9l0.8,0.6c0.1-3.2-0.7-6.5,0.1-10.6c-0.8-0.3-2.4,3.2-2.7-1.2
						c0.4-0.1,1.2-0.3,1.3,0.9c0-0.4-0.3-1.4-0.1-2.1l0.6,1.8c0.4-1.9-0.6-1-0.4-2.5c0.6,0.1,0.5-1.1,1-0.8c0,0.4-0.3,1.3-0.1,1.9
						c0.2-1.7,0.7-3.7,1.2-4.4c-0.4,0.1-0.8-0.1-0.9-1.3c0.1-3.2,0.8-1.1,1.2-2.9c-0.4-0.8,0.2-2.8-0.8-2.9c0.1-0.9,0.5-1.1,0.8-1.4
						c-0.3-1.7,0.3-7.8-0.8-6l-0.1,0.4c0-0.1,0-0.2,0-0.3c0,0,0,0,0,0v0c-0.6-5.5,1.1-11.3,1-16.7l0.3,0c-0.2-3.2,0.2-7.2-0.4-9.6
						c0-1,0.7-2.2,1-1.8c-0.1-2.5-0.4-2.8,0.3-6.3c0.4,2.5,0.5-0.8,0.3,2.6c0.4-3.2,1-3.9,0.3-7.4c0.7,1.2,1.1-2.4,1-3.9l-0.7,2.2
						c0-1.7,0.1-3.2,0.3-4.7l1,0.9c1.6-6.5-1.5-12,0.9-16.8c-0.6-1.8-0.7,3.5-1.5,1.9c0.3-3,2-6.1,2-7c0.4-2,0.1-3-0.3-4
						c-0.2-0.5-0.4-1-0.5-1.7c0-0.3-0.1-0.7-0.1-1.1c0-0.1,0-0.2,0-0.3c0-0.1,0-0.3,0-0.4c0-0.3,0.1-0.7,0.1-1.1
						c-0.2,0.4-0.6,0.8-0.9,0.5s-0.6-1-0.7-2.7c0.1-1,0.3-1.9,0.5-2.6c-0.9-0.5-0.5-1.2,1.5-1.4c0,0,0,0.1,0,0.2
						c0,1-0.2,1.7-0.3,1.7c0.1,1.3,0.1,3.2,0.6,1.2c-0.1-0.1-0.2-0.3-0.4-0.4c0.2-0.8,0.3-1.9,0.4-3.1c-2.4-0.3-5.3-0.6-4-0.9
						c-2,0.1-2.4,0.2-2,0.4c0.4,0.1,1.5,0.3,2.7,0.5c-1.4-0.2-2.8-0.4-4-0.5c-0.5,0-1-0.1-1.4-0.1c-0.4,0-0.8,0-1.1-0.1
						c-1.5-0.1-3.1-0.1-5.1-0.4c0.6,0.2,1.2,0.7,0.5,0.7c-5.8-0.8-2.6,0.6-6.6,0.5c-2.2-0.7,0.9-1.3-3.1-1.1c-2.4-0.5-0.5-1,0.5-1.3
						c-3.7,0.5-6.8-0.9-8.8-1.1l1.9-0.2c-1.2,0.1-2.1,0.1-3.1,0l1.1,0.8c-1.1-0.2-2.1-0.2-2-0.6c-1.2,0.4,0.8,1.3-1.5,1.8
						c-1.5-0.5-4.6,0.2-5.1-0.9c4.7,0.6-0.5-1,3.5-1c-0.8,0.1-1.7,0-2.8-0.2c-0.2-0.1,0.2-0.2,0.5-0.2c-4.5-1.1-2.1,1-6.8,0.7
						c0.6-0.5-1-1.1-1.8-1c1.9,0.1,0.9,1-0.9,1.3c-3-0.6-3.3,0.1-4.9,0l1.8,0.3c-0.6,0.5-2.1,0.4-4.2,0.4c-0.1-0.4,1.9-0.2,1.2-0.4
						c-2.4,0.9-5.2-1.3-8.5-0.8c-1.5-0.5-0.1-1.1-1.4-1.4c-3.7,0.5-3.9-1-7.7-0.6c1.1,0.8,1.3,0.6-1.5,1.2l6.3-0.2l-4.1,0.9
						c1.9,0.1,4-0.2,5.1-0.1c-1.9,0.5-1.7,0.3-0.9,1c-2.5-1.3-5.2,0.4-8.1-0.6l0.2-1.9c-4.4-1.1-8.1,0.5-13.9-0.3l1.9,0.4
						c-0.8,0.7-3.6-0.1-5.5,0.1c0.2-0.6-1-0.9-1.8-1.3c0.1,0.5-4.3-0.3-4.9,0.9l-2.6-1c-4.7-0.6-5.5,1.5-10,1
						c1.4-0.6-0.6-1.1,2.4-1.5c-1.5-0.1-2.9-0.3-2.9,0.1c-0.9-0.4-4.2,0.6-5.6-0.1c-0.6,0.2-0.9,0.9-2.6,0.7c-0.2-0.1,0-0.3,0-0.3
						c0,0.3-2.7,0.3-1.2,1c-4.6-2.2-13-0.6-17-2.5c-3.3,0-7.3,0-10.3-0.1c0.2-0.2,0-0.3,0.6-0.2c-4.1-0.8-2.6,1.6-7.3,0.7
						c-2.3-1.1,2.5-0.4,1.1-0.9c-0.5-2.1-5.7,0-8.8-1.4l0.7-0.1c-2.4-0.8-5.9,0.4-9.9,0.1c0,0,0.2-0.2,0-0.3c-2.8,0.9-7.9,1-11.7,1
						c1.2-0.7,1.8-0.3,1.1-1.2c-1.7,0,0.4,1.3-3,1.4c-1.1-0.5-3.5-1-3.8-1.9l3.2,0.1c-1.6-1.2-4.2-0.2-5.8-0.5L86,5.3
						C81.1,5.2,81,6.4,75.7,6l0.5,0.4c-3,1.1-2.4-0.8-5.3-0.1l-0.8-1.3c-1.9,0.2-6.8,0.8-10.2,0.9c2-0.8,6-1.1,8.5-1.5
						C66.5,4.4,62,4.2,61,4.8c0.8-0.1,1.8-0.3,2.5-0.1c-2.4,0.8-5.5,1.2-9.2,0.9c0.3-0.8-0.7-1.2-2.2-1.4c-0.3-0.1-1-0.1-1.6-0.2
						c-0.6,0-1.3-0.1-2-0.2c-1.4-0.1-2.9-0.2-4.3-0.3c-0.3,2.9-0.6,5.6-1.3,7.1c0,0.2,0,0.4,0,0.5l0,0.3l0,0.6l0,1.2
						c0,0.8,0,1.7-0.1,2.5c-0.1,1.7-0.2,3.4-0.4,5.1c-0.4,3.4-0.9,7-1,10.9c2-2.6-0.1,2.3,1.9,1.9c0,1.8,0,2.5-0.2,2.7l-1.5,5.4
						c-0.6,1.3-0.3-1.7-0.8-1.6c-0.4,4-0.9,1.6-1.6,4.2c0.7-0.5,0.9,1.4,0.5,3.7l1.1-3.1c0.7,5.6-1.9,4.7-1.2,10.3l-0.5-1.8
						c0.2,2.9-0.6,10.6,0.8,13.5c-0.2,0.5-0.8,1.1-0.9-0.1c-0.6,6.8,0.8,15.3-0.4,20.6l-0.4-0.5c0.1,1.3,0.8,2.3,0.2,3.8
						c-0.2-0.1-0.4-0.5-0.5,0.1c0.1,0.7,0.6,3.4,0.3,5.1l-0.5-1.5c-1,6.6,0.7,10.3,0.7,15.9c-1.4-0.1-2.1,5.1-2.5,7.8l-0.2-0.1
						c-0.6,7.8,0.4,13.3,0.6,20.5c-1.8,4.4-1.5,15.1-2.7,22.2c0.3-1.1,1.1,0.2,1.1,1.5c-0.4,1.7,0.7,4.7-0.5,4.4l0.1-0.6
						c-1.3,1.2-1.2,4.7-1.4,7.4l1.6,0.5c-2.8,6.9-0.1,18.6-2.5,22.3c0.3,1.7,0.2,3.8,0.5,5.6l-0.9-0.1c-0.2,2.4-0.4,4.1-0.6,6
						c-0.1,1-0.1,1.9-0.2,3.1c0,1.5-0.1,3.2-0.2,5.2c-0.2-0.7-0.4-1.4-0.5-2.1c-0.1,2.1,0,3.6,0.3,4.6c0.3,1.1,0.7,1.8,1.1,2.5
						c1.7-0.4,3.1-0.6,4.6-0.6c0.2,0.5,0.5,0.9,0.8,1.4l1.8,0.1l0.8,0.1l0.5,0.1l2.2,0.2l4.3,0.5c2.9,0.3,5.8,0.4,8.6,0
						c-0.1,0.2-0.3,0.6-1.2,0.6c2.7,0.2,10.4,1.5,9.5-0.4c0,1.2,5.9,0.4,9.1,0.1l-0.5,0.9c2.7-1,2.8-1.3,6.5-1.4
						c0.9,0.2,0.7,0.7-0.4,0.5c2.9,0.6,2.3-0.7,5.8-0.1l-1.3,0.5c3,0.2,2.8-0.1,4.4-0.6c1.9-0.2,5.6,0.5,6,1.4
						c0.4-0.5,2.1-1,3.8-0.7c0.2,0.3-0.4,0.5-0.8,0.5c4.9,0.9,7.4-0.6,10.8,0.4c0.1,0.3,0.3,0.4,0.6,0.6c-3.9-0.2-7.1-0.5-6.8-0.5
						c0,0.8,3.1,1.1,0.5,2.1c2.6-0.5,7.1-1.6,10.1-1c0.2,0.1,0.3,0.2,0.4,0.3l-0.3,0.1c0.7,0.1,1.4,0.1,2,0c1,0.2,1.6,0.3,2.6,0.4
						c0.3,0.7,3.6,0.6,5.2,0.7c-0.1-0.9,2-0.6,0.1-1.5c0.2,0.1-0.3,0.1-1.4,0.1c-0.2,0-0.5,0-0.7,0.1c0,0,0.1-0.1,0.1-0.1
						c-1.1,0-2.4-0.1-4-0.2c1.3-0.4,2.6-0.7,4.3-0.1c0.8-0.5,1.8-1.1,2.3-1.3c2.1,1.4,6.3,2.2,6.8,3c4.9-0.2,11.5,0.3,14.6-1.2
						c1.4-0.1,1.6,0.6,2.1,0.9c-0.8,0.1-1.8,0.1-2.2,0.3c2.8-0.3,8.2,0.3,8.9-0.8c3.4,0.7-2,1,2.8,1l-0.7,0.3
						c9.3,2.4,15.5-2.1,25.8,0.8c-0.7-0.2-1.1-0.3-1.2-0.5c11.8,1.7,24.6,0.4,36.2,2.7c3.3,0.5,3.7-0.2,5.8-0.6l0.7,1l3.5-0.9
						c5-0.5,8.4,2.8,14.8,1.6l-0.8-0.7c2.2,0.2,7.1,0,6.7,0.7c0.2-0.1,0.8-0.6,1.6-0.2l0,0.5l5.6-0.6c4.3,0.6-0.8,1.9,5.5,2.4
						c2.3-0.1,6.7-1.1,5.8-1.5c-0.9-0.1-2.4-0.4-2.4-0.9l2.1-0.1c0.5-1.4,2.2-2.9-3-4.2l-3.7,0.7l-1.1-0.8l3.1,0.1
						c-1.7-0.8-2.8-0.2-4.1,0.1c-0.3-0.4-0.8-0.7-1.5-0.9l-3.6,1.2c-0.4-0.6,1.7-1.1-0.7-1.5c-1.7,0.6,1.5,1.4-1.3,1.6
						c-1.7-0.8-1.2-1.3-3.2-0.8c-0.3-0.4,0.2-0.6,1-0.7c-1.8,0.4-4.8-0.1-5.8,0.6c-1.8-0.9-6.1-0.1-5.9-1.5
						c-0.6,0.3-3.2,0.9-4.9,0.9c3.1-1.5-6.2-0.4-5.3-2.2c-2.3,1.4-8.2,0.2-12.2,0.8c0.2-0.1,0.7-0.3,1-0.2c-2.2-0.2-2.9-0.7-4.3-1.1
						c-0.4,1.2-3.9,1.3-5.8,2c-2.7-1.3,1.8-1.4,0.9-2.5c0.1,1-4.8,0.7-3.9,1.6c-2.1-0.9-1.8-0.5-2.8-1.5c-0.4,1.5-2,0.1-3.8,1
						c-3-0.9-0.7-1.5-4.1-1.2C187.7,222.1,190.7,221.7,190.7,221.7z M111,220C111,220,111,219.9,111,220c0.7,0,1.3,0,1.7,0
						C112.3,220,111.8,220,111,220z M104.3,219.6c0.8,0.1,1.8,0.1,2.9,0.2c0.2,0.3-0.1,0.6-0.7,0.6
						C106.9,220.2,105.3,219.9,104.3,219.6z M118.1,226.5c-1.1,0.1-1.4-0.1-1.6-0.3c0.5,0,1.1,0,1.9,0c0,0,0.1-0.1,0.1-0.1
						C118.5,226.3,118.3,226.4,118.1,226.5z"/>
					<path className="st1" d="M120.1,225.5c0.2,0,0.2,0,0.4,0c-0.2-0.1-0.4-0.2-0.6-0.2c-0.1,0.1-0.3,0.2-0.4,0.3
						C119.7,225.4,119.9,225.5,120.1,225.5z"/>
					<path className="st1" d="M273.4,97.8l0-0.1c0,0.1-0.1,0.2-0.1,0.3C273.3,97.9,273.3,97.9,273.4,97.8z"/>
					<polygon className="st1" points="40.1,195.4 39.9,195.4 40,196 					"/>
					<path className="st1" d="M268.3,134.5c-0.1,0.1-0.2,0.2-0.2,0.5C268.1,135,268.2,134.8,268.3,134.5z"/>
					<path className="st1" d="M267.2,150.4l-0.4,2.2C267,151.7,267.1,151,267.2,150.4z"/>
					<path className="st1" d="M266.1,162.6c0.1,0.2,0.3,0.2,0.4,0.3l0,0L266.1,162.6z"/>
					<path className="st1" d="M225.6,19.4c-0.2,0-0.3,0-0.5,0C224,19.5,224.8,19.5,225.6,19.4z"/>
					<path className="st1" d="M274.6,26c-0.1-0.6-0.2-1.2-0.3-1.9C274.2,25.2,274.1,26,274.6,26z"/>
					<path className="st1" d="M160.9,16.9C160.9,16.9,160.9,16.9,160.9,16.9c-0.1,0-0.2,0-0.4,0L160.9,16.9z"/>
					<path className="st1" d="M274.5,22.3c-0.1,0.4-0.2,0.7-0.2,1c0,0.3,0,0.5,0,0.9c0-0.2,0-0.4,0.1-0.6c0-0.1,0-0.3,0.1-0.5
						C274.5,22.8,274.5,22.5,274.5,22.3z"/>
					<path className="st1" d="M262.8,215.6l-0.1,0.6c0.1,0,0.1,0,0.1,0.1L262.8,215.6z"/>
					<path className="st1" d="M262.9,216.3l0.1,0.7C263,216.6,263,216.4,262.9,216.3z"/>
					<path className="st1" d="M263.1,218.3l-0.1-1.4C262.9,217.4,262.8,218,263.1,218.3z"/>
					<path className="st1" d="M264.1,199.4l-0.3-0.2C263.8,199.4,263.9,199.4,264.1,199.4z"/>
					<path className="st1" d="M264.3,194.5c-0.1,1.2-0.9,2.9-0.7,4.6l0.2,0.2C263.3,198.4,264.8,195.7,264.3,194.5z"/>
					<path className="st1" d="M269.4,174.2l-0.5,4.1c0.4-0.7,0.9-1.6,0.9,0.3C271,173.4,268.9,179.6,269.4,174.2z"/>
					<path className="st1" d="M270.6,161.4c0,2.2,0.5,0,0.7,0.1C271,160.1,271,159.8,270.6,161.4z"/>
					<path className="st1" d="M275.6,69l0.8,0.3C276.4,67.6,276.1,69.3,275.6,69z"/>
					<polygon className="st1" points="272.5,51.1 271.9,52.8 272.6,53.6 					"/>
					<polygon className="st1" points="278.8,41 278.8,41.8 278.7,38.9 					"/>
					<path className="st1" d="M143.4,8.2l0.5,1C145,9.1,145.3,8,143.4,8.2z"/>
					<path className="st1" d="M76.3,5.5c-0.7-0.5-2.6-1-3.8-0.5C74.1,5.1,75.5,5.6,76.3,5.5z"/>
					<polygon className="st1" points="33.2,177.2 32.9,175.8 33,178.4 					"/>
				</g>
			</g>
		</g>
	</g>
</g>
<g>
	
		<rect x="58" y="10.5" transform="matrix(0.9986 -5.309943e-02 5.309943e-02 0.9986 -5.8563 8.7605)" className="st2" width="208" height="208.3"/>
	<g>
		<g>
			<g>
				<g>
					<path className="st1" d="M268.8,213.2c0.3,0.4,1,0.1,0.9-1.1l-1.3-0.8L268.8,213.2z"/>
					<path className="st1" d="M270.7,204.9c-0.7-1.4-1.8-3-2.9-2c1.2,1.3,0.8,1.7,2.3,3.1c0.2,1.2-0.3,2.1-0.7,1.9
						c0.3,0.4-0.2,1.9,0.6,2.5c0.9-1.6,0.8-3.6-0.1-5.6C270.1,204.4,270.5,204.9,270.7,204.9z"/>
					<path className="st1" d="M266.3,87l-0.1,0.8C266.3,87.5,266.3,87.2,266.3,87z"/>
					<path className="st1" d="M263.1,13.9c0.1,0.6,0.2,0.8,0.3,0.8C263.3,14.2,263.2,13.8,263.1,13.9z"/>
					<path className="st1" d="M258,1.5c0.4,0,0.8,0,1.1,0C258.8,1.4,258.3,1.4,258,1.5z"/>
					<path className="st1" d="M266.3,87l0.3-2C266.2,84.9,266.4,86,266.3,87z"/>
					<path className="st1" d="M266.9,188.9c0.1,0.4,0.2,0.7,0.4,1c-0.1-0.3-0.1-0.6-0.2-1C267,188.9,266.9,188.9,266.9,188.9z"/>
					<path className="st1" d="M269,119.1l0,0.6c0.1,0.2,0.3,0.3,0.5,0.5L269,119.1z"/>
					<path className="st1" d="M270.5,143.8c0-0.6-1-0.7-1.5-0.9c0.5,0.3,0.7,0.7,0.8,1.2C270,144.1,270.2,144,270.5,143.8z"/>
					<path className="st1" d="M270.8,183.1l0.2,0.7C270.9,183.6,270.9,183.3,270.8,183.1z"/>
					<path className="st1" d="M268.3,101.4c0.1-0.1,0.3-0.2,0.4-0.2C268.5,101.2,268.4,101.3,268.3,101.4z"/>
					<path className="st1" d="M242.4,209.7c0,0.1,0,0.1,0,0.2C242.6,209.8,242.6,209.7,242.4,209.7z"/>
					<path className="st1" d="M271.3,213.3l-0.4,0.1c0,0.2-0.1,0.4,0,0.6L271.3,213.3z"/>
					<path className="st1" d="M233.6,1.4c0,0,0.1,0,0.1,0C234.3,1.3,234,1.3,233.6,1.4z"/>
					<path className="st1" d="M49.8,44.6c0.8-2.4,1.4,3.8,2.2,0.2C51.6,45.1,50.2,41.6,49.8,44.6z"/>
					<path className="st1" d="M267,188.2c0-0.3-0.1-0.7-0.1-1C266.9,187.6,266.9,188,267,188.2z"/>
					<path className="st1" d="M52,44.7L52,44.7l0.1-0.4C52.1,44.5,52,44.6,52,44.7z"/>
					<path className="st1" d="M181.1,4.8c0.1,0.2,0.3,0.3,0.6,0.4C181.6,5.2,181.5,5,181.1,4.8z"/>
					<path className="st1" d="M220.3,4.2l-1-0.1C219.7,4.2,220,4.2,220.3,4.2z"/>
					<path className="st1" d="M160.8,7.4c-0.5-0.1-0.7-0.2-1.4,0c0.1,0.1,0.1,0.1,0.2,0.1C159.8,7.3,160.2,7.2,160.8,7.4z"/>
					<path className="st1" d="M139.6,8.5c0.1,0.1,0.3,0.1,0.4,0.2c0.2,0,0.4-0.1,0.7-0.1L139.6,8.5z"/>
					<path className="st1" d="M178.1,213.6c0.5,0.3,0.8,0.6,1,0.9C178.8,213.8,181.8,213.3,178.1,213.6z"/>
					<path className="st1" d="M267.4,188.8c-0.3-0.1-0.4-0.3-0.5-0.6c0,0.2,0.1,0.5,0.1,0.7C267.2,189,267.4,189,267.4,188.8z"/>
					<path className="st1" d="M160.4,15.6l-3.4,0C157.9,15.7,159.2,15.7,160.4,15.6z"/>
					<path className="st1" d="M65.9,186.7l0.2,0.8C66.1,187.1,66,186.9,65.9,186.7z"/>
					<path className="st1" d="M147,16.4c-0.6-0.3-1.3-0.5-1.9-0.6c-0.1,0.1-0.3,0.2-0.4,0.3L147,16.4z"/>
					<path className="st1" d="M179.1,214.5C179.1,214.5,179.1,214.5,179.1,214.5C179.1,214.5,179.1,214.5,179.1,214.5z"/>
					<path className="st1" d="M201.1,210.9c-3.2,0.1-1.4,1.4-2.1,2.2c-3.8,0.6-1.8-0.9-3.2-1.6c-2.4,0.5-4.1,1.8-5.9,1.9
						c-0.1-0.2-0.5-0.3-0.1-0.6c-2.5,1.2-7.5,0.4-10.4,2c-0.2-0.1-0.3-0.2-0.4-0.3c0.5,0.7,0.6,1.4,0.6,1.9c-1.4,0.1-2.6,1-3.2,0.1
						c0.9,0,0.9-0.4,1.3-0.7l-1.5,0.5c-1.4-1.2,2-0.6,2-1.5c-2.9,0.6-6.3,1.8-8.6,1.6c-0.5-1.2,5.2-0.7,2.2-1.7l3.5,0.3
						c-2.8-1.8,2.1,0-0.4-2c-4.6-0.1-5.1,0.9-9.7,0.8c-1,0.8,0.4,1-0.6,1.8c-6.4,1.6-5.3-2.9-10-1c-1.2,0.9-1.6,2.5-5,1.9l1.1-1.5
						c-4.4,0.1-2.4,2.2-7.1,1.5c0.8-0.6,3.5-0.7,2.8-0.8c-3.1-1-2.1,0.9-4.4,1l-0.6-1.2c-4.7,0.4-9.9,1.6-15.1,2.1
						c0.3-0.4,1.1-0.8-0.1-1.1c-6.6,1-14.1,0.6-20.5,0.2l-2.4,1.2c-0.6,0-1.1-0.4-0.5-0.7c-2.5-0.3-0.1,0.7-1.3,1.2
						c-1.4,0.1-1.9-0.5-1-0.9c-4.3,1.1-12.4,2.6-17,1.7l0.9-0.4c-3.6-0.2-3.9,2.4-7.3,1.6l0.6-0.2c-2.4,0-4.9,0.1-7.3,0.2
						c-0.8,0.1-1.5,0.1-2.3,0.1c-0.6,0-1.1,0.1-1.6,0c0-0.7,0.1-1.4,0.2-2c0-0.1,0.1-0.3,0.1-0.4L67,218l0-0.1l0,0l0-0.1
						c0.1-0.6,0.2-1.2,0.3-1.8c-1.6-1.1,0.3-7.8-1.9-8.1c0.8-4.5,1.3-3.2,1.7-9.6c0-1.7-1.5-2.4-1.8-4.5l1.1-0.1l-1.3-2.7l1.3-1.6
						l-0.4-1.9c0,0.8-0.4,1.7-0.8,1.6c-0.7-3,0.4-7.4,1-7.5l-1.3-7.1c0.5,0.1,0.7,1.3,1,2.3c-1.4-3.8,1.2-0.8-0.1-4.2
						c-0.2,0.5-0.7-0.2-0.9-0.3c0.6-1.8,0.4-5.8-0.1-8.7l0.8,0.5c-0.1-5.3-1-11.2-1.3-17.2c-0.2,2.2-1.6,1.7-1.9,0l1.2-0.8
						c-0.8-1.1-0.4,1.9-1.4-0.4c0-2.2,1.3-1.6,1.8-0.3l-0.6-2.7c0.3-0.2,0.6,0.4,1,0.6c-0.8-1.1,1-4.7-0.4-6.3l0.3-0.2
						c-0.3-6-0.9-8.6-1.2-13.5c-1,0-0.9-1.9-1.8-3.4c0.1-3.6,0.8-7.6,0.4-11.9c-0.7-3-0.9-0.8-1.6-2.2c0.9-0.3,0.6-4.6,1.4-2.4
						c-0.4-5.2-0.5-6.6-1.7-13.1c-0.3,0.7-0.5,1.5-0.8,1.1c-0.2-1.2,0.2-2.7,0.7-2.6l0.1,0.3c-1.8-7.3,1.9-17.1-0.4-22.8l0.1,0.3
						l-1.3-6c0-2.8,0.8,1.6,1.3-0.5C57.7,53.8,59.3,50,58,44.6c2.6-4.3-1-14.8,0.5-20.5l-0.6,0.4c-0.4-0.7-0.3-1.1-0.1-1.5
						c0.1-0.2,0.2-0.4,0.3-0.6c0-0.1,0.1-0.2,0.1-0.3c0-0.1,0-0.1,0-0.2c0,0,0,0,0,0c-0.1,0-0.2,0-0.3,0.1c-0.1,0.1-0.1,0.3-0.2,0.5
						c-0.1,0.3-0.2,0.4-0.4,0l0-0.4c0-0.1,0-0.1,0-0.1l0,0l0-0.2c0-0.1-0.1-0.3-0.1-0.5c0-0.3-0.1-0.7-0.1-1c0.4,0,0.8,0,1.2,0
						l0.6,0l1.9,0c2.6,0,5.3,0,7.9,0.1c5.3,0.1,10.6,0.3,15.8,0.2c4.6-0.1,2.4-3.5,8.3-2.3l-1.6,1.3c9.2-2,19-1,28.1-2.7
						c-0.5,0.3-0.5,0.7-1.4,0.7c2,0.8,7.1-0.3,7.1-1.1c1.4,0,0.4,0.6,1.3,1c2,0.4,4.8-1.4,5.9-0.6c0.2,0.1-0.5,0.3-0.9,0.4
						c1.2-0.5,5.9-0.2,4.6-1.2c3.4,0.3,6.5-0.8,9.3-0.3c1.7-1.2,5.9,0.2,6.4-1.4c-0.2,1.7,6.1,1,8.2,0.1c-0.7,0.6,1.9,0.4,1.1,1.2
						c2.5-0.1,4.7-0.6,4.2-1.4c4.6,1.8,9.1-2.1,11.8,0.3c7.3-1.3,14-2.3,20.6-3c-0.1,1.7-7.3,0.6-6.9,2.3c6.2-1,9.8-2.6,16-2.6
						c1.6,0.1-0.9,0.8-1.4,1.1c6.2-1,12.1-0.5,17.6-1.7c0,0.2-0.6,0.4-1.2,0.5c1.1-0.1,2.6,0.1,2.4-0.6l-1.1,0.3
						c-1.8-1,4.2-2.5,4.4-3.1c-1.8,2.3,5.5,0.3,2.7,3.2c0.7-0.2,1.6-0.6,1.4-1.1c1.1,0.1,1.4,0.4,0.4,1c3.9-0.6,2.5-1.4,6-1.5
						c0,0.4-0.7,0.6-1.1,1c1.8-0.8,3.5-1.6,6.6-1.5c-0.2,0.2,0.2,0.5-0.7,0.5c2.6-0.2,4.8-0.8,7-1.3c1.1-0.2,2.3-0.5,3.5-0.6
						c0.3,0,0.6-0.1,0.9-0.1l0.5,0l0.3,0c0.4,0,0.9,0,1.4,0.1c-1.5,1.7,1,0.5,0,1.9l0.6-0.2c0.1,0.1,0.2,0.3,0.3,0.5
						c0.2-0.3,0.4-0.7,0.6-1.1c0,0.7,0.3,1.2,0.5,1.9c0.1,0.2,0.1,0.3,0.2,0.5l0.1,0.3l0,0.1l0,0.2c0.1,0.6,0.1,1.2,0,1.7l-0.7-1.9
						l0.5,5l0.4-2.9c0.9,2.7,1.7-0.4,1.5,3.2c-0.2-0.7,0.1,2.7-0.6,4.1v0c0.5,1.3,1,2.6,0.8,4.6c-0.4,0.5-1.5-0.3-1.8,0
						c1.2,1.2,0.6,6.2,2,7.8c-0.3-0.5-1-0.5-1.2-0.3l1,1c-0.2,1.2-0.4,1.4-1,1.3c0,3.7,1.7-1.3,1.2,3.2c-0.1-0.3-0.2-0.2-0.4-0.9
						c-0.2,4.5,1,8.5,0.8,12.6c-1.3,1.3-0.5-3.5-1.6-2.1c0.6,5.9,2.3,12.1,2.3,17.8l0.1-1.1c2,0.7-0.8,4.3,0.3,7.1
						c-0.2-0.7-1.1-0.9-0.9-0.7c-0.1,3.9,0.9,7.9,1.8,13.8l-0.5-0.7c-0.3,2.3,0.1,6.1,0,8.5c0.5,0.7,0.5,2.1,1.2,1.2
						c-2.5,7.8,2.3,14.5,0.3,21.4c0-0.8-0.5-1.9-0.5-1.3l0.8,5.8c0.8-0.5,0.5-0.8,1.1-2c0.5,0.7,1,2.3,1.1,3.7
						c-0.7-2.6-1.4,0.1-1.8,1.2c0.2-0.2,0.6,0.2,0.8,0.1c-1.4,3.1,1.8,0.4,0.9,4.6l-0.5-0.2c0.3,1.5,1,2.9,0.9,4.6
						c-1,0.7-0.5-1.6-1.4-1.7c0.2,2.3,2.1,4.5,1.2,6.7c-0.3-1-0.4-2.4-0.7-3.4c-1,2.4-0.7,2.6-0.8,4.3l0-0.2l-0.3,4l0.3-1
						c2.7,2.8,0.8,5.9,2.7,9.8c-1.8-3.7-1-0.6-2.1-0.8c-0.3,1-0.5,2.6-0.9,2.1c1,1.8-0.5,3.1,0.9,5.7c-0.4,0.1,0.1,2-0.9,1.6
						c0.4,2.4,0.6-0.6,1.1-0.4c1.4,3.7-1,8.8,1,14.1c0.9,4.6,2.2,5.4,3,9.6c-0.5,1.5-1.4-1.1-1.4-1.1c-0.4,2.4-0.2,4.1,0.3,6.3
						c-0.3-0.4-0.6,0-1,0.7c0.2,1.8,1.4,1.1,1,3.5c-0.4-0.4-1.1-0.9-1.5-1.7c0.4,2.1,1.2,4.1,1.7,6.2c-0.6,0.6-1-1.2-1.5-2
						c0.4,2.4,0.9,6.2,1.9,6.9l0.3-1.6c0.1,0.9-0.8,0.5-1-0.1c-0.9-2,0.2-3,0.5-3.1l0.3,1.5c2-1.7-0.7-6.1-0.7-9.2l1.6,1.2l-1.5-3.1
						c0.4-0.7,1.2-1.2,1.5,0.3c0.6-2.2-0.6-1.9,0.1-3.9c0.1-0.2,0.2-0.1,0.3,0.1l-0.6-2.1c0.4,0.4,1.1-0.4,0.9,0.9
						c0.7-3.9-1.5-6.2-0.4-7.7l0.1,0.3c-0.8-5.4-1.2-0.5-2.7-4.4l2.6-2.9l-1.2-0.5c0-0.6,0-1.7,0.5-1.5c-0.9-2-0.5,0.4-1.3-0.8
						c0.9-2.7-0.9-7.4,0.9-8.1c-0.9-0.9-0.5,2.6-1.3-0.2c1.9-0.9-0.5-3.3,0.2-5.8c1,0.7,0.6,3,1.4,0.6c-1.8-1.4,0.1-4.8-0.3-6.8
						c-1.4,0-0.8-4.4-1.4-7.9c0.5,0.2,0.4-6.6,0.7-9.8l0.2,0.1c-1.4-0.6-1.3-3.9-1.7-6.3c0.8,0.1,1.2,0.5,1.6,1.8l-0.1-2.3
						c-0.5-0.5-0.7-1.2-1-2.7l1,0.5c-0.2-3-1.5-6-1-9.9c-1-0.2-2.5,3.2-3.3-0.8c0.5-0.2,1.4-0.4,1.6,0.7c-0.1-0.3-0.5-1.2-0.3-2
						l1,1.6c0.3-1.8-0.8-0.9-0.8-2.3c0.7,0,0.5-1.1,1.1-0.9c0.1,0.4-0.2,1.2,0.1,1.8c0-1.6,0.4-3.6,0.9-4.2c-0.4,0.2-1,0.1-1.1-1.1
						c-0.2-3,0.8-1.1,1.1-2.9c-0.5-0.7-0.1-2.7-1.2-2.7c0-0.9,0.5-1.1,0.7-1.4c-0.6-1.5-0.5-7.3-1.6-5.5l-0.1,0.4
						c0-0.1,0-0.2-0.1-0.2c0,0,0,0,0,0v0c-1.4-5.1,0-10.7-0.7-15.8l0.4,0c-0.6-3-0.6-6.8-1.5-8.9c0-0.9,0.6-2.2,1-1.8
						c-0.4-2.3-0.8-2.5-0.4-5.9c0.8,2.3,0.5-0.8,0.6,2.4c0.2-3,0.7-3.8-0.5-6.9c1,1,1.1-2.3,0.7-3.8l-0.6,2.2
						c-0.2-1.6-0.2-3-0.2-4.5l1.3,0.7c1.2-6.3-3.1-11-0.9-15.8c-1-1.6-0.4,3.4-1.5,2c0-2.9,1.6-5.9,1.6-6.8c0.5-3.9-2-3.5-1.7-7.6
						c-0.4,0.5-1.6,1.1-2.1-1.9c0-2.9,1.7-3.6,2.1-1.8c0.1,0.7,0,1-0.2,1c0.2,0.9,0.5,2.1,0.9,0.9l-0.5-0.4c0.4-1.4,0.1-5.3,0.9-4.5
						c-0.3-1.8-0.5-2.1-0.6-1.7c-0.1,0.2-0.1,0.6-0.2,1.1c0,0.2,0,0.5-0.1,0.8c0,0.2,0,0.4-0.1,0.6c0.1-0.5,0.1-1.7,0.1-2.5
						c0-0.9,0-1.8-0.1-2.6c-0.1-1.7-0.2-3.2-0.3-5c-1.3,0.1-2.8,0.1-4.4,0.1c0.9,0.2,1.3,0.7,0.5,0.7c-4-0.1-5,0.2-5.5,0.5
						c-0.4,0.3-0.5,0.7-2.4,0.9c-2.2-0.6,0.7-1.6-3.1-0.9c-2.3-0.3-0.6-1.1,0.3-1.5c-3.4,1-6.4-0.2-8.4-0.3l1.8-0.4
						c-1.1,0.3-1.9,0.3-2.9,0.3l1.1,0.8c-1.1-0.1-2,0-2-0.4c-1.1,0.6,0.9,1.4-1.2,2.3c-1.4-0.4-4.3,0.7-4.8-0.4
						c4.5,0.2-0.6-1.1,3.2-1.5c-0.7,0.2-1.6,0.2-2.7,0.1c-0.2-0.1,0.1-0.2,0.4-0.3c-4.3-0.8-1.9,1.4-6.3,1.6c0.5-0.7-1.1-1.2-1.8-1
						c1.8-0.1,0.9,1-0.7,1.6c-2.9-0.4-3.1,0.5-4.5,0.6l1.7,0.2c-0.5,0.7-1.9,0.7-3.9,1c-0.2-0.5,1.8-0.4,1.1-0.6c-2.1,1.3-5-0.9-8,0
						c-1.4-0.4-0.2-1.2-1.5-1.5c-3.4,1-3.7-0.7-7.3,0.2c1.1,0.8,1.2,0.6-1.2,1.6l5.9-0.9l-3.7,1.5c1.8-0.1,3.7-0.8,4.8-0.7
						c-1.8,0.8-1.6,0.6-0.7,1.3c-2.5-1.2-4.8,1-7.6,0.3l0-2.2c-4.3-0.8-7.5,1.5-13,1.3l1.8,0.3c-0.7,0.9-3.4,0.3-5.1,0.8
						c0.1-0.7-1-0.9-1.8-1.4c0.1,0.5-4,0.2-4.4,1.7l-2.5-0.8c-4.5-0.2-4.9,2.4-9.2,2.3c1.2-0.9-0.7-1.3,2.1-2
						c-1.4,0.1-2.7,0-2.7,0.5c-0.9-0.4-3.9,1.2-5.2,0.6c-0.6,0.3-0.7,1.1-2.3,1.2c-0.2-0.1,0-0.4,0-0.4c0,0.4-2.5,0.6-1,1.4
						c-4.5-2.1-12.2,0.8-16.2-0.9c-3.1,0.4-6.8,0.9-9.6,1.1c0.2-0.2,0-0.4,0.5-0.3c-3.9-0.5-2.3,2.2-6.8,1.7
						c-2.3-1.1,2.3-0.8,0.9-1.1c-0.7-2.4-5.3,0.6-8.4-0.6l0.7-0.2c-2.3-0.7-5.5,1.2-9.2,1.2c0,0,0.2-0.2,0-0.4
						c-2.5,1.4-7.3,2-10.8,2.6c1.1-1,1.6-0.6,0.9-1.5c-1.6,0.2,0.6,1.5-2.6,1.9c-1.1-0.5-3.4-0.8-3.8-1.8l3-0.2
						c-1.6-1.2-3.9,0.2-5.5,0.1l0.2-0.6c-4.6,0.4-4.6,1.9-9.6,2.1l0.5,0.4c-2.6,1.6-2.3-0.7-5,0.5l-0.9-1.4
						c-1.8,0.4-6.2,1.8-9.4,2.2c1.8-1.2,5.5-1.9,7.8-2.7c-1.8,0.1-6,0.4-6.9,1.2c0.7-0.2,1.6-0.6,2.3-0.4c-2.1,1.3-5,2-8.5,2.1
						c0.1-0.5-0.1-0.8-0.5-1c-0.2-0.1-0.4-0.2-0.7-0.3c-0.3-0.1-0.8-0.1-1.4-0.1c-2.1-0.1-5,0.1-7.7,0.1c0,2.7-0.1,5.2-0.8,6.6
						l0.5,3.3c0.1,0.8,0.2,1.6,0.2,2.4c0.1,1.6,0.1,3.2,0.1,4.8c0,3.2-0.2,6.6,0.1,10.3c2.1-2.7,0.2,2.1,2.4,1.6
						c0.2,1.7,0.2,2.3,0.1,2.5l-1.1,5.2c-0.6,1.3-0.6-1.6-1.1-1.4c0,3.7-0.9,1.6-1.3,4.1c0.8-0.5,1.2,1.2,1,3.4l0.9-3
						c1.5,5.1-1.7,4.6-0.2,9.8l-0.8-1.6c0.6,2.7,0.5,9.9,2.5,12.5c-0.2,0.5-0.8,1.2-1,0c0.1,6.4,2.7,14.2,1.8,19.3L52,92.4
						c0.2,1.2,1.2,2,0.7,3.6c-0.2-0.1-0.6-0.4-0.6,0.1c0.2,0.6,1.1,3.1,0.9,4.8l-0.7-1.3c-0.4,6.3,2,9.6,2.7,14.8
						c-1.6,0.1-1.9,5-2,7.5l-0.2-0.1c0.2,7.3,2,12.3,3,19.1c-1.5,4.3,0,14.3-0.6,21.1c0.2-1.1,1.3,0.1,1.5,1.3
						c-0.2,1.6,1.4,4.3-0.2,4.1v-0.6c-1.4,1.3-0.8,4.5-0.8,7.1l2,0.3c-2.5,6.8,2,17.4-0.4,21.1c0.6,1.6,0.7,3.6,1.2,5.1l-1,0
						c0,4.5,0,6.7,0.5,12.2l-0.8-1.1c0.1,3.1,3.2,3.8,3.5,6.6c-0.5,0.4-1,0.9-1.5,1.5c0.2,2.9,0.2,5.9,0.2,9.1c3,0,6.3,0,9.6-0.2
						c1-0.1,1.2-0.1,1.7-0.1c0.5-0.1,0.9-0.1,1.4-0.2c0.9-0.1,1.8-0.4,2.7-0.6c-0.1,0.2-0.2,0.7-1.1,0.8c2.6-0.1,9.9,0.5,8.9-1.6
						c0.1,1.4,5.6-0.2,8.5-0.9l-0.4,1.1c2.4-1.4,2.5-1.8,5.9-2.4c0.8,0.1,0.8,0.8-0.3,0.6c2.8,0.4,2.1-1.1,5.4-0.7l-1.2,0.7
						c2.8-0.1,2.6-0.4,4.1-1.3c1.7-0.5,5.3,0,5.8,0.9c0.3-0.6,1.8-1.4,3.5-1.2c0.2,0.3-0.3,0.6-0.6,0.7c4.7,0.4,6.9-1.6,10.2-0.7
						c0.1,0.3,0.3,0.5,0.6,0.6c-3.7,0.2-6.7,0.3-6.4,0.2c0.1,0.9,3.1,1,0.7,2.4c2.4-0.9,6.4-2.6,9.4-2.3c0.2,0.1,0.3,0.2,0.4,0.3
						l-0.3,0.1c0.7,0.1,1.3-0.1,1.8-0.2c0.9,0.1,1.5,0.2,2.4,0.2c0.4,0.8,3.5,0.2,5,0.2c-0.2-1,1.8-1-0.1-1.7
						c0.2,0.1-0.3,0.1-1.3,0.2c-0.2,0-0.5,0.1-0.6,0.1c0,0,0.1-0.1,0.1-0.1c-1,0.1-2.3,0.2-3.7,0.3c1.1-0.6,2.4-1.1,4.1-0.6
						c0.7-0.7,1.5-1.4,2-1.8c2.1,1.3,6.1,1.9,6.7,2.8c4.5-0.8,10.8-1,13.5-3.1c1.3-0.3,1.5,0.5,2,0.8c-0.7,0.2-1.6,0.2-2,0.6
						c2.6-0.6,7.7-0.6,8.2-2c3.3,0.4-1.8,1.4,2.7,0.9l-0.6,0.4c9,1.7,14.2-4.3,24.2-2c-0.7-0.1-1-0.2-1.2-0.4
						c11.3,0.6,23-2.4,34.1-1c3.2,0.2,3.4-0.7,5.3-1.4l0.7,1.1l3.2-1.5c4.6-1.2,8.2,2.3,14,0.2l-0.8-0.7c2.1,0,6.7-0.8,6.4,0.1
						c0.2-0.1,0.6-0.8,1.5-0.5l0.1,0.6l5.1-1.3c4,0.2-0.5,2.4,5.4,2.2c2.2-0.3,6.1-2,5.3-2.4c-0.9,0-2.3-0.2-2.4-0.8l2-0.4
						c0.3-1.8,1.7-3.6-3.2-4.5l-3.4,1.2l-1.1-0.8l2.9-0.2c-1.7-0.7-2.7,0.1-3.8,0.6c-0.3-0.4-0.8-0.7-1.5-0.9l-3.3,1.8
						c-0.4-0.6,1.4-1.4-0.8-1.7c-1.5,0.9,1.6,1.4-1,2.1c-1.7-0.7-1.2-1.4-3.1-0.6c-0.3-0.4,0.1-0.7,0.9-1c-1.7,0.6-4.5,0.5-5.3,1.4
						c-1.8-0.9-5.8,0.6-5.7-1.1c-0.5,0.4-2.9,1.4-4.5,1.6c2.8-2.1-5.9,0.2-5.2-1.9c-2,1.9-7.6,1.2-11.3,2.4c0.2-0.1,0.6-0.5,0.9-0.4
						c-2.1,0-2.8-0.5-4.1-0.8c-0.2,1.5-3.5,2-5.2,3c-2.7-1.3,1.5-1.8,0.6-3.1c0.2,1.2-4.4,1.4-3.5,2.4c-2-0.8-1.7-0.3-2.8-1.5
						c-0.2,1.8-1.8,0.4-3.4,1.6c-2.9-0.7-0.8-1.7-3.9-0.9C198.4,211.6,201.1,210.9,201.1,210.9z M126.4,218
						C126.4,218,126.4,217.9,126.4,218c0.6-0.1,1.2-0.1,1.5-0.2C127.7,217.8,127.2,217.9,126.4,218z M120.2,218.3
						c0.8,0,1.7,0,2.7-0.1c0.2,0.4,0,0.7-0.6,0.8C122.6,218.7,121.1,218.6,120.2,218.3z M133.9,224.8c-1,0.2-1.3,0-1.5-0.2
						c0.5,0,1-0.1,1.7-0.2c0,0,0.1-0.1,0.1-0.1C134.1,224.5,134,224.7,133.9,224.8z"/>
					<path className="st1" d="M135.6,223.4c0.1,0,0.2-0.1,0.4-0.1c-0.2-0.1-0.4-0.1-0.6-0.2c-0.1,0.1-0.2,0.2-0.3,0.4
						C135.2,223.4,135.4,223.4,135.6,223.4z"/>
					<path className="st1" d="M266.2,87.9l0-0.1c0,0.1-0.1,0.2-0.1,0.3C266.1,87.9,266.2,87.9,266.2,87.9z"/>
					<polygon className="st1" points="66.8,193.6 66.5,193.7 66.8,194.2 					"/>
					<path className="st1" d="M264.5,122.7c-0.1,0.1-0.2,0.2-0.2,0.5C264.3,123.2,264.4,122.9,264.5,122.7z"/>
					<path className="st1" d="M265,137.7l-0.3,2.1C264.9,138.9,265,138.2,265,137.7z"/>
					<path className="st1" d="M265.1,149.2c0.2,0.1,0.3,0.2,0.5,0.2l0,0L265.1,149.2z"/>
					<path className="st1" d="M221.5,11.2c-0.1,0-0.3,0-0.4,0.1C220,11.5,220.7,11.4,221.5,11.2z"/>
					<path className="st1" d="M259.5,20.6c-0.2-0.6-0.4-1.1-0.6-1.7C258.9,19.9,258.9,20.6,259.5,20.6z"/>
					<path className="st1" d="M160.7,15.6C160.8,15.6,160.7,15.6,160.7,15.6c-0.1,0-0.2,0-0.4,0H160.7z"/>
					<path className="st1" d="M258.8,16.4c-0.2,1-0.1,1.8,0.1,2.5C259,18.1,259,17.2,258.8,16.4z"/>
					<path className="st1" d="M267.3,199.1l0,0.6c0.1,0,0.1,0,0.2,0.1L267.3,199.1z"/>
					<path className="st1" d="M267.5,199.7l0.2,0.6C267.6,200.1,267.6,199.8,267.5,199.7z"/>
					<path className="st1" d="M268,201.6l-0.3-1.3C267.6,200.8,267.6,201.3,268,201.6z"/>
					<path className="st1" d="M267,183.9l-0.4-0.1C266.7,183.8,266.8,183.9,267,183.9z"/>
					<path className="st1" d="M266.6,179.2c0,1.1-0.7,2.8-0.3,4.3l0.3,0.1C266,183,267.3,180.2,266.6,179.2z"/>
					<path className="st1" d="M270.3,159.7l-0.1,3.9c0.4-0.7,0.9-1.6,1,0.1C272.2,158.7,270.4,164.8,270.3,159.7z"/>
					<path className="st1" d="M270.2,147.6c0.3,2.1,0.6-0.1,0.8,0C270.6,146.3,270.5,146,270.2,147.6z"/>
					<path className="st1" d="M265.6,60.7l1,0.2C266.3,59.2,266.2,60.8,265.6,60.7z"/>
					<polygon className="st1" points="259.8,44.3 259.3,45.9 260.2,46.6 					"/>
					<polygon className="st1" points="266,34.2 266.2,34.8 265.7,32.2 					"/>
					<path className="st1" d="M143.3,7.4l0.6,1.1C145,8.3,145.1,6.9,143.3,7.4z"/>
					<path className="st1" d="M80.4,11.9c-0.7-0.6-2.5-0.8-3.6-0.2C78.2,11.8,79.7,12.1,80.4,11.9z"/>
					<polygon className="st1" points="56.5,177.4 56.1,176.2 56.5,178.6 					"/>
				</g>
			</g>
		</g>
	</g>
</g>

<text transform="matrix(1 0 0 1 135.4709 130.6123)" className="st3 st4 st5">B1</text>
</svg>
