<?xml version="1.0" encoding="utf-8"?>
<!-- Generator: Adobe Illustrator 24.3.0, SVG Export Plug-In . SVG Version: 6.00 Build 0)  -->
<svg version="1.1" id="Layer_1" xmlns="http://www.w3.org/2000/svg" xmlns:xlink="http://www.w3.org/1999/xlink" x="0px" y="0px"
	 viewBox="0 0 320 240" style="enable-background:new 0 0 320 240;" xml:space="preserve">
<style type="text/css">
	.st0{fill:#FCA311;}
	.st1{fill:#FFFFFF;}
	.st2{fill:#F28482;}
	.st3{fill:#1D3557;}
	.st4{font-family:'ArialRoundedMTBold';}
	.st5{font-size:57.2411px;}
</style>
<g>
	
		<rect x="51.6" y="1.4" transform="matrix(5.489955e-02 -0.9985 0.9985 5.489955e-02 30.8578 265.5558)" className="st0" width="208.3" height="230.3"/>
	<g>
		<g>
			<g>
				<g>
					<path className="st1" d="M262.9,226.7c0.2,0.5,0.9,0.2,0.8-1l-1-1L262.9,226.7z"/>
					<path className="st1" d="M265.2,218.2c-0.4-1.5-1.2-3.3-2.2-2.4c0.9,1.5,0.5,1.9,1.5,3.5c0,1.3-0.5,2.2-0.8,2
						c0.2,0.5-0.3,2,0.3,2.7c0.9-1.6,1-3.7,0.5-5.9C264.8,217.6,265.1,218.1,265.2,218.2z"/>
					<path className="st1" d="M273.7,94.1l-0.2,0.8C273.6,94.7,273.6,94.4,273.7,94.1z"/>
					<path className="st1" d="M276.1,16.8c0.8,0,1.3-0.1,1.4-0.1C276.6,16.7,276,16.7,276.1,16.8z"/>
					<path className="st1" d="M261.7,14.9c0.3,0,0.5,0.1,0.8,0.1C262.2,14.9,261.9,14.8,261.7,14.9z"/>
					<path className="st1" d="M273.7,94.1l0.4-2C273.8,91.9,273.8,93.1,273.7,94.1z"/>
					<path className="st1" d="M263.7,201c0,0.4,0.1,0.8,0.2,1.1c0-0.4,0-0.7,0-1.1C263.8,201,263.8,201,263.7,201z"/>
					<path className="st1" d="M272.6,128.1l0,0.6c0.1,0.2,0.2,0.4,0.4,0.5L272.6,128.1z"/>
					<path className="st1" d="M271.4,154.1c0.1-0.6-0.8-0.8-1.1-1.1c0.3,0.4,0.5,0.8,0.5,1.3C270.9,154.4,271.1,154.3,271.4,154.1z"/>
					<path className="st1" d="M267.6,195.3l0.1,0.7C267.6,195.9,267.6,195.6,267.6,195.3z"/>
					<path className="st1" d="M273.9,109.5c0.1,0,0.2-0.1,0.3-0.2C274.1,109.2,274,109.3,273.9,109.5z"/>
					<path className="st1" d="M235,221.1c0,0.1,0,0.1,0,0.1C235.1,221.1,235.2,221.1,235,221.1z"/>
					<path className="st1" d="M264.9,227l-0.4,0c0,0.2-0.1,0.3-0.1,0.5L264.9,227z"/>
					<path className="st1" d="M237.7,12.4c0.1,0,0.1,0,0.1,0C238.5,12.4,238.1,12.4,237.7,12.4z"/>
					<path className="st1" d="M41.2,35.7c0.9-2.5,0.8,4.1,1.8,0.4C42.7,36.4,41.9,32.6,41.2,35.7z"/>
					<path className="st1" d="M263.9,200.3c0-0.4,0-0.7,0-1.1C263.9,199.7,263.9,200.1,263.9,200.3z"/>
					<path className="st1" d="M43.1,36.1L43.1,36.1l0.1-0.4C43.2,35.9,43.1,36,43.1,36.1z"/>
					<path className="st1" d="M182.3,9.9c0.1,0.2,0.3,0.3,0.5,0.4C182.8,10.2,182.7,10.1,182.3,9.9z"/>
					<path className="st1" d="M223.5,13.4l-1-0.2C222.9,13.3,223.2,13.4,223.5,13.4z"/>
					<path className="st1" d="M160.8,9.9c-0.6-0.1-0.7-0.2-1.5-0.1c0.1,0.1,0.1,0.1,0.2,0.1C159.8,9.8,160.2,9.8,160.8,9.9z"/>
					<path className="st1" d="M138.5,8.7c0.1,0.1,0.3,0.1,0.4,0.2c0.2,0,0.5,0,0.7,0L138.5,8.7z"/>
					<path className="st1" d="M167.2,217.8c0.5,0.3,0.8,0.6,1,0.8C167.9,217.9,171.1,217.9,167.2,217.8z"/>
					<path className="st1" d="M264.2,201c-0.2-0.1-0.3-0.3-0.3-0.7c0,0.3,0,0.5,0,0.7C264,201.1,264.1,201.1,264.2,201z"/>
					<path className="st1" d="M159.5,16.8l-3.5-0.3C156.9,16.6,158.2,16.7,159.5,16.8z"/>
					<path className="st1" d="M40.1,186.3l0.1,0.8C40.2,186.8,40.2,186.5,40.1,186.3z"/>
					<path className="st1" d="M145.4,16c-0.6-0.3-1.3-0.6-2-0.7c-0.1,0.1-0.3,0.1-0.4,0.2L145.4,16z"/>
					<path className="st1" d="M168.2,218.6C168.2,218.6,168.2,218.6,168.2,218.6C168.2,218.6,168.2,218.6,168.2,218.6z"/>
					<path className="st1" d="M191.6,217.8c-3.4-0.2-1.6,1-2.4,1.6c-4.1,0.1-1.8-0.9-3.2-1.6c-2.5,0.2-4.5,1.1-6.4,1
						c-0.1-0.2-0.5-0.3-0.1-0.5c-2.7,0.8-7.9-0.4-11.1,0.6c-0.2-0.1-0.3-0.2-0.4-0.3c0.5,0.6,0.5,1.2,0.4,1.6
						c-1.5-0.1-2.9,0.6-3.4-0.2c0.9,0.1,1-0.2,1.5-0.4l-1.6,0.2c-1.4-1.1,2.2-0.2,2.2-1c-3.1,0.2-6.8,0.9-9.1,0.4
						c-0.4-1.1,5.6-0.1,2.4-1.1l3.6,0.6c-2.7-1.8,2.2,0.2-0.3-1.7c-4.8-0.6-5.4,0.2-10.2-0.3c-1.1,0.5,0.3,0.9-0.8,1.4
						c-6.9,0.7-5.2-2.9-10.4-1.8c-1.3,0.6-1.9,1.9-5.5,1l1.3-1.1c-4.7-0.4-2.8,1.6-7.6,0.5c0.9-0.4,3.7-0.2,3-0.4
						c-3.1-1.1-2.3,0.6-4.7,0.4l-0.4-1.1c-5-0.1-10.5,0.4-16,0.2c0.3-0.3,1.3-0.6,0-1c-7,0.1-14.8-0.9-21.5-1.9l-2.6,0.8
						c-0.6,0-1.1-0.5-0.4-0.6c-2.6-0.5-0.2,0.6-1.4,0.9c-1.5,0-1.9-0.6-1-0.9c-4.7,0.5-13.2,0.9-18-0.3l1-0.2
						c-3.8-0.6-4.4,1.6-7.8,0.6l0.7-0.1c-4.1-0.4-8.4-0.6-12.5-0.8c-2-0.1-4-0.3-5.9-0.5c-0.9-0.1-1.8-0.2-2.7-0.4
						c-0.1,0-0.3,0-0.3-0.1l-0.1-0.1c-0.1,0-0.1-0.1-0.2-0.1c-0.1-0.1-0.2-0.2-0.3-0.2c-0.3,0.4-0.9,0.5-1.3,0.4
						c0-0.5,0.2-1.1,0.2-1.5c0-0.1,0-0.2,0-0.3c0-0.1-0.1-0.1-0.1-0.4c-0.1-0.4-0.3-0.7-0.6-0.8c1.2-4.6,1.4-3.3,2.4-9.8
						c0.2-1.8-1-2.7-1.1-4.9h1l-0.8-3l1.2-1.5l-0.1-2.1c-0.1,0.8-0.5,1.7-0.8,1.6c-0.3-3.2,1.1-7.8,1.6-7.8l-0.4-7.6
						c0.4,0.2,0.4,1.5,0.6,2.5c-0.8-4.1,1-0.7,0.4-4.4c-0.2,0.5-0.5-0.3-0.7-0.4c0.7-1.8,0.9-6,0.8-9.1l0.6,0.6
						c0.5-5.6,0.3-11.8,0.7-18.1c-0.4,2.2-1.5,1.7-1.5-0.2l1-0.7c-0.6-1.2-0.5,1.9-1.1-0.6c0.2-2.3,1.2-1.5,1.5-0.1l-0.2-2.9
						c0.3-0.1,0.4,0.5,0.8,0.7c-0.6-1.2,1.3-4.9,0.3-6.6l0.3-0.1c0.3-6.3,0.2-9.2,0.4-14.3c-0.9-0.2-0.6-2.1-1.2-3.7
						c0.5-3.8,1.4-7.9,1.6-12.4c-0.3-3.2-0.7-1-1.1-2.4c0.8-0.2,1-4.7,1.4-2.3c0.2-5.4,0.2-7,0-13.9c-0.4,0.7-0.5,1.6-0.8,1.1
						c-0.1-1.3,0.5-2.8,0.9-2.6l0.1,0.3c-0.8-7.8,3.3-17.7,2-24l0.1,0.3l-0.5-6.4c0.3-2.9,0.5,1.8,1.1-0.3c-0.9-7,0.8-10.9,0.2-16.6
						c2.6-4.3,0.7-15.6,2.5-21.4L50,15.5c-0.5-1.6,0.4-1.8,0.6-2.9c-0.4,0.1-0.6,1.6-0.8,0.7c0-0.6,0-1.1,0-1.7c0-0.2,0-0.2,0-0.2
						l0-0.1l0-0.2c0-0.3,0-0.7,0-1c0.4,0,0.8,0.1,1.2,0.1l0.2,0l0.1,0l0.2,0l1,0.1l2.1,0.2c2.8,0.3,5.5,0.6,8.3,0.9
						c5.6,0.6,11.1,1.3,16.6,1.8c4.8,0.4,2.9-2.7,9-1l-1.8,0.9c9.9-0.7,20.1,1.1,29.7,0.6c-0.6,0.2-0.6,0.5-1.6,0.4
						c2,0.9,7.5,0.4,7.6-0.1c1.5,0.1,0.3,0.6,1.2,0.9c2,0.6,5.2-0.7,6.2,0.1c0.2,0.1-0.6,0.2-1,0.2c1.4-0.3,6.2,0.4,4.9-0.5
						c3.6,0.6,6.9,0,9.8,0.7c1.9-0.9,6.1,0.8,6.8-0.5c-0.3,1.4,6.3,1.5,8.6,0.9c-0.8,0.4,2,0.6,1,1.1c2.6,0.1,5,0,4.6-0.8
						c4.7,1.9,9.7-0.8,12.3,1.5c7.8-0.3,14.9-0.4,21.9-0.4c-0.3,1.4-7.7-0.3-7.5,1.2c6.6-0.2,10.5-1.2,17-0.5c1.7,0.3-1,0.5-1.6,0.8
						c6.6-0.2,12.7,0.8,18.6,0.4c0,0.1-0.7,0.2-1.3,0.3c1.2,0,2.7,0.4,2.6-0.3l-1.1,0.1c-1.8-1,4.7-1.7,4.9-2.1
						c-2.1,1.7,5.8,0.8,2.5,2.9c0.8-0.1,1.7-0.3,1.6-0.8c1.1,0.2,1.5,0.5,0.3,0.9c4.2-0.1,2.7-0.9,6.5-0.6c0,0.3-0.8,0.4-1.2,0.7
						c1.9-0.5,3.9-1,7-0.5c-0.2,0.2,0.1,0.4-0.8,0.4c5.4,0.2,9.4-1.1,15.3-0.2c-1.8,1.2,2,0.5,2.3,1.7l3.2-0.2l-1.3-0.6
						c1.4,0.1,2.7,0,4-0.1c0.3,0,0.6,0,1-0.1c0.3,0,0.5,0,0.8,0c0.4,0,0.8,0,1.1,0.1c-0.5,0.1-1,0.3-1.3,0.4l2.7,0l0,0.2l0.1-0.3
						c-0.4-0.1-0.8-0.3-1.2-0.4c1-0.2,1.4-0.5,1.6-0.8c0.2-0.2,0.4-0.4,1.3-0.3c0,0.2-0.1,0.5-0.1,0.9c-0.1-0.6-0.2,2.6-0.9,3.7v0
						c0.3,1.4,0.6,2.9,0.2,4.9c-0.4,0.5-1.2-0.5-1.5-0.2c0.9,1.4-0.1,6.6,0.8,8.4c-0.2-0.6-0.8-0.7-1-0.5l0.7,1.2
						c-0.3,1.3-0.5,1.5-0.9,1.2c-0.4,3.9,1.5-1.2,0.6,3.5c0-0.4-0.2-0.2-0.2-1c-0.6,4.7,0,9-0.6,13.3c-1.2,1.2-0.1-3.8-1.1-2.4
						c-0.1,6.2,0.7,12.9,0.1,18.9l0.2-1.1c1.6,0.9-1,4.4-0.5,7.5c-0.1-0.8-0.9-1-0.7-0.8c-0.5,4.1-0.1,8.4,0.1,14.6l-0.4-0.8
						c-0.5,2.4-0.6,6.3-0.9,8.9c0.4,0.8,0.2,2.3,0.9,1.4c-2.8,7.9,0.4,15.4-2,22.4c0-0.8-0.3-2.1-0.3-1.4l0,6.1
						c0.7-0.4,0.5-0.8,1.1-2c0.4,0.8,0.6,2.5,0.5,4c-0.3-2.8-1.1,0-1.6,1.1c0.2-0.2,0.5,0.2,0.7,0.1c-1.4,3.1,1.4,0.6,0.3,4.9
						l-0.4-0.2c0.1,1.6,0.5,3.2,0.3,4.9c-0.9,0.7-0.3-1.8-1-1.9c-0.1,2.5,1.3,4.9,0.4,7.1c-0.2-1.1-0.1-2.6-0.3-3.6
						c-1.1,2.4-0.9,2.7-1.1,4.5l0-0.2l-0.7,4.1l0.3-1.1c2,3.2,0,6.3,1.2,10.5c-1.1-4.1-0.7-0.7-1.6-1.1c-0.3,1-0.7,2.6-0.9,2.2
						c0.6,2-0.8,3.2,0.2,6.1c-0.3,0.1-0.1,2.1-0.9,1.6c0.1,2.6,0.6-0.6,0.9-0.3c0.8,4-1.8,9.2-0.6,14.9c0.3,4.9,1.3,5.9,1.5,10.4
						c-0.6,1.5-1-1.3-1-1.3c-0.6,2.4-0.6,4.3-0.4,6.6c-0.2-0.5-0.5,0-0.9,0.7c0,1.9,1,1.3,0.5,3.7c-0.3-0.4-0.8-1-1.1-1.9
						c0.2,2.2,0.6,4.4,0.8,6.7c-0.6,0.6-0.7-1.4-1-2.2c0.1,2.6,0.1,6.6,0.9,7.5l0.4-1.6c0,0.9-0.7,0.4-0.9-0.3
						c-0.5-2.2,0.5-3.1,0.8-3.2l0.1,1.6c1.9-1.6,0.1-6.5,0.4-9.8l1.2,1.4l-0.9-3.4c0.4-0.7,1.1-1.1,1.2,0.5c0.8-2.3-0.3-2.1,0.5-4.1
						c0.1-0.2,0.2-0.1,0.2,0.1l-0.3-2.3c0.2,0.5,0.9-0.3,0.7,1.1c1-4.1-0.6-6.6,0.5-8.1l0.1,0.4c-0.1-5.7-0.9-0.6-1.8-4.9l2.5-2.7
						l-0.9-0.6c0.1-0.6,0.2-1.7,0.6-1.5c-0.5-2.2-0.4,0.4-1-0.9c1-2.8,0-7.8,1.6-8.4c-0.7-1.1-0.7,2.7-1-0.4c1.7-0.8-0.1-3.5,0.8-6
						c0.8,0.8,0.2,3.2,1.1,0.7c-1.3-1.6,0.6-5,0.4-7.2c-1.1-0.2-0.2-4.8-0.4-8.4c0.4,0.2,1-6.8,1.6-10.2l0.2,0.1
						c-1.1-0.7-0.7-4.2-0.8-6.8c0.7,0.1,0.9,0.6,1.1,2l0.1-2.4c-0.3-0.6-0.5-1.3-0.5-2.9l0.8,0.7c0.1-3.2-0.6-6.5,0.1-10.5
						c-0.8-0.3-2.4,3.1-2.7-1.2c0.4-0.1,1.2-0.3,1.3,0.9c0-0.4-0.3-1.3-0.1-2.1l0.6,1.8c0.4-1.8-0.5-1-0.4-2.5
						c0.6,0.1,0.5-1.1,1-0.8c0,0.4-0.3,1.3-0.1,1.9c0.2-1.7,0.7-3.7,1.2-4.3c-0.4,0.1-0.8-0.1-0.8-1.3c0.1-3.2,0.8-1.1,1.2-2.9
						c-0.4-0.8,0.2-2.8-0.7-2.9c0.1-0.9,0.5-1.1,0.8-1.4c-0.3-1.7,0.3-7.7-0.8-5.9l-0.1,0.4c0-0.1,0-0.2,0-0.3c0,0,0,0,0,0v0
						c-0.6-5.4,1.1-11.2,1-16.6l0.3,0c-0.2-3.2,0.2-7.1-0.3-9.5c0-0.9,0.7-2.2,1-1.8c-0.1-2.5-0.4-2.8,0.3-6.3
						c0.4,2.5,0.5-0.8,0.2,2.5c0.4-3.2,1-3.9,0.3-7.3c0.7,1.2,1.1-2.3,1-3.9l-0.7,2.2c0-1.7,0.1-3.2,0.3-4.7l1,0.9
						c1.6-6.4-1.5-11.9,0.9-16.7c-0.6-1.8-0.7,3.5-1.5,1.9c0.3-3,2-6,2-7c0.4-2,0.1-3-0.3-4c-0.1-0.2-0.2-0.5-0.2-0.8
						c0-0.1-0.1-0.3-0.1-0.4c0-0.2,0-0.4-0.1-0.7c-0.1-1-0.1-2,0.1-3.6c-0.2,0.5-0.6,1-0.9,0.9c-0.3-0.1-0.6-0.7-0.7-2.3
						c0,0-0.1,0-0.1,0c-1.6-0.1-2.4-0.6-2.6-1c-0.2-0.4,0.4-0.8,1.9-0.9c1.1,0,1.5,0.2,1.4,0.3c0.5,0,1,0,1.4-0.1
						c0.1,0.8,0.2,1.4,0.6-0.2l-0.2-0.1l-0.5,0.1c-1.8-0.5-8.5-0.8-6.9-1.3c-0.1,0-0.2,0-0.3,0c-0.1,0-0.1,0-0.2,0
						c-0.1,0-0.2,0-0.3,0.1c-0.2,0-0.3,0.1-0.4,0.1c-0.2,0.1-0.2,0.1,0,0.2c0.1,0.1,0.4,0.1,0.7,0.2c0.1,0,0.2,0,0.2,0.1
						c0.1,0,0.3,0,0.4,0.1c0.3,0,0.6,0.1,0.9,0.1c-0.6-0.1-1.2-0.2-1.8-0.2c-0.4-0.1-0.9-0.1-1.2-0.1c-0.8-0.1-1.6-0.1-2.3-0.1
						c-1.5-0.1-3-0.1-5-0.4c0.6,0.2,1.2,0.7,0.5,0.7c-5.8-0.8-2.6,0.5-6.5,0.5c-2.2-0.7,0.9-1.3-3.1-1c-2.4-0.5-0.5-1,0.5-1.2
						c-3.6,0.5-6.7-0.8-8.8-1.1l1.9-0.2c-1.1,0.1-2.1,0.1-3,0l1,0.8c-1.1-0.2-2.1-0.2-2-0.6c-1.2,0.4,0.8,1.3-1.5,1.8
						c-1.5-0.4-4.6,0.1-5-0.9c4.7,0.6-0.5-1,3.5-0.9c-0.8,0.1-1.7,0-2.8-0.2c-0.2-0.1,0.2-0.2,0.5-0.2c-4.4-1.1-2.1,1-6.8,0.7
						c0.6-0.5-1-1.1-1.8-1c1.9,0.1,0.8,1-0.9,1.3c-2.9-0.6-3.2,0.1-4.8,0l1.8,0.3c-0.6,0.5-2.1,0.4-4.2,0.4
						c-0.1-0.4,1.9-0.2,1.2-0.4c-2.4,0.8-5.1-1.3-8.4-0.8c-1.5-0.4-0.1-1-1.4-1.4c-3.6,0.5-3.9-1-7.7-0.6c1.1,0.8,1.2,0.6-1.4,1.2
						l6.2-0.2l-4.1,0.9c1.9,0.1,4-0.2,5.1-0.1c-1.9,0.5-1.7,0.3-0.9,1c-2.5-1.2-5.1,0.4-8.1-0.5l0.2-1.8c-4.4-1.1-8,0.5-13.7-0.3
						l1.8,0.4c-0.8,0.7-3.6-0.1-5.5,0.1c0.2-0.6-0.9-0.9-1.7-1.3c0.1,0.5-4.2-0.3-4.8,0.9l-2.5-0.9c-4.7-0.6-5.4,1.4-9.9,1
						c1.4-0.6-0.6-1.1,2.4-1.4c-1.5-0.1-2.8-0.3-2.9,0.1c-0.9-0.4-4.2,0.6-5.6-0.1c-0.6,0.2-0.9,0.9-2.6,0.7c-0.2-0.1,0-0.3,0-0.3
						c0,0.3-2.7,0.3-1.2,1c-4.5-2.2-12.9-0.6-16.9-2.4c-3.3,0-7.2,0-10.2-0.1c0.2-0.2,0-0.3,0.6-0.2c-4.1-0.8-2.6,1.6-7.2,0.7
						c-2.3-1.1,2.5-0.4,1-0.9c-0.5-2-5.7,0-8.7-1.4L115,7c-2.4-0.8-5.9,0.4-9.8,0.1c0,0,0.2-0.2,0-0.3c-2.7,0.9-7.8,0.9-11.6,1
						c1.2-0.7,1.7-0.3,1.1-1.2c-1.6,0,0.5,1.3-2.9,1.4c-1.1-0.5-3.5-1-3.8-1.9l3.2,0.1c-1.6-1.2-4.1-0.2-5.8-0.5l0.2-0.5
						c-4.9-0.1-5,1.1-10.3,0.7l0.5,0.4c-2.9,1-2.4-0.8-5.3-0.1l-0.8-1.3C67.9,5.3,63.2,5.9,59.8,6c2-0.8,6-1,8.5-1.4
						c-1.9-0.1-6.4-0.3-7.4,0.3c0.8-0.1,1.7-0.3,2.5-0.1c-2.3,0.8-5.4,1.1-9.1,0.9c0.3-0.8-0.7-1.1-2.2-1.4c-0.3-0.1-1-0.1-1.6-0.2
						c-0.6-0.1-1.3-0.1-2-0.2c-1.4-0.1-2.9-0.2-4.3-0.3c-0.2,2.9-0.6,5.6-1.3,7.1c0,0.4,0,0.5,0,0.8l0,0.6l0,1.2
						c0,0.8,0,1.7-0.1,2.5c-0.1,1.7-0.2,3.3-0.4,5c-0.4,3.4-0.8,6.9-1,10.8c2-2.6-0.1,2.2,1.8,1.9c0,1.8,0,2.5-0.2,2.6l-1.4,5.4
						c-0.6,1.3-0.3-1.7-0.8-1.6c-0.4,3.9-0.9,1.6-1.5,4.2c0.7-0.5,0.9,1.4,0.5,3.6l1-3.1c0.7,5.5-1.8,4.7-1.2,10.2L39.3,53
						c0.2,2.9-0.6,10.5,0.8,13.3c-0.2,0.5-0.8,1.1-0.9-0.1C38.6,73,40,81.4,38.7,86.6l-0.4-0.5c0.1,1.3,0.8,2.2,0.2,3.8
						c-0.2-0.1-0.4-0.5-0.5,0.1c0.1,0.7,0.6,3.4,0.3,5.1l-0.4-1.5c-1,6.6,0.7,10.2,0.7,15.8c-1.4-0.1-2.1,5.1-2.5,7.7l-0.2-0.1
						c-0.6,7.7,0.4,13.1,0.5,20.3c-1.7,4.4-1.4,15-2.7,22c0.3-1.1,1,0.2,1.1,1.5c-0.4,1.6,0.7,4.7-0.5,4.3l0.1-0.6
						c-1.3,1.2-1.2,4.6-1.3,7.3l1.6,0.5c-2.8,6.9-0.1,18.4-2.5,22.1c0.3,1.7,0.2,3.8,0.5,5.5l-0.9-0.1c-0.2,2.3-0.4,4.1-0.5,6
						c-0.1,0.9-0.1,1.9-0.2,3c-0.1,2-0.2,4.2-0.3,6.8c-0.2-0.6-0.4-1.2-0.5-1.9c-0.1,1.9,0,3.3,0.3,4.2c1.8-0.3,3.3-0.7,4.7-1
						c1.4-0.3,2.6-0.6,4.1-0.5c0.5,0.5,0.7,0.9,1,1.4c5.7,0.3,11.4,1.8,17.1,0.9c-0.1,0.2-0.3,0.6-1.2,0.6c2.7,0.2,10.3,1.4,9.4-0.4
						c0,1.2,5.9,0.4,9,0.1l-0.5,0.8c2.7-1,2.8-1.2,6.4-1.4c0.8,0.2,0.7,0.7-0.4,0.4c2.8,0.6,2.3-0.7,5.7,0l-1.3,0.5
						c2.9,0.2,2.7-0.1,4.4-0.6c1.9-0.2,5.6,0.5,6,1.3c0.4-0.4,2.1-1,3.8-0.7c0.2,0.3-0.4,0.4-0.8,0.5c4.9,0.9,7.4-0.6,10.7,0.4
						c0.1,0.3,0.3,0.4,0.5,0.5c-3.9-0.2-7.1-0.5-6.8-0.5c0,0.8,3.1,1.1,0.5,2.1c2.6-0.5,7-1.5,10.1-1c0.2,0.1,0.3,0.2,0.4,0.3
						l-0.3,0.1c0.7,0.1,1.3,0.1,2,0c1,0.2,1.6,0.3,2.5,0.4c0.3,0.7,3.6,0.6,5.2,0.7c-0.1-0.9,2-0.6,0.1-1.4c0.2,0.1-0.3,0.1-1.3,0.1
						c-0.2,0-0.5,0-0.7,0.1c0,0,0.1,0,0.1-0.1c-1,0-2.4-0.1-3.9-0.2c1.3-0.4,2.6-0.7,4.3-0.1c0.8-0.5,1.8-1,2.3-1.3
						c2.1,1.3,6.2,2.2,6.8,3c4.8-0.2,11.4,0.3,14.5-1.2c1.4-0.1,1.6,0.6,2.1,0.8c-0.8,0.1-1.7,0-2.2,0.2c2.8-0.3,8.1,0.3,8.8-0.8
						c3.4,0.7-2,0.9,2.8,1l-0.7,0.3c9.2,2.3,15.3-2.1,25.5,0.8c-0.7-0.2-1.1-0.3-1.2-0.5c11.7,1.7,24.4,0.4,35.9,2.6
						c3.3,0.5,3.7-0.2,5.7-0.6l0.7,1l3.5-0.9c4.9-0.5,8.4,2.8,14.6,1.6l-0.8-0.7c2.2,0.2,7.1,0,6.7,0.7c0.2-0.1,0.8-0.6,1.6-0.2
						l0,0.5l5.5-0.5c4.2,0.6-0.8,1.9,5.4,2.3c2.3-0.1,6.6-1.1,5.8-1.4c-0.9-0.1-2.4-0.4-2.4-0.9l2.1-0.1c0.5-1.4,2.2-2.8-3-4.1
						l-3.6,0.7l-1.1-0.8l3,0.1c-1.7-0.8-2.8-0.2-4,0.1c-0.3-0.4-0.8-0.7-1.5-0.9l-3.6,1.2c-0.4-0.6,1.6-1-0.7-1.5
						c-1.7,0.6,1.5,1.4-1.2,1.6c-1.7-0.8-1.1-1.2-3.2-0.8c-0.3-0.4,0.2-0.6,1-0.7c-1.8,0.4-4.8-0.1-5.7,0.6
						c-1.8-0.9-6.1-0.1-5.8-1.5c-0.6,0.3-3.2,0.9-4.9,0.9c3.1-1.5-6.2-0.4-5.3-2.1c-2.3,1.3-8.1,0.2-12.1,0.8c0.2-0.1,0.7-0.3,1-0.2
						c-2.2-0.2-2.8-0.7-4.3-1.1c-0.4,1.2-3.8,1.3-5.7,1.9c-2.7-1.3,1.7-1.3,0.9-2.5c0.1,1-4.8,0.7-3.9,1.6c-2.1-0.8-1.8-0.4-2.8-1.5
						c-0.4,1.5-2,0.1-3.7,1c-3-0.9-0.7-1.5-4-1.2C188.6,218.2,191.6,217.8,191.6,217.8z M112.6,216.1
						C112.6,216.1,112.6,216.1,112.6,216.1c0.7,0,1.3,0,1.6,0C113.9,216.1,113.4,216.1,112.6,216.1z M106,215.8
						c0.8,0.1,1.8,0.1,2.9,0.2c0.2,0.3-0.1,0.6-0.7,0.6C108.5,216.3,107,216.1,106,215.8z M119.7,222.5c-1.1,0.1-1.4-0.1-1.5-0.3
						c0.5,0,1.1,0,1.8,0c0,0,0.1-0.1,0.1-0.1C120,222.3,119.9,222.4,119.7,222.5z"/>
					<path className="st1" d="M121.6,221.5c0.2,0,0.2,0,0.4,0c-0.2-0.1-0.4-0.2-0.6-0.2c-0.1,0.1-0.3,0.2-0.4,0.2
						C121.2,221.5,121.4,221.5,121.6,221.5z"/>
					<path className="st1" d="M273.5,95.1l0-0.1c0,0.1-0.1,0.2-0.1,0.3C273.4,95.1,273.4,95.1,273.5,95.1z"/>
					<polygon className="st1" points="40.1,193.7 39.9,193.7 40.1,194.3 					"/>
					<path className="st1" d="M268.5,131.4c-0.1,0.1-0.2,0.2-0.2,0.5C268.3,131.8,268.4,131.6,268.5,131.4z"/>
					<path className="st1" d="M267.4,147.1l-0.4,2.2C267.2,148.4,267.4,147.7,267.4,147.1z"/>
					<path className="st1" d="M266.3,159.2c0.1,0.2,0.3,0.2,0.4,0.3l0,0L266.3,159.2z"/>
					<path className="st1" d="M224,19.3c-0.2,0-0.3,0-0.5,0C222.4,19.4,223.2,19.4,224,19.3z"/>
					<path className="st1" d="M274.8,23.9c-0.1-0.6-0.3-0.9-0.3-1.3C274.3,23.3,274.3,23.8,274.8,23.9z"/>
					<path className="st1" d="M159.9,16.8C159.9,16.8,159.9,16.8,159.9,16.8c-0.1,0-0.2,0-0.4,0L159.9,16.8z"/>
					<path className="st1" d="M274.6,20.9c-0.2,0.8-0.2,1.3-0.1,1.8C274.5,22,274.7,21.3,274.6,20.9z"/>
					<path className="st1" d="M263,211.8l-0.1,0.6c0.1,0,0.1,0,0.1,0.1L263,211.8z"/>
					<path className="st1" d="M263.1,212.4l0.1,0.6C263.2,212.8,263.2,212.5,263.1,212.4z"/>
					<path className="st1" d="M263.3,214.5l-0.1-1.4C263.2,213.6,263.1,214.1,263.3,214.5z"/>
					<path className="st1" d="M264.3,195.8l-0.3-0.2C264.1,195.6,264.2,195.7,264.3,195.8z"/>
					<path className="st1" d="M264.5,190.9c-0.1,1.2-0.8,2.9-0.7,4.5l0.2,0.2C263.6,194.8,265,192,264.5,190.9z"/>
					<path className="st1" d="M269.5,170.7l-0.5,4.1c0.4-0.7,0.9-1.6,0.9,0.2C271.2,169.9,269.1,176.1,269.5,170.7z"/>
					<path className="st1" d="M270.7,158.1c0,2.2,0.5,0,0.7,0.1C271.1,156.8,271.1,156.5,270.7,158.1z"/>
					<path className="st1" d="M275.7,66.5l0.8,0.3C276.5,65.1,276.2,66.7,275.7,66.5z"/>
					<polygon className="st1" points="272.6,48.8 272,50.4 272.7,51.2 					"/>
					<polygon className="st1" points="278.8,38.7 278.9,39.5 278.8,36.6 					"/>
					<path className="st1" d="M142.5,8.2l0.5,1C144.1,9.1,144.4,8,142.5,8.2z"/>
					<path className="st1" d="M76,5.5c-0.7-0.5-2.6-1-3.7-0.5C73.8,5.2,75.3,5.6,76,5.5z"/>
					<polygon className="st1" points="33.3,175.6 33,174.3 33.2,176.8 					"/>
				</g>
			</g>
		</g>
	</g>
</g>
<g>
	
		<rect x="58" y="16.5" transform="matrix(0.9986 -5.309943e-02 5.309943e-02 0.9986 -6.1749 8.7708)" className="st2" width="208" height="208.3"/>
	<g>
		<g>
			<g>
				<g>
					<path className="st1" d="M268.9,219.2c0.3,0.4,1,0.1,0.9-1.1l-1.3-0.8L268.9,219.2z"/>
					<path className="st1" d="M270.7,210.9c-0.7-1.4-1.8-3-2.9-2c1.2,1.3,0.8,1.7,2.3,3.1c0.2,1.2-0.3,2.1-0.7,1.9
						c0.3,0.4-0.2,1.9,0.6,2.5c0.9-1.6,0.8-3.6-0.1-5.6C270.1,210.4,270.5,210.9,270.7,210.9z"/>
					<path className="st1" d="M266.4,93l-0.1,0.8C266.3,93.5,266.4,93.2,266.4,93z"/>
					<path className="st1" d="M263.2,19.9c0.1,0.5,0.2,0.8,0.3,0.8C263.4,20.2,263.3,19.8,263.2,19.9z"/>
					<path className="st1" d="M258.1,7.5c0.4,0,0.8,0,1.1,0C258.8,7.4,258.4,7.3,258.1,7.5z"/>
					<path className="st1" d="M266.4,93l0.3-2C266.2,90.9,266.4,92,266.4,93z"/>
					<path className="st1" d="M266.9,194.9c0.1,0.4,0.2,0.7,0.4,1c-0.1-0.3-0.1-0.6-0.2-1C267,194.9,267,194.9,266.9,194.9z"/>
					<path className="st1" d="M269.1,125.1l0,0.6c0.1,0.2,0.3,0.3,0.5,0.5L269.1,125.1z"/>
					<path className="st1" d="M270.6,149.8c0-0.6-1-0.7-1.5-0.9c0.5,0.3,0.7,0.7,0.8,1.2C270,150.1,270.3,150,270.6,149.8z"/>
					<path className="st1" d="M270.8,189.1l0.2,0.7C270.9,189.6,270.9,189.3,270.8,189.1z"/>
					<path className="st1" d="M268.4,107.4c0.1-0.1,0.3-0.2,0.4-0.2C268.6,107.2,268.5,107.3,268.4,107.4z"/>
					<path className="st1" d="M242.4,215.7c0,0.1,0,0.1,0,0.2C242.6,215.8,242.6,215.7,242.4,215.7z"/>
					<path className="st1" d="M271.4,219.3l-0.4,0.1c0,0.2-0.1,0.4,0,0.6L271.4,219.3z"/>
					<path className="st1" d="M233.6,7.4c0,0,0.1,0,0.1,0C234.3,7.3,234,7.3,233.6,7.4z"/>
					<path className="st1" d="M49.8,50.6c0.8-2.4,1.4,3.8,2.2,0.2C51.6,51.1,50.2,47.6,49.8,50.6z"/>
					<path className="st1" d="M267,194.2c0-0.3-0.1-0.7-0.1-1C266.9,193.6,266.9,194,267,194.2z"/>
					<path className="st1" d="M52,50.7L52,50.7l0.1-0.4C52.1,50.5,52.1,50.6,52,50.7z"/>
					<path className="st1" d="M181.1,10.8c0.1,0.2,0.3,0.3,0.6,0.4C181.6,11.2,181.5,11,181.1,10.8z"/>
					<path className="st1" d="M220.3,10.2l-1-0.1C219.8,10.2,220.1,10.2,220.3,10.2z"/>
					<path className="st1" d="M160.8,13.4c-0.5-0.1-0.7-0.2-1.4,0c0.1,0.1,0.1,0.1,0.2,0.1C159.9,13.3,160.2,13.2,160.8,13.4z"/>
					<path className="st1" d="M139.7,14.5c0.1,0.1,0.3,0.1,0.4,0.2c0.2,0,0.4-0.1,0.7-0.1L139.7,14.5z"/>
					<path className="st1" d="M178.1,219.6c0.5,0.3,0.8,0.6,1,0.9C178.8,219.8,181.9,219.3,178.1,219.6z"/>
					<path className="st1" d="M267.5,194.8c-0.3-0.1-0.4-0.3-0.5-0.6c0,0.2,0.1,0.5,0.1,0.7C267.2,195,267.4,195,267.5,194.8z"/>
					<path className="st1" d="M160.4,21.6l-3.4,0C158,21.7,159.2,21.7,160.4,21.6z"/>
					<path className="st1" d="M65.9,192.7l0.2,0.8C66.1,193.1,66.1,192.9,65.9,192.7z"/>
					<path className="st1" d="M147.1,22.4c-0.6-0.3-1.3-0.5-1.9-0.6c-0.1,0.1-0.3,0.2-0.4,0.3L147.1,22.4z"/>
					<path className="st1" d="M179.2,220.5C179.1,220.5,179.1,220.5,179.2,220.5C179.1,220.5,179.1,220.5,179.2,220.5z"/>
					<path className="st1" d="M201.2,216.9c-3.2,0.1-1.4,1.4-2.1,2.2c-3.8,0.6-1.8-0.9-3.2-1.6c-2.4,0.5-4.1,1.8-5.9,1.9
						c-0.1-0.2-0.5-0.3-0.1-0.6c-2.5,1.2-7.5,0.4-10.4,2c-0.2-0.1-0.3-0.2-0.4-0.3c0.5,0.7,0.6,1.4,0.6,1.9c-1.4,0.1-2.6,1-3.2,0.1
						c0.9,0,0.9-0.4,1.3-0.7l-1.5,0.5c-1.4-1.2,2-0.6,2-1.5c-2.9,0.6-6.3,1.8-8.6,1.6c-0.5-1.2,5.2-0.7,2.2-1.7l3.5,0.3
						c-2.8-1.8,2.1,0-0.4-2c-4.6-0.1-5.1,0.9-9.7,0.8c-1,0.8,0.4,1-0.6,1.8c-6.4,1.6-5.3-2.9-10-1c-1.2,0.9-1.6,2.5-5,1.9l1.1-1.5
						c-4.4,0.1-2.4,2.2-7.1,1.5c0.8-0.6,3.5-0.7,2.8-0.8c-3.1-1-2.1,0.9-4.4,1l-0.6-1.2c-4.7,0.4-9.9,1.6-15.1,2.1
						c0.3-0.4,1.1-0.8-0.1-1.1c-6.6,1-14.1,0.6-20.5,0.2l-2.4,1.2c-0.6,0-1.1-0.4-0.5-0.7c-2.5-0.3-0.1,0.7-1.3,1.2
						c-1.4,0.1-1.9-0.5-1-0.9c-4.3,1.1-12.4,2.6-17,1.7l0.9-0.4c-3.6-0.2-3.9,2.4-7.3,1.6l0.6-0.2c-2.4,0-4.9,0.1-7.3,0.2
						c-0.8,0.1-1.5,0.1-2.3,0.1c-0.6,0-1.1,0.1-1.6,0c0-0.7,0.1-1.4,0.2-2c0-0.1,0.1-0.3,0.1-0.4l0.1-0.2l0-0.1l0,0l0-0.1
						c0.1-0.6,0.2-1.2,0.3-1.8c-1.6-1.1,0.3-7.8-1.9-8.1c0.8-4.5,1.3-3.2,1.7-9.6c0-1.7-1.5-2.4-1.8-4.5l1.1-0.1l-1.3-2.7l1.3-1.6
						l-0.4-1.9c0,0.8-0.4,1.7-0.8,1.6c-0.7-3,0.4-7.4,1-7.5l-1.3-7.1c0.5,0.1,0.7,1.3,1,2.3c-1.4-3.8,1.2-0.8-0.1-4.2
						c-0.2,0.5-0.7-0.2-0.9-0.3c0.6-1.8,0.4-5.8-0.1-8.7l0.8,0.5c-0.1-5.3-1-11.2-1.3-17.2c-0.2,2.2-1.6,1.7-1.9,0l1.2-0.8
						c-0.8-1.1-0.4,1.9-1.4-0.4c0-2.2,1.3-1.6,1.8-0.3l-0.6-2.7c0.3-0.2,0.6,0.4,1,0.6c-0.8-1.1,1-4.7-0.4-6.3l0.3-0.2
						c-0.3-6-0.9-8.6-1.2-13.5c-1,0-0.9-1.9-1.8-3.4c0.1-3.6,0.8-7.6,0.4-11.9c-0.7-3-0.9-0.8-1.6-2.2c0.9-0.3,0.6-4.6,1.4-2.4
						c-0.4-5.2-0.5-6.6-1.7-13.1c-0.3,0.7-0.5,1.5-0.8,1.1c-0.2-1.2,0.2-2.7,0.7-2.6l0.1,0.3c-1.8-7.3,1.9-17.1-0.4-22.8l0.1,0.3
						l-1.3-6c0-2.8,0.8,1.6,1.3-0.5C57.8,59.8,59.4,56,58,50.6c2.6-4.3-1-14.8,0.5-20.5l-0.6,0.4c-0.4-0.7-0.3-1.1-0.1-1.5
						c0.1-0.2,0.2-0.4,0.3-0.6c0-0.1,0.1-0.2,0.1-0.3c0-0.1,0-0.1,0-0.2c0,0,0,0,0,0c-0.1,0-0.2,0-0.3,0.1c-0.1,0.1-0.1,0.3-0.2,0.5
						c-0.1,0.3-0.2,0.4-0.4,0l0-0.4c0-0.1,0-0.1,0-0.1l0,0l0-0.2c0-0.1-0.1-0.3-0.1-0.5c0-0.3-0.1-0.7-0.1-1c0.4,0,0.8,0,1.2,0
						l0.6,0l1.9,0c2.6,0,5.3,0,7.9,0.1c5.3,0.1,10.6,0.3,15.8,0.2c4.6-0.1,2.4-3.5,8.3-2.3l-1.6,1.3c9.2-2,19-1,28.1-2.7
						c-0.5,0.3-0.5,0.7-1.4,0.7c2,0.8,7.1-0.3,7.1-1.1c1.4,0,0.4,0.6,1.3,1c2,0.4,4.8-1.4,5.9-0.6c0.2,0.1-0.5,0.3-0.9,0.4
						c1.2-0.5,5.9-0.2,4.6-1.2c3.4,0.3,6.5-0.8,9.3-0.3c1.7-1.2,5.9,0.2,6.4-1.4c-0.2,1.7,6.1,1,8.2,0.1c-0.7,0.5,1.9,0.4,1.1,1.2
						c2.5-0.1,4.7-0.6,4.2-1.4c4.6,1.8,9.1-2.1,11.8,0.3c7.3-1.3,14-2.3,20.6-3c-0.1,1.7-7.3,0.5-6.9,2.3c6.2-1,9.8-2.6,16-2.6
						c1.6,0.1-0.9,0.8-1.4,1.1c6.2-1,12.1-0.5,17.6-1.7c0,0.2-0.6,0.4-1.2,0.5c1.1-0.1,2.6,0.1,2.4-0.6l-1.1,0.3
						c-1.8-1,4.2-2.5,4.4-3.1c-1.8,2.3,5.5,0.3,2.7,3.2c0.7-0.2,1.6-0.6,1.4-1.1c1.1,0.1,1.4,0.4,0.4,1c3.9-0.6,2.5-1.4,6-1.5
						c0,0.4-0.7,0.6-1.1,1c1.8-0.8,3.5-1.6,6.6-1.5c-0.2,0.2,0.2,0.5-0.7,0.5c2.6-0.2,4.8-0.8,7-1.3c1.1-0.2,2.3-0.5,3.5-0.6
						c0.3,0,0.6-0.1,0.9-0.1l0.5,0l0.3,0c0.4,0,0.9,0,1.3,0.1c-1.5,1.7,1,0.5,0,1.9l0.6-0.2c0.1,0.1,0.2,0.3,0.3,0.5
						c0.2-0.3,0.4-0.7,0.6-1.1c0,0.7,0.3,1.2,0.5,1.9c0.1,0.2,0.1,0.3,0.2,0.5l0.1,0.3l0,0.1l0,0.2c0.1,0.6,0.1,1.2,0,1.7l-0.7-1.9
						l0.5,5l0.4-2.9c0.9,2.7,1.7-0.4,1.5,3.2c-0.2-0.7,0.1,2.7-0.6,4.1v0c0.5,1.3,1,2.6,0.8,4.6c-0.4,0.5-1.5-0.3-1.8,0
						c1.2,1.2,0.6,6.2,2,7.8c-0.3-0.5-1-0.5-1.2-0.3l1,1c-0.2,1.2-0.4,1.4-1,1.3c0,3.7,1.7-1.3,1.2,3.2c-0.1-0.3-0.2-0.2-0.4-0.9
						c-0.2,4.5,1,8.5,0.8,12.6c-1.3,1.3-0.5-3.5-1.6-2.1c0.6,5.9,2.3,12.1,2.3,17.8l0.1-1.1c2,0.7-0.8,4.3,0.3,7.1
						c-0.2-0.7-1.1-0.9-0.9-0.7c-0.1,3.9,0.9,7.9,1.8,13.8l-0.5-0.7c-0.3,2.3,0.1,6.1,0,8.5c0.5,0.7,0.5,2.1,1.2,1.2
						c-2.5,7.8,2.3,14.5,0.3,21.4c0-0.8-0.5-1.9-0.5-1.3l0.8,5.8c0.8-0.5,0.5-0.8,1.1-2c0.5,0.7,1,2.3,1.1,3.7
						c-0.7-2.6-1.4,0.1-1.8,1.2c0.2-0.2,0.6,0.2,0.8,0.1c-1.4,3.1,1.8,0.4,0.9,4.6l-0.5-0.2c0.3,1.5,1,2.9,0.9,4.6
						c-1,0.7-0.5-1.6-1.4-1.7c0.2,2.3,2.1,4.5,1.2,6.7c-0.3-1-0.4-2.4-0.7-3.4c-1,2.4-0.7,2.6-0.8,4.3l0-0.2l-0.3,4l0.3-1
						c2.7,2.8,0.8,5.9,2.7,9.8c-1.8-3.7-1-0.6-2.1-0.8c-0.3,1-0.5,2.6-0.9,2.1c1,1.8-0.5,3.1,0.9,5.7c-0.4,0.1,0.1,2-0.9,1.6
						c0.4,2.4,0.6-0.6,1.1-0.4c1.4,3.7-1,8.8,1,14.1c0.9,4.6,2.2,5.4,3,9.6c-0.5,1.5-1.4-1.1-1.4-1.1c-0.4,2.4-0.2,4.1,0.3,6.3
						c-0.3-0.4-0.6,0-1,0.7c0.2,1.8,1.4,1.1,1,3.5c-0.4-0.4-1.1-0.9-1.5-1.7c0.4,2.1,1.2,4.1,1.7,6.2c-0.6,0.6-1-1.2-1.5-2
						c0.4,2.4,0.9,6.2,1.9,6.9l0.3-1.6c0.1,0.9-0.8,0.5-1-0.1c-0.9-2,0.2-3,0.5-3.1l0.3,1.5c2-1.7-0.7-6.1-0.7-9.2l1.6,1.2l-1.5-3.1
						c0.4-0.7,1.2-1.2,1.5,0.3c0.6-2.2-0.6-1.9,0.1-3.9c0.1-0.2,0.2-0.1,0.3,0.1l-0.6-2.1c0.4,0.4,1.1-0.4,0.9,0.9
						c0.7-3.9-1.5-6.2-0.4-7.7l0.1,0.3c-0.8-5.4-1.2-0.5-2.7-4.4l2.6-2.9l-1.2-0.5c0-0.6,0-1.7,0.5-1.5c-0.9-2-0.5,0.4-1.3-0.8
						c0.9-2.7-0.9-7.4,0.9-8.1c-0.9-0.9-0.5,2.6-1.3-0.2c1.9-0.9-0.5-3.3,0.2-5.8c1,0.7,0.6,3,1.4,0.6c-1.8-1.4,0.1-4.8-0.3-6.8
						c-1.4,0-0.8-4.4-1.4-7.9c0.5,0.2,0.4-6.6,0.7-9.8l0.2,0.1c-1.4-0.6-1.3-3.9-1.7-6.3c0.8,0.1,1.2,0.5,1.6,1.8l-0.1-2.3
						c-0.5-0.5-0.7-1.2-1-2.7l1,0.5c-0.2-3-1.5-6-1-9.9c-1-0.2-2.5,3.2-3.3-0.8c0.5-0.2,1.4-0.4,1.6,0.7c-0.1-0.3-0.5-1.2-0.3-2
						l1,1.6c0.3-1.8-0.8-0.9-0.8-2.3c0.7,0,0.5-1.1,1.1-0.9c0.1,0.4-0.2,1.2,0.1,1.8c0-1.6,0.4-3.6,0.9-4.2c-0.4,0.2-1,0.1-1.1-1.1
						c-0.2-3,0.8-1.1,1.1-2.9c-0.5-0.7-0.1-2.7-1.2-2.7c0-0.9,0.5-1.1,0.7-1.4c-0.6-1.5-0.5-7.3-1.6-5.5l-0.1,0.4
						c0-0.1,0-0.2-0.1-0.2c0,0,0,0,0,0v0c-1.4-5.1,0-10.7-0.7-15.8l0.4,0c-0.6-3-0.6-6.8-1.5-8.9c0-0.9,0.6-2.2,1-1.8
						c-0.4-2.3-0.8-2.6-0.4-5.9c0.8,2.3,0.5-0.8,0.6,2.4c0.2-3,0.7-3.8-0.5-6.9c1,1,1.1-2.3,0.7-3.8l-0.6,2.2
						c-0.2-1.6-0.2-3-0.2-4.5l1.3,0.7c1.2-6.3-3.1-11-0.9-15.8c-1-1.6-0.4,3.4-1.5,2c0-2.8,1.6-5.9,1.6-6.8c0.5-3.9-2-3.5-1.7-7.6
						c-0.4,0.5-1.6,1.1-2.1-1.9c0-2.9,1.7-3.6,2.1-1.8c0.1,0.7,0,1-0.2,1c0.2,0.9,0.5,2.1,0.9,1l-0.5-0.4c0.4-1.5,0.1-5.3,0.9-4.5
						c-0.3-1.8-0.5-2.1-0.6-1.7c-0.1,0.2-0.1,0.6-0.2,1.1c0,0.2,0,0.5-0.1,0.8c0,0.2,0,0.4-0.1,0.6c0.1-0.5,0.1-1.7,0.1-2.5
						c0-0.9,0-1.8-0.1-2.6c-0.1-1.7-0.2-3.2-0.3-5c-1.3,0.1-2.8,0.1-4.4,0.1c0.9,0.2,1.3,0.7,0.5,0.7c-4-0.1-5,0.2-5.5,0.5
						c-0.4,0.3-0.5,0.7-2.4,0.9c-2.2-0.6,0.7-1.6-3.1-0.9c-2.3-0.3-0.6-1.1,0.3-1.6c-3.4,1-6.4-0.2-8.4-0.3l1.8-0.4
						c-1.1,0.3-1.9,0.3-2.9,0.3l1.1,0.8c-1.1-0.1-2-0.1-2-0.4c-1.1,0.6,0.9,1.4-1.2,2.3c-1.4-0.4-4.3,0.7-4.8-0.4
						c4.5,0.2-0.6-1.1,3.2-1.5c-0.7,0.2-1.6,0.2-2.7,0.1c-0.2-0.1,0.1-0.2,0.4-0.3c-4.3-0.8-1.9,1.4-6.3,1.6c0.5-0.7-1.1-1.2-1.8-1
						c1.8-0.1,0.9,1.1-0.7,1.6c-2.9-0.4-3.1,0.5-4.5,0.6l1.7,0.1c-0.5,0.7-1.9,0.7-3.9,1c-0.2-0.5,1.8-0.4,1.1-0.6
						c-2.1,1.3-5-0.9-8,0c-1.4-0.4-0.2-1.2-1.5-1.5c-3.4,1-3.7-0.7-7.3,0.2c1.1,0.8,1.2,0.6-1.2,1.6l5.9-0.9l-3.7,1.5
						c1.8-0.1,3.7-0.8,4.8-0.7c-1.8,0.8-1.6,0.6-0.7,1.3c-2.5-1.2-4.8,1-7.6,0.3l0-2.2c-4.3-0.8-7.5,1.5-13,1.3l1.8,0.3
						c-0.7,0.9-3.4,0.3-5.1,0.8c0.1-0.7-1-0.9-1.8-1.4c0.1,0.5-4,0.2-4.4,1.6l-2.5-0.8c-4.5-0.2-4.9,2.4-9.2,2.3
						c1.2-0.9-0.7-1.3,2.1-2c-1.4,0.1-2.7,0-2.7,0.5c-0.9-0.4-3.9,1.2-5.2,0.6c-0.6,0.4-0.7,1.1-2.3,1.1c-0.2-0.1,0-0.4,0-0.4
						c0,0.4-2.5,0.6-1,1.4c-4.5-2.1-12.2,0.8-16.2-0.9c-3.1,0.4-6.8,0.9-9.6,1.1c0.2-0.2,0-0.4,0.5-0.3c-3.9-0.5-2.3,2.2-6.8,1.7
						c-2.3-1.1,2.3-0.8,0.9-1.1c-0.7-2.4-5.3,0.6-8.4-0.6l0.7-0.2c-2.3-0.7-5.5,1.2-9.2,1.2c0,0,0.2-0.2,0-0.4
						c-2.5,1.4-7.3,2-10.8,2.6c1.1-1,1.6-0.6,0.9-1.5c-1.6,0.2,0.6,1.5-2.6,2c-1.1-0.5-3.4-0.8-3.8-1.8l3-0.2
						c-1.6-1.2-3.9,0.2-5.5,0.1l0.2-0.6c-4.6,0.4-4.6,1.9-9.6,2l0.5,0.4c-2.6,1.6-2.3-0.7-5,0.5l-0.9-1.4c-1.8,0.5-6.2,1.8-9.4,2.2
						c1.8-1.2,5.5-1.9,7.8-2.7c-1.8,0.1-6,0.4-6.9,1.2c0.7-0.2,1.6-0.6,2.3-0.4c-2.1,1.3-5,2-8.5,2.1c0.1-0.5-0.1-0.8-0.5-1
						c-0.2-0.1-0.4-0.2-0.7-0.3c-0.3-0.1-0.8-0.1-1.4-0.1c-2.1-0.1-5,0.1-7.7,0.1c0,2.7-0.1,5.2-0.8,6.6l0.5,3.3
						c0.1,0.8,0.2,1.6,0.2,2.4c0.1,1.6,0.1,3.2,0.1,4.8c0,3.2-0.2,6.6,0.1,10.3c2.1-2.7,0.2,2.1,2.4,1.6c0.2,1.7,0.2,2.3,0.1,2.5
						l-1.1,5.2c-0.6,1.3-0.6-1.6-1.1-1.4c0,3.7-0.9,1.6-1.3,4.1c0.8-0.5,1.2,1.2,1,3.4l0.9-3c1.5,5.1-1.7,4.6-0.2,9.8l-0.8-1.6
						c0.6,2.7,0.5,9.9,2.5,12.5c-0.2,0.5-0.8,1.2-1,0c0.1,6.4,2.7,14.2,1.8,19.3l-0.6-0.5c0.2,1.2,1.2,2,0.7,3.6
						c-0.2-0.1-0.6-0.4-0.6,0.1c0.2,0.6,1.1,3.1,0.9,4.8l-0.7-1.3c-0.4,6.3,2,9.6,2.7,14.8c-1.6,0.1-1.9,5-2,7.5l-0.2-0.1
						c0.2,7.3,2,12.3,3,19.1c-1.5,4.3,0,14.3-0.6,21.1c0.2-1.1,1.3,0.1,1.5,1.3c-0.2,1.6,1.4,4.3-0.2,4.1v-0.6
						c-1.4,1.3-0.8,4.5-0.8,7.1l2,0.3c-2.5,6.8,2,17.4-0.4,21.1c0.6,1.6,0.7,3.6,1.2,5.1l-1,0c0,4.5,0,6.7,0.5,12.2l-0.8-1.1
						c0.1,3.1,3.2,3.8,3.5,6.6c-0.5,0.4-1,0.9-1.5,1.5c0.2,2.9,0.2,5.9,0.2,9.1c3,0,6.3,0,9.5-0.2c1-0.1,1.2-0.1,1.7-0.1
						c0.5-0.1,0.9-0.1,1.4-0.2c0.9-0.1,1.8-0.4,2.7-0.6c-0.1,0.2-0.2,0.7-1.1,0.8c2.6-0.1,9.9,0.5,8.9-1.6c0.1,1.4,5.6-0.2,8.5-0.9
						l-0.4,1.1c2.4-1.4,2.5-1.8,5.9-2.4c0.8,0.1,0.8,0.8-0.3,0.6c2.8,0.4,2.1-1.1,5.4-0.7l-1.2,0.7c2.8-0.1,2.6-0.4,4.1-1.3
						c1.7-0.5,5.3,0,5.8,0.9c0.3-0.6,1.8-1.4,3.5-1.2c0.2,0.3-0.3,0.6-0.6,0.7c4.7,0.4,6.9-1.6,10.2-0.7c0.1,0.3,0.3,0.5,0.6,0.6
						c-3.7,0.2-6.7,0.3-6.4,0.2c0.1,0.9,3.1,1,0.7,2.4c2.4-0.9,6.4-2.6,9.4-2.3c0.2,0.1,0.3,0.2,0.4,0.3l-0.3,0.1
						c0.7,0.1,1.3-0.1,1.8-0.2c0.9,0.1,1.5,0.2,2.4,0.2c0.4,0.8,3.5,0.2,5,0.2c-0.2-1,1.8-1-0.1-1.7c0.2,0.1-0.3,0.1-1.3,0.2
						c-0.2,0-0.5,0.1-0.6,0.1c0,0,0.1-0.1,0.1-0.1c-1,0.1-2.3,0.2-3.7,0.3c1.1-0.6,2.4-1.1,4.1-0.6c0.7-0.7,1.5-1.4,2-1.8
						c2.1,1.3,6.1,1.9,6.7,2.8c4.5-0.8,10.8-1,13.5-3.1c1.3-0.3,1.5,0.5,2,0.8c-0.7,0.2-1.6,0.2-2,0.6c2.6-0.6,7.7-0.6,8.2-2
						c3.3,0.4-1.8,1.4,2.7,0.9l-0.6,0.4c9,1.7,14.2-4.3,24.2-2c-0.7-0.1-1-0.2-1.2-0.4c11.3,0.6,23-2.4,34.1-1
						c3.2,0.2,3.4-0.7,5.3-1.4l0.7,1.1l3.2-1.5c4.6-1.2,8.2,2.3,14,0.2l-0.8-0.7c2.1,0,6.7-0.8,6.4,0.1c0.2-0.1,0.6-0.8,1.5-0.5
						l0.1,0.6l5.1-1.3c4,0.2-0.5,2.4,5.4,2.2c2.2-0.3,6.1-2,5.3-2.4c-0.9,0-2.3-0.2-2.4-0.8l2-0.4c0.3-1.8,1.7-3.6-3.2-4.5l-3.4,1.2
						l-1.1-0.8l2.9-0.2c-1.7-0.7-2.7,0.1-3.8,0.6c-0.3-0.4-0.8-0.7-1.5-0.9l-3.3,1.8c-0.4-0.6,1.4-1.4-0.8-1.7
						c-1.5,0.9,1.6,1.4-1,2.1c-1.7-0.7-1.2-1.4-3.1-0.6c-0.3-0.4,0.1-0.7,0.9-1c-1.7,0.6-4.5,0.5-5.3,1.4c-1.8-0.9-5.8,0.6-5.7-1.1
						c-0.5,0.4-2.9,1.4-4.5,1.6c2.8-2.1-5.9,0.2-5.2-1.9c-2,1.9-7.6,1.2-11.3,2.4c0.2-0.1,0.6-0.5,0.9-0.4c-2.1,0-2.8-0.5-4.1-0.8
						c-0.2,1.5-3.5,2-5.2,3c-2.7-1.3,1.5-1.8,0.6-3.1c0.2,1.2-4.4,1.4-3.5,2.4c-2-0.8-1.7-0.3-2.8-1.5c-0.2,1.8-1.8,0.4-3.4,1.6
						c-2.9-0.7-0.8-1.7-3.9-0.9C198.4,217.6,201.2,216.9,201.2,216.9z M126.5,224C126.5,224,126.5,223.9,126.5,224
						c0.6-0.1,1.2-0.1,1.5-0.2C127.7,223.8,127.3,223.9,126.5,224z M120.2,224.3c0.8,0,1.7,0,2.7-0.1c0.2,0.4,0,0.7-0.6,0.8
						C122.6,224.7,121.2,224.6,120.2,224.3z M133.9,230.8c-1,0.2-1.3,0-1.5-0.2c0.5,0,1-0.1,1.7-0.2c0,0,0.1-0.1,0.1-0.1
						C134.2,230.5,134.1,230.7,133.9,230.8z"/>
					<path className="st1" d="M135.6,229.4c0.1,0,0.2-0.1,0.4-0.1c-0.2-0.1-0.4-0.1-0.6-0.2c-0.1,0.1-0.2,0.2-0.3,0.4
						C135.3,229.4,135.4,229.4,135.6,229.4z"/>
					<path className="st1" d="M266.2,93.9l0-0.1c0,0.1-0.1,0.2-0.1,0.3C266.2,93.9,266.2,93.9,266.2,93.9z"/>
					<polygon className="st1" points="66.8,199.6 66.5,199.7 66.8,200.2 					"/>
					<path className="st1" d="M264.5,128.7c-0.1,0.1-0.2,0.2-0.2,0.5C264.3,129.1,264.4,128.9,264.5,128.7z"/>
					<path className="st1" d="M265.1,143.7l-0.3,2.1C265,144.9,265,144.2,265.1,143.7z"/>
					<path className="st1" d="M265.2,155.2c0.2,0.1,0.3,0.2,0.5,0.2l0,0L265.2,155.2z"/>
					<path className="st1" d="M221.5,17.2c-0.1,0-0.3,0-0.4,0.1C220,17.5,220.7,17.4,221.5,17.2z"/>
					<path className="st1" d="M259.5,26.6c-0.2-0.6-0.4-1.1-0.6-1.7C258.9,25.9,258.9,26.6,259.5,26.6z"/>
					<path className="st1" d="M160.8,21.6C160.8,21.6,160.8,21.6,160.8,21.6c-0.1,0-0.2,0-0.4,0H160.8z"/>
					<path className="st1" d="M258.8,22.4c-0.2,1-0.1,1.8,0.1,2.5C259,24.1,259,23.2,258.8,22.4z"/>
					<path className="st1" d="M267.3,205.1l0,0.6c0.1,0,0.1,0,0.2,0.1L267.3,205.1z"/>
					<path className="st1" d="M267.5,205.7l0.2,0.6C267.6,206.1,267.6,205.8,267.5,205.7z"/>
					<path className="st1" d="M268,207.6l-0.3-1.3C267.7,206.8,267.7,207.3,268,207.6z"/>
					<path className="st1" d="M267,189.9l-0.4-0.1C266.7,189.8,266.8,189.9,267,189.9z"/>
					<path className="st1" d="M266.7,185.2c0,1.1-0.7,2.8-0.3,4.3l0.3,0.1C266,189,267.4,186.2,266.7,185.2z"/>
					<path className="st1" d="M270.3,165.7l-0.1,3.9c0.4-0.7,0.9-1.6,1,0.1C272.2,164.7,270.4,170.8,270.3,165.7z"/>
					<path className="st1" d="M270.2,153.6c0.3,2.1,0.6-0.1,0.8,0C270.6,152.3,270.5,152,270.2,153.6z"/>
					<path className="st1" d="M265.6,66.7l1,0.2C266.4,65.2,266.2,66.8,265.6,66.7z"/>
					<polygon className="st1" points="259.8,50.3 259.3,51.9 260.2,52.6 					"/>
					<polygon className="st1" points="266.1,40.2 266.3,40.8 265.8,38.2 					"/>
					<path className="st1" d="M143.4,13.4l0.6,1.1C145,14.3,145.2,12.9,143.4,13.4z"/>
					<path className="st1" d="M80.4,17.9c-0.7-0.5-2.5-0.8-3.6-0.2C78.3,17.8,79.7,18.1,80.4,17.9z"/>
					<polygon className="st1" points="56.6,183.4 56.1,182.2 56.5,184.6 					"/>
				</g>
			</g>
		</g>
	</g>
</g>

<text transform="matrix(1 0 0 1 129.5659 138.4961)" className="st3 st4 st5">A2</text>
</svg>
