<?xml version="1.0" encoding="utf-8"?>
<!-- Generator: Adobe Illustrator 24.3.0, SVG Export Plug-In . SVG Version: 6.00 Build 0)  -->
<svg version="1.1" id="Layer_1" xmlns="http://www.w3.org/2000/svg" xmlns:xlink="http://www.w3.org/1999/xlink" x="0px" y="0px"
	 viewBox="0 0 2880 1800" style="enable-background:new 0 0 2880 1800;" xml:space="preserve">
<style type="text/css">
	.st0{fill:#FCA311;}
	.st1{fill:#C1292E;}
	.st2{fill:#9D0208;}
	.st3{fill:#F1C47B;}
</style>
<g>
	<path class="st0" d="M673.5,529.3c0.4,85.5,78.2,160,148,156c47.2-2.7,80.7-40.8,95-57c12.9-14.6,49-55.6,44-111
		c-3-33.4-19.6-56.2-31-72c-11-15.2-50.6-69.9-106.5-74C752.8,366.2,673.1,442.3,673.5,529.3z"/>
	<circle class="st1" cx="795" cy="527.8" r="149.5"/>
</g>
<g>
	<path class="st2" d="M1.3,1845c959.6-14.7,1919.1-29.3,2878.7-44V989c-38.4,266.2-169.9,485.1-345.3,564.9
		c-34.8,15.9-181.6,82.7-322.8,13.4c-43-21.1-61.7-43.3-125.5-70.9c-91-39.4-176.1-47.9-221.2-46c-193,8.4-200.3,233.1-429,310.2
		c-178.8,60.3-350.5-17.4-384.1-32.6c-39-17.6-36.8-21.8-131.5-80.4c-199.2-123.1-309.7-191.5-452.9-224.1
		c-114.3-26-224.6-52.1-312.4,26.8c-25.7,23.2-85.5,87.9-127,193.4c-13.3,33.9-21.7,64-26.9,86.2C1.3,1768.4,1.3,1806.7,1.3,1845z"
		/>
</g>
<g>
	<path class="st0" d="M1.3,1833H2880v-759.9c-86.8,318.1-210.2,443-311.9,496.5c-237.8,124.9-393.6-122.6-755.6-53.8
		c-320.6,60.9-332.2,280.5-581.7,274.2c-310.2-7.9-394.9-349.8-686.7-362c-129.8-5.4-314.4,53.9-544.2,353.1
		C0.3,1798.4,0.9,1815.6,1.3,1833z"/>
</g>
<g>
	<path class="st0" d="M2315.9,413.9c0.2,31.3,28.5,58.6,54,57.1c17.2-1,29.4-14.9,34.6-20.9c4.7-5.4,17.9-20.4,16-40.7
		c-1.1-12.2-7.1-20.6-11.3-26.4c-4-5.6-18.5-25.6-38.8-27.1C2344.8,354.1,2315.7,382,2315.9,413.9z"/>
	<ellipse class="st3" cx="2360.2" cy="413.3" rx="54.5" ry="54.8"/>
</g>
</svg>
