<svg xmlns="http://www.w3.org/2000/svg" xmlns:xlink="http://www.w3.org/1999/xlink" viewBox="0 0 1920 1080"><defs><style>.cls-1{isolation:isolate;}.cls-2{fill:none;}.cls-3{fill:#00b4d8;}.cls-4{fill:#90e0ef;}</style></defs><g id="Layer_2" data-name="Layer 2"><g id="Layer_1-2" data-name="Layer 1"><image class="cls-1" width="5184" height="3456" transform="translate(755) scale(0.22 0.31)" xlink:href="../../../omar-lopez-rwF_pJRWhAI-unsplash%20(1).jpg"/><rect class="cls-2" width="1920" height="1080"/><path class="cls-3" d="M1897,1080H0L3,0H1424c-38.9,10.3-168.3,49.8-261,178-16.2,22.3-113.7,161.9-82,346,21.1,122.3,88.3,201,111,227,12,13.7,58.5,65.2,136,108,29.9,16.5,84.2,45.8,158,56,81.2,11.2,112-11,166-9C1713.3,908.3,1797.6,941.6,1897,1080Z"/><path class="cls-4" d="M620,1080H1V730A462.39,462.39,0,0,0,102,864c21.2,19.3,91.6,82.1,200,108,108.7,25.9,155.6-9.2,235,34C578.2,1028.4,604.7,1059.1,620,1080Z"/></g></g></svg>