<?xml version="1.0" encoding="utf-8"?>
<!-- Generator: Adobe Illustrator 24.3.0, SVG Export Plug-In . SVG Version: 6.00 Build 0)  -->
<svg version="1.1" id="Layer_1" xmlns="http://www.w3.org/2000/svg" xmlns:xlink="http://www.w3.org/1999/xlink" x="0px" y="0px"
	 viewBox="0 0 1366 768" style="enable-background:new 0 0 1366 768;" xml:space="preserve">
<style type="text/css">
	.st0{fill:#FCA311;}
	.st1{fill:#C1292E;}
	.st2{fill:#9D0208;}
	.st3{fill:#F1C47B;}
</style>
<g>
	<path class="st0" d="M193.4,219.5c0.3,68.7,61.9,128.6,117.2,125.4c37.4-2.2,63.9-32.8,75.2-45.8c10.2-11.7,38.8-44.7,34.8-89.2
		c-2.4-26.8-15.5-45.2-24.5-57.9c-8.7-12.2-40.1-56.2-84.3-59.5C256.2,88.4,193.1,149.6,193.4,219.5z"/>
	<ellipse class="st1" cx="289.6" cy="218.3" rx="118.4" ry="120.1"/>
</g>
<g>
	<g>
		<path class="st2" d="M-6.3,773.1c461.4-4.7,922.9-9.3,1384.3-14.1V500c-18.5,84.9-81.7,154.7-166,180.2
			c-16.7,5.1-87.3,26.4-155.2,4.3c-20.7-6.7-29.7-13.8-60.4-22.6c-43.8-12.6-84.7-15.3-106.4-14.7c-92.8,2.7-96.3,74.3-206.3,99
			c-86,19.2-168.5-5.6-184.7-10.4c-18.8-5.6-17.7-7-63.2-25.7c-95.8-39.3-148.9-61.1-217.8-71.5c-55-8.3-108-16.6-150.2,8.6
			c-12.4,7.4-41.1,28-61.1,61.7c-6.4,10.8-10.4,20.4-12.9,27.5C-6.3,748.6-6.3,760.9-6.3,773.1z"/>
	</g>
	<g>
		<path class="st0" d="M-6.3,773.1h1380v-259c-41.6,108.4-100.8,151-149.5,169.2c-114,42.6-188.7-41.8-362.2-18.3
			c-153.7,20.8-159.3,95.6-278.9,93.5C434.4,755.7,393.8,639.2,253.9,635C191.7,633.2,103.2,653.4-7,755.4
			C-6.8,761.3-6.5,767.1-6.3,773.1z"/>
	</g>
</g>
<g>
	<path class="st0" d="M1135.1,112.8c0.2,31.3,28.5,58.6,54,57.1c17.2-1,29.4-14.9,34.6-20.9c4.7-5.4,17.9-20.4,16-40.7
		c-1.1-12.2-7.1-20.6-11.3-26.4c-4-5.6-18.5-25.6-38.8-27.1C1164,53,1134.9,80.9,1135.1,112.8z"/>
	<ellipse class="st3" cx="1179.4" cy="112.2" rx="54.5" ry="54.8"/>
</g>
</svg>
